<?xml version="1.0" encoding="utf-8"?>
<!-- Generator: Adobe Illustrator 24.0.2, SVG Export Plug-In . SVG Version: 6.00 Build 0)  -->
<svg version="1.1" id="레이어_1" xmlns="http://www.w3.org/2000/svg" xmlns:xlink="http://www.w3.org/1999/xlink" x="0px"
	 y="0px" viewBox="0 0 900 900" style="enable-background:new 0 0 900 900;" xml:space="preserve">
<style type="text/css">
	.st0{opacity:0.5;fill:#C7B299;}
	.st1{fill:#D1E8FD;}
	.st2{fill:#FFFFFF;}
	.st3{fill:#004496;}
	.st4{opacity:0.52;}
	.st5{opacity:0.52;fill:#004496;enable-background:new    ;}
	.st6{fill:#F15A24;}
	.st7{opacity:0.7;fill:#FFFFFF;enable-background:new    ;}
	.st8{fill:#CCCCCC;}
</style>
<path class="st0" d="M845.43,812.15H62.99c-19.64,0-35.57-15.92-35.57-35.57V658.61c0-19.64,15.92-35.57,35.57-35.57h782.45
	c19.64,0,35.57,15.92,35.57,35.57v117.98C881,796.23,865.08,812.15,845.43,812.15z"/>
<path class="st0" d="M841.43,550.75H63.55c-19.64,0-35.57-15.92-35.57-35.57V398.22c0-19.64,15.92-35.57,35.57-35.57h777.88
	c19.64,0,35.57,15.92,35.57,35.57v116.97C877,534.83,861.08,550.75,841.43,550.75z"/>
<path class="st0" d="M842.43,276.34H58.88c-19.64,0-35.57-15.92-35.57-35.57V122.55c0-19.64,15.92-35.57,35.57-35.57h783.56
	c19.64,0,35.57,15.92,35.57,35.57v118.23C878,260.42,862.08,276.34,842.43,276.34z"/>
<g>
	<circle class="st1" cx="125.19" cy="720.37" r="91.59"/>
	<circle class="st1" cx="125.19" cy="720.37" r="91.59"/>
	<g>
		<circle class="st2" cx="125.19" cy="720.37" r="91.59"/>
		<path class="st1" d="M125.19,641.44c21.08,0,40.9,8.21,55.81,23.12c14.91,14.91,23.12,34.73,23.12,55.81
			c0,21.08-8.21,40.9-23.12,55.81c-14.91,14.91-34.73,23.12-55.81,23.12s-40.9-8.21-55.81-23.12s-23.12-34.73-23.12-55.81
			s8.21-40.9,23.12-55.81S104.11,641.44,125.19,641.44 M125.19,628.78c-50.58,0-91.59,41.01-91.59,91.59
			c0,50.58,41.01,91.59,91.59,91.59s91.59-41.01,91.59-91.59C216.78,669.79,175.77,628.78,125.19,628.78L125.19,628.78z"/>
	</g>
	<path class="st3" d="M125.19,812.96c-51.05,0-92.59-41.54-92.59-92.59s41.54-92.59,92.59-92.59c51.05,0,92.59,41.54,92.59,92.59
		S176.25,812.96,125.19,812.96z M125.19,629.78c-49.95,0-90.59,40.64-90.59,90.59s40.64,90.59,90.59,90.59
		c49.95,0,90.59-40.64,90.59-90.59S175.14,629.78,125.19,629.78z"/>
	<g>
		<circle class="st3" cx="135.53" cy="682.83" r="9.48"/>
		<path class="st3" d="M106.37,696.93c2.09-4.05,5.89-8.72,15.09-8.34c6.56,0.27,9.69,4.48,10.55,9.94c0,0-5.77,6.01-6.62,11.65
			s-1.23,13.49-2.09,16.19s-5.36,8.34-13.11,6.99c-7.75-1.35-11.67-5.4-10.69-10.55C100.48,717.67,100.13,709.04,106.37,696.93z"/>
		<path class="st3" d="M145,720.73c-0.7,0-1.4-0.19-2.03-0.59l-12.01-7.61c-0.62-0.39-1.11-0.95-1.41-1.61l-5.03-10.79
			c-0.89-1.9-0.06-4.17,1.84-5.05c1.9-0.89,4.17-0.06,5.05,1.84l4.56,9.78l11.07,7.01c1.78,1.12,2.3,3.47,1.18,5.25
			C147.49,720.11,146.26,720.73,145,720.73z"/>
		<path class="st3" d="M122.08,767.37c-0.19,0-0.39-0.01-0.58-0.04c-2.43-0.32-4.14-2.55-3.82-4.97l2.2-16.75l-5.55-16.06
			c-0.8-2.32,0.43-4.84,2.75-5.64c2.32-0.8,4.84,0.43,5.64,2.75l5.89,17.05c0.22,0.65,0.29,1.34,0.21,2.02l-2.33,17.79
			C126.18,765.74,124.27,767.37,122.08,767.37z"/>
		<path class="st3" d="M107.43,767.37c-0.23,0-0.47-0.02-0.7-0.06c-2.42-0.38-4.07-2.66-3.69-5.08l2.6-16.35l-6.11-18.26
			c-0.78-2.32,0.48-4.84,2.8-5.61c2.33-0.78,4.84,0.48,5.61,2.8l6.45,19.29c0.23,0.68,0.29,1.4,0.17,2.1l-2.77,17.42
			C111.46,765.81,109.57,767.37,107.43,767.37z"/>
		<path class="st3" d="M142.44,767.39c-0.7,0-1.27-0.57-1.27-1.27v-46.37c0-3.98,2.13-8.63,8.14-8.63c5.43,0,7.05,4.73,7.15,7.23
			c0.03,0.7-0.51,1.29-1.21,1.32c-0.68,0.02-1.29-0.51-1.32-1.21l0,0c-0.02-0.49-0.36-4.8-4.62-4.8c-5.2,0-5.6,4.66-5.6,6.09v46.37
			C143.7,766.82,143.14,767.39,142.44,767.39z"/>
	</g>
</g>
<g>
	<circle class="st1" cx="126.15" cy="179.89" r="89.85"/>
	<circle class="st1" cx="125.12" cy="179.89" r="89.85"/>
	<g>
		<circle class="st2" cx="125.12" cy="179.89" r="89.85"/>
		<path class="st1" d="M125.12,102.46c20.68,0,40.13,8.05,54.76,22.68c14.63,14.63,22.68,34.07,22.68,54.76
			c0,20.68-8.05,40.13-22.68,54.76s-34.07,22.68-54.76,22.68s-40.13-8.05-54.76-22.68c-14.63-14.63-22.68-34.07-22.68-54.76
			s8.05-40.13,22.68-54.76C84.99,110.51,104.44,102.46,125.12,102.46 M125.12,90.04c-49.63,0-89.85,40.23-89.85,89.85
			s40.23,89.85,89.85,89.85s89.85-40.23,89.85-89.85S174.75,90.04,125.12,90.04L125.12,90.04z"/>
	</g>
	<path class="st3" d="M125.12,270.73c-50.09,0-90.84-40.75-90.84-90.84c0-50.09,40.75-90.84,90.84-90.84s90.84,40.75,90.84,90.84
		C215.96,229.98,175.21,270.73,125.12,270.73z M125.12,91.02c-49.01,0-88.87,39.87-88.87,88.87c0,49.01,39.87,88.87,88.87,88.87
		S214,228.9,214,179.89C214,130.89,174.13,91.02,125.12,91.02z"/>
	<g>
		<g>
			<path class="st3" d="M169.95,157.14c-0.51-1.19,0-3.24-1.61-3.57c-0.33,0.46,0.18,0.86,0.28,1.24c0.14,0.81-0.16,1.3-0.72,1.46
				c-0.32,1.36-1.44,0.23-2.08,1.43c-0.5,0.48-0.72,0.91-0.08,1.47c0.76,1.29,0.56,0.14,0.86-0.47c0.75,0.14,0.67-0.97,1.53-0.43
				C168.62,157.28,169.32,157.76,169.95,157.14z"/>
			<path class="st3" d="M167.29,150.48c0.47-0.37-0.2-0.76-0.47-0.94c-0.03,0.19-0.01,0.38,0.08,0.55
				C166.98,150.25,167.12,150.39,167.29,150.48L167.29,150.48z"/>
			<path class="st3" d="M165.95,184.87c0.27-0.19,0.68-0.19,0.81-0.6c-0.53-0.25-1.69,0.56-1.75,1.03c0.05,0.03,0.09,0.07,0.11,0.13
				C165.47,185.4,165.69,185.07,165.95,184.87z"/>
			<path class="st3" d="M165.65,178.47c-0.23-0.15-0.53-0.03-0.86-0.03c-0.56-0.12-1.24-0.29-1.33,0.47
				C164.13,178.53,165.58,179.37,165.65,178.47z"/>
			<path class="st3" d="M164.93,182.44c0.12-0.11,0.07-0.45,0.08-0.7c-0.26-0.38-0.35-0.98-0.56-1.4c0.15-0.36,0.67-0.41,0.64-0.87
				c-0.47-0.11-0.86,0.38-1.19,0.3c-0.56-0.74-0.69-0.25-0.77,0.5c-0.37,0.56-0.22,0.71,0.08,1.27c0.06,0.36-0.23,0.83,0.06,0.93
				c0.56,0.2,0.19-1.43,0.61-1.53C164.07,181.36,164.37,182.57,164.93,182.44z"/>
			<path class="st3" d="M164.04,184.44c-0.05-0.28-0.63-0.36-0.72-0.1C163.37,184.57,163.94,184.69,164.04,184.44z"/>
			<path class="st3" d="M162.9,184.97c0.07,0.25,0.29,0.32,0.5,0.4c0.04-0.04,0.08-0.08,0.11-0.13
				C163.51,184.92,163.06,184.7,162.9,184.97z"/>
			<path class="st3" d="M161.87,184.24c-0.2,0-0.47-0.15-0.56,0.1c0.06,0.29,0.35,0.29,0.64,0.3c0.18-0.25,0.67,0,0.81-0.23
				C162.68,183.92,162.21,184.2,161.87,184.24z"/>
			<path class="st3" d="M178.19,194.77c-0.18-0.54-0.82-1.13-0.83-1.76c-0.19-0.17-0.33-0.39-0.43-0.62
				c-0.1-0.24-0.14-0.49-0.13-0.74c-1.4-0.98-0.79-1.29-1.25-2.73c0.18-0.64-0.09-0.93-0.61-1.13c0.08-0.67-0.05-1.35-0.39-1.93
				c-1.05,0.51-0.56,5.48-2.3,3.67c-0.46-0.32-2.26-1.34-0.97-1.8c0.03-0.75,0.82-1.52-0.53-1.13c-0.49,0-1.03-0.56-1.36-0.56
				c0.05,1.36-0.82-0.18-1.44,1.54c-0.62,1.71-0.97-0.37-1.89,0.23c-0.88,0.36-0.88,1.69-1.94,1.6c-0.42,0.77-0.73,2.1-1.99,2.03
				c-0.5,0.16-0.77,0.47-1.25,0.4c-0.6,0.33-1.16,0.7-1.69,1.13c-0.1,0.44-0.23,0.88-0.39,1.3c0.16,0.63,0.19,0.68-0.19,1.16
				c0.06,0.59,0.15,1.18,0.28,1.77c-0.11,0.47-0.11,0.96,0,1.43c0.07,0.92-1.4,1.51-0.22,2.13c0.9,0.16,1.24-0.42,1.83-0.63
				c0.59-0.2,1.17,0,1.75-0.07c0.49-0.49,1.28-1.13,2.06-1c0.9-0.27,2.08-0.87,3.02-0.03c1.13,1.38-0.42,2.14,1.69,0.83
				c-0.09,0.14-0.12,0.3-0.11,0.47c0.08,0.09,0.14,0.19,0.17,0.31c0.03,0.12,0.02,0.24-0.03,0.35c0.41,0.39,0.26,0.7,0.16,1.2
				c0.07,0.63,0.88,0.59,1.28,0.84c0.79-0.27,0.68-0.21,1.33,0.13c0.35-0.16,1.07-0.81,1.69-0.7c0.49-0.06,0.63-0.7,0.92-1.1
				C176.12,199.43,178.15,197.51,178.19,194.77z"/>
			<path class="st3" d="M159.97,184.3c0.31,0.06,0.67,0.28,0.92,0c-0.17-0.4-0.7-0.36-1.03-0.56c0-0.18,0.06-0.26-0.03-0.37
				c-0.56,0-0.94-0.43-1.44-0.06c-0.64,0.11-0.97-0.42-1.47-0.5c-1.58-0.12-0.34,1.02,0.39,1.1
				C158.2,183.78,159.04,184.37,159.97,184.3z"/>
			<path class="st3" d="M162.32,175.27c-0.56-1.6-0.85,0.07-1.33,0.6c-0.63,0.17-0.76,0.97-1.27,1.3c-0.18,0.08-0.41,0.03-0.53,0.13
				c-0.22,0.18-0.18,0.59-0.44,0.67c-0.94-0.46-1.04,0.72-0.75,1.46c0.43,0.49,0.38,0.96,0.64,1.43c0.41,0.04,0.93,0.42,1.36,0.2
				c0.69,0.2,0.77,0.64,1.47,0.27c0.32-0.63,0.08-1.37,0.77-1.87c-0.11-0.88,0.21-0.66,0.56-1.13c-0.71-0.98-0.51-1.69,0.05-2.56
				C162.73,175.53,162.46,175.48,162.32,175.27z"/>
			<path class="st3" d="M157.34,180.23c-0.71,0-0.71,1.32,0,1.32C158.04,181.54,158.04,180.23,157.34,180.23z"/>
			<path class="st3" d="M156.3,181.25c0.09-0.31,0.38-0.3,0.39-0.56c-0.06-0.25-0.2-0.49-0.39-0.67c-0.53,0.32-0.45,0.36-0.77-0.27
				c-0.14-0.09-0.24-0.21-0.29-0.36c-0.05-0.15-0.06-0.31-0.01-0.47c-0.2-0.74-1.13-1.03-1.64-1.4c-0.47-0.5-1.17-1.25-1.61-1.73
				c-0.12-0.05-0.33,0-0.5-0.03c-0.27-0.06-0.41-0.33-0.56-0.14c0.24,1.02,1.2,1.54,1.69,2.37c0.63,1.72,1.63,3.29,2.94,4.57
				C156.51,182.76,156.15,181.99,156.3,181.25z"/>
			<path class="st3" d="M143.21,173.07c-0.33,0.51-0.34,2.17,0.19,2.26C144.77,175.33,143.58,173.19,143.21,173.07z"/>
			<path class="st3" d="M127.42,186.77c-0.15,0.31-0.21,0.56-0.53,0.73c-0.18,0.91-1,1.24-1.77,1.56c-0.56,0.56-0.27,1.45-0.23,2.14
				c0,0.56-0.56,0.89-0.64,1.56c0.1,1.06,0.19,2.68,1.67,1.84c1.03-1.73,1.23-4.3,2.14-6.13
				C127.95,188.03,127.93,186.52,127.42,186.77z"/>
			<path class="st3" d="M151.31,168.67c0.88,1.54,1.22,3.33,0.97,5.08c0.24,0.56,1.07,1.03,1.17,1.73c0.02,0.6,0.21,1.19,0.55,1.69
				c0.34,0.5,0.81,0.89,1.37,1.13c0.28-0.43-0.19-0.74-0.28-1.17c-0.01-0.38-0.03-0.75-0.08-1.13c-0.33-0.59-0.82-1.08-1.42-1.4
				c-0.23-0.57-0.5-1.13-0.8-1.67c-0.1-0.56,0.19-0.9,0.25-1.37c0-0.93,0.23-0.92,0.64-0.33c0.6,0.19,0.84,0.62,1.16,1.13
				c0.25,0.24,0.64,0.36,0.72,0.6c0.08,0.24-0.06,0.56,0.14,0.64c0.5-0.06,0.65-0.72,0.94-0.94c0.39-0.28,0.89-0.39,1.08-0.9
				c0.26-2.82-1.69-2.72-2.26-4.67c0.11-0.98,1.88-2.19,1.94-0.6c-0.31,0.35-0.79,1.22,0.08,1.27c0.68-0.23,0.48-1.03,0.19-1.56
				c1.62-1.62,4-0.69,4.33-4.24c0.4-0.21,0.19-0.76,0.25-1.33c-0.27-0.37-0.56-0.23-0.38-0.83c-0.2-0.63-0.98-1.46-1.33-1.97
				c-1.17-0.53,0-1.25,0.36-1.8c-0.18-0.17-0.42-0.26-0.67-0.27c-0.25-0.01-0.49,0.08-0.69,0.24c-0.24,0-0.27-0.37-0.53-0.5
				c-0.26-0.12-0.64-0.07-0.61-0.43c0-0.2,0.29-0.23,0.44-0.37c0.15-0.14,0.48-0.92,0.86-0.86c0.5,0.06,0,0.77,0.41,1.06
				c0.46-0.41,1.37-0.75,1.69,0c0.08,0.27,0,0.56,0.25,0.7c0.34,0.21,0.64,0,0.8,0.37c0.08,0.34,0.21,0.67,0.39,0.97
				c0.07,0.33-0.03,0.68,0.28,0.8c0.31,0.12,1.13-0.34,1.13-0.67c-0.05-1.13-1.33-1.69-1.83-2.47c0.18-0.56,0.68-0.67,0.41-1.43
				c0.56-1.53,1.21,0.31,1.89-1.17c0.22-1.23,0.79-2.76-0.03-3.86c-0.08-0.14-0.63-0.77-0.28-0.94c0.94,0.25,1.07,1.77,1.83,2.17
				c0.04-0.29,0.11-0.59,0.2-0.87c0-0.17-0.41-0.53-0.53-0.67c-0.75-0.49-1.13-1.5-1.8-1.83c-0.49,0.81-0.98-0.27-1.64-0.3
				c-0.73,0.62-1.06-0.4-1.75-0.23c-0.46-0.15,0.06-0.72,0.11-0.87c0.04-0.51,0.34-0.84,0.36-1.37c0.29-0.92,1.59-0.21,2.46-0.4
				c0.56-0.49,0.99,0.03,1.61,0.2c0.16,0,0.89-0.04,0.92-0.23c-0.42-0.56-0.46-1.13,0.11-1.43c0.83-0.25,0.89,0.62,1.41,0.56
				c0.52-0.06,0.31-0.66,0.45-0.93c1.04,0.5,0.25,1.33,0.36,2.2c-1.13,1.86,1.93,3.2,2.82,4.4c0.52-0.29-0.05-0.93,0.19-1.37
				c-0.33-0.56-0.05-0.4,0.11-0.83c-0.21-0.34-0.56-0.38-0.36-0.97c-0.29-0.23-0.56-0.6-0.83-0.84c-0.66,0.03-0.62-0.45-0.72-1
				c0.19-0.43,0.56-0.16,0.89-0.23c0.38-0.5,1-0.1,1.39-0.07c0.37-0.33,0.7-1.26,1.38-1.33c0.16,0,0.38,0.15,0.56-0.03
				c-0.1-0.56-1.32-0.52-1.36-1.1c0.53-1.41,2.21,0.41,3.16,0.03c0.1-1.08-1.28-1.52-2.16-1.3c-0.88-0.41-2.09-0.56-2.94-1
				c-0.5-0.07-0.9-0.32-1.44-0.1c-0.79,0.19-1.45-0.28-2.06-0.53c-0.32,0.14-0.77-0.08-1.03,0.07c0.14,1.05-0.73,0.05-1.13,0.03
				c-0.77,0.29-1.81,0.09-2.66,0.13c-0.41-0.32-0.88-0.55-1.38-0.67c-0.5-0.13-1.02-0.15-1.53-0.06c-1.01,0.12-2.03-0.14-2.86-0.73
				c-1.05,0.06-2.13-0.08-3.24-0.03c-0.35,1.16-2.04-0.14-2.61,0.83c-0.76,0-1.17-1.13-1.86-1.3c-0.51-0.1-1.24,0.04-1.8-0.1
				c-0.38,0.2-0.73,0.51-1.22,0.27c-0.64,0-1.13-0.37-1.86-0.27c-0.63,0.2-1.03-0.17-1.47-0.5c-0.37-1.13-1.73-0.81-2.69-0.9
				c-0.18-0.16-0.4-0.27-0.63-0.31c-0.24-0.04-0.48,0-0.7,0.1c-0.5,0-0.89-0.1-1.25,0.3c-0.46,0.3-0.85-0.03-1.33-0.07
				c-0.66,0.4-1.89,0.46-2.47,0.84c-0.11,0.16,0.14,0.28,0,0.43c-0.71,0.25-1.5-0.27-1.44,0.73c-0.65-0.36-0.75,0.18-1.16,0.4
				c-0.76-0.71-0.46-0.19-1,0.23c-0.23,0-0.18-0.38-0.33-0.63c-0.64-0.73-1.56-0.05-1.66,0.7c0.06,0.25,0.16,0.48,0.31,0.69
				c0.2,0.2,0.64,0.07,0.69,0.54c-0.96-0.18-2.04-0.68-3.11-0.6c-0.12,0.19,0.29,0.35,0.11,0.56c-0.11,0.12-0.37-0.12-0.53-0.14
				c-0.48,0.13-0.98,0.23-1.47,0.3c-0.4-0.24-0.56-0.34-0.97-0.06c-0.69,0-1.32,0.68-1.75,0.9c-0.43,0-0.48-0.3-0.33-0.7
				c-0.08-0.19-0.59-0.27-0.69-0.03c-0.19,0.34,0.18,0.56,0.14,0.9c-0.05,0.03-0.09,0.08-0.11,0.14c-0.5-0.26-0.92,0.09-1.25,0.33
				c0.06,0.99-0.79,0.11-1.16,0.4c-0.05,0.34,0.36,0.15,0.31,0.5c-0.17,0.01-0.34-0.01-0.49-0.07c-0.16-0.06-0.3-0.15-0.43-0.26
				c-0.12-0.12-0.22-0.26-0.29-0.41c-0.07-0.15-0.1-0.32-0.1-0.49c0.46-0.18,1.03,0.14,1.47,0.14c2.37-0.41-0.92-1.8-1.78-1.69
				c-0.44-0.19-0.91-0.3-1.38-0.3c-0.25-0.11-0.23-0.37-0.42-0.47c-0.56-0.19-1.36,0.03-1.94-0.1c-0.21,0.09-0.44,0.11-0.66,0.07
				c-0.43,0.29-0.93,0.45-1.45,0.47c-0.3,0.08-0.56,0.48-0.83,0.53s-0.56-0.13-0.64,0.1c0.3,0.71-0.41,0.83-0.78,1.33
				c-0.16,0.43-0.53,0.83-0.69,1.23c-0.45,0.18-0.95,0.05-1.25,0.5c-0.36,0.23-0.84,0.29-1.06,0.73c0.08,0.81-0.08,1.97,0.94,2.1
				c0.53,0,0.94-0.8,1.36-0.7c0.2,0.05,0.23,0.45,0.33,0.67c0.53,0.56,0.73,1.3-0.36,1.27c0-0.31,0.03-0.8-0.17-0.97
				c-1.28,0.32-0.73,1.03-0.64,1.9c-0.06,0.49-0.9,0.32-1.28,0.4c-0.44,0.21-0.68,1.21-1.3,1.4c-0.43,0.03-0.5,0.41-0.75,0.7
				c-0.14,0.14-0.32,0.24-0.52,0.28c-0.19,0.04-0.4,0.02-0.58-0.05c-0.17,0.07-0.15,0.46-0.33,0.56c-0.37,0.16-0.98-0.39-1.13,0.27
				c1.08,0.79,1.69,0.93,1.33,2.56c-0.65,1.13-3.01-0.53-3.6,0.67c0.13,0.82,0.03,1.67-0.31,2.43c0.14,0.31,0.21,0.66,0.19,1
				c0.14,0.33,0.53,0.05,0.78,0.1c0.64,0.21,0.6,1.13,0.22,1.63c-0.82,0.8-1.9,1.29-1.72,2.7c-0.15,0.35-0.38,0.65-0.66,0.91
				c-0.28,0.25-0.61,0.44-0.97,0.56c-0.3,0.61-0.95,1.07-1.03,1.8c-0.52,0.68-0.92,1.44-1.16,2.26c0.03,0.33,0.34,0.38,0.36,0.67
				c-0.1,0.35-0.07,0.73,0.08,1.07c-0.07,0.79-0.29,1.55-0.64,2.26c0.16,0.4,0.21,0.84,0.14,1.27c0.28,0.79,1.39,1.38,1.69,2.13
				c0.05,1.06,0.88,1.42,1.58,2.07c1.41,1.87,2.26-0.16,4.13,0.67c1.52-0.61,3.17-2.02,4.08,0.3c2.73-0.68,1.81,1.76,1.47,3.3
				c0.06,0.62,0.61,1.13,1.03,1.64c0.95,1.3,1.02,3.08,1.38,4.56c0.07,1.08-0.92,1.47-0.77,2.5c-0.81,1.59,0.5,3.08,1.06,4.56
				c-0.12,2.2,1.08,4.07,1.86,6c-0.32,0.59,0.07,1.57,0.69,1.6c1.2-0.62,2.86-0.05,3.91-1.07c1.05-1.02,2.26-2.43,2.63-3.86
				c-0.33-1.69,2.08-0.46,1.25-3.33c-0.56-0.97,0.71-1.54,1.19-2.3c2.17-0.72,1.65-2.5,1.67-4.37c-0.75-0.75-0.28-1.98-0.75-2.82
				c0.4-1.86,1.66-3.31,2.89-4.7c1.59-1.07,3.45-4.41,3.08-6.3c-0.26-0.1-0.49,0.25-0.83,0.3c-0.49-0.02-0.99,0.09-1.42,0.33
				c-0.97,0.12-1.08,0.44-1.66-0.6c0.19-0.4,0.14-0.62-0.28-0.87c-0.4-0.76-1.3-1.13-1.75-1.83c0-0.82-0.65-1.41-1.05-2.03
				c0.02-0.44-0.06-0.88-0.21-1.29c-0.16-0.41-0.4-0.79-0.7-1.11c-0.11-1.01-0.86-1.69-1.08-2.7c0.11-0.18,0.36-0.19,0.56-0.23
				c0.8,1.01,1.49,2.11,2.06,3.26c-0.13,0.92,0.68,1.44,1.13,2.1c0.11,0.68,1.07,1.13,0.53,1.69c0.62,0.64,0.68,1.5,0.92,2.37
				c0.43,0.31,0.82-0.22,1.25-0.37c0.45,0,0.79-0.35,1.23-0.37c0.68-0.72,1.73-0.56,2.08-1.56c0.97-0.29,1.82-0.88,2.41-1.69
				c-0.03-0.63,0.82-1.2,0.86-1.87c-0.15-0.35-0.39-0.66-0.69-0.9c-0.51-0.09-0.8-0.12-1-0.67c-0.11-0.26,0-0.46-0.31-0.7
				c-0.52,0.54-0.85,1.29-2,1.07c-0.36-0.24,0.07-1.32-0.72-1.03c-0.19-0.88-2.4-2.19-0.75-2.67c0.64,0,0.71,1.03,1.13,1.37
				c0.56,0.31,1.13,1.04,1.91,0.83c1.17-0.79,0.56,0.82,2.05,0.77c1.1,0.16,2.21,0.16,3.3,0c0.37,0.05,0.56,0.56,0.77,0.8
				c0.37,0.39,0.86,0.56,1.06,0.9c-0.23,0.56,0.56,1.16,0.86,1.16s0.43-0.32,0.69-0.4c0.49,1.13,0.38,2.99,1.25,4.16
				c0.17,0.75,0.47,1.46,0.89,2.1c0.26,0.66,0.66,2.72,1.33,1.5c1.01-1.04,0.9-2.58,0.72-3.95c0.2-0.47,0.64-0.5,0.94-0.83
				c0.16-0.36,0.41-0.67,0.72-0.9c0.39-0.76,0.9-0.94,1.36-1.53c-0.07-0.8,0.38-0.62,0.94-0.67c0.45-0.06,0.87-0.22,1.25-0.47
				c0.27,0.21,0.32,0.94,0.69,1.24c0.57,0.46,0.98,1.09,1.17,1.8c-0.1,0.41-0.17,1.01,0.39,1.03
				C150.78,169.3,151.03,168.63,151.31,168.67z M108.59,145.34c0.27-0.06,0.2-0.33,0.39-0.37c0.45,0.23,0.64-0.05,0.97-0.37
				c0.8-0.16,0.71-0.48,0.63-1.13c0.1-0.48,0.84-0.41,0.81-0.97c0-0.33-0.6-0.42-0.67-0.73c-0.19-1.02,0.99-1.17,1.42-1.73
				c0.01-0.15,0.06-0.3,0.14-0.43c0.09-0.13,0.21-0.23,0.35-0.29c0.14-0.06,0.3-0.08,0.45-0.06c0.15,0.02,0.3,0.09,0.41,0.19
				c-0.45,1.33-1.66,0.53-1.13,2.46c0.56,1.46,2.15-0.36,2.99,0.43c-0.25,0.67-1.17,0.12-1.83,0.4c-0.13,0.06-0.21,0.21-0.33,0.27
				c-0.12,0.06-0.44,0-0.44,0.3c0.16,0.41,0.73-0.59,0.92,0.43c-0.11,0.88-1.42-1.17-1.25,1.33c-0.38,0.39-0.67,0.69-1.22,0.33
				c-0.5-0.06-0.97,0.48-1.45,0.46c-0.33-0.15-0.79-0.44-1.22-0.13C107.77,145.75,107.85,145.1,108.59,145.34z M118.05,183.51
				c-0.39-0.05-0.68-0.95-0.47-1.5h0.08c0.23,0.17,0.11,0.53,0.16,0.84S118.16,183.26,118.05,183.51z M120.13,185.94
				c0.29,0.16,0.13,0.85,0,1.1c-0.31-0.15-0.18-0.82-0.06-1.1H120.13z M120.02,179.31c-0.06,0.64-0.62,1.86-1.25,1
				c0.1-0.32,0-0.56,0.06-0.87C118.94,178.99,119.94,178.66,120.02,179.31L120.02,179.31z M119.85,158.51
				c-0.12,1.69-0.75,1.29-1.91,1c-0.84,0.63-1.3,0.28-2.26-0.07c-0.5,0.06-0.82-0.42-1.33-0.37c-0.27-0.56-1.66-0.62-1.77,0.23
				c-0.05,0.38,0.16,0.9-0.31,0.97c-0.39-0.04-0.99-0.6-1.53-0.53c-0.46-0.56-0.85-1.22-1.75-1c-2.22-0.94-0.28-0.83-0.92-1.97
				c0.21-0.74-0.51-0.9-1.02-0.56c-0.48-0.15-1-0.14-1.47,0.03c-0.61-0.08-1.22-0.02-1.81,0.15c-0.58,0.18-1.12,0.48-1.58,0.88
				c-0.37-0.07-1.6,0.23-1.69-0.43c0-0.62,0.88-0.4,1.36-0.5c0.24-0.1,0.51-0.47,0.83-0.56c0.71-0.46,0.13-1.08,0.69-1.57
				c0.22-0.31,0.48-0.59,0.77-0.83c0.51-0.13,0.63-0.36,0.53-0.84c0.46-0.74,1.13,0.43,1.69-0.3c0.28-0.21,0.58-0.4,0.89-0.56
				c0.76,0.18,0.92,1.43,1.72,1.77c0.81,0.24,1.94,1.1,1.47,2.03c0.6,0,0.62-0.73,0.44-1.17c0.13-0.33,0.5,0,0.67-0.13
				c-0.14-0.49-0.85-0.56-1.13-1.01c-0.56-0.08-0.76-0.41-1-0.93c-0.28-0.18-1.08-1.08-0.25-1.33c0.26,0.2,0.33,0.5,0.72,0.56
				c0.34,0.94,1.78,1.07,2.21,1.9c-0.18,0.92,0.51,1.4,0.94,2.16c-0.11,0.86,0.8,1.27,0.97,0.37c1.22-0.61-0.3-0.7-0.25-1.53
				c0.03-0.2,0.21-0.1,0.36-0.1c1.39-1.65,1.13,1.87,2.05,2.2c0.74-0.11,0.77,0.59,1.47-0.17c0.34-0.06,0.56,0.38,0.89,0.43
				c0.52,0.08,0.9-0.64,1.41-0.27C120.15,157.37,120.24,157.69,119.85,158.51L119.85,158.51z M121.93,153.68
				c-1.5,0.5-2.97-1.43-4.33-0.07c-1.48-0.27-0.91,0.92-1.64,0.33c-0.03-0.31,0.32-0.18,0.33-0.43c0.02-0.25-0.28-0.38-0.31-0.67
				c-0.03-0.29,0.24-0.46,0.33-0.84c-0.01-0.13,0.01-0.27,0.07-0.39c0.05-0.12,0.13-0.23,0.24-0.31c0.37-0.89,0.59-1.08,1.42-0.63
				c0.31,0.93,0.71,1.07,1.5,0.5c-0.92-0.66,0.07-1.13,0.83-1c0.22,0.56-0.34,0.66-0.33,0.97
				C120.41,151.91,123.53,152.67,121.93,153.68L121.93,153.68z M128.45,156.08c-0.61,0.73-1.96,0-2.36-0.63
				c-0.02-0.44,0.08-0.87,0.28-1.27c-0.26-0.76-1.39-1.18-1.39-2.07c-1.5-1.22,2.75-3.14,2.14-1.07c-1.56,0.04-0.56,1.38,0.23,1.73
				c0.03,0.21,0.05,0.43,0.16,0.53c0.71-0.31,1.29,0.81,0.28,0.6c-0.05,0,0,0.11-0.08,0.1
				C127.84,154.83,128.59,154.92,128.45,156.08L128.45,156.08z M130.5,151.78c-0.31,0.07-0.77-0.73-0.33-0.87
				C130.51,150.8,130.95,151.67,130.5,151.78L130.5,151.78z M131.07,138.79c0.56-1.47-0.44-0.97-0.64-2.2c0.03,0,0-0.06,0.03-0.1
				c0.41-0.09,0.38,0.34,0.56,0.67c0.18,0.32,0.48,0.32,0.56,0.43c0.46,0.49,0.15,1.37-0.5,1.19L131.07,138.79z M136.67,150.72
				c-0.13-0.23,0.17-0.56,0.28-0.3c0,0.17-0.07,0.33-0.25,0.29L136.67,150.72z M141.91,135.25c0-0.29,0.56-0.53,0.86-0.56
				c-0.04,0.37-0.57,0.51-0.84,0.55L141.91,135.25z M150.06,146.23c-0.07,0.29-0.4,0.43-0.61,0.67c-0.13,0.15-0.21,0.41-0.38,0.27
				c0-0.25,0.2-0.32,0.31-0.46c0-0.34,0.27-0.56,0.31-0.9c0-0.24-0.21-0.64,0.11-0.7c0.13,0.15,0.22,0.34,0.27,0.53
				C150.1,145.83,150.1,146.03,150.06,146.23z"/>
			<path class="st3" d="M118.55,157.44c0.11,0.32,0.6,0.14,0.64-0.14C119.08,157.06,118.58,157.16,118.55,157.44z"/>
			<path class="st3" d="M109.04,155.64c0.12,0.18,0.28,0.33,0.46,0.44c0.19,0.11,0.4,0.17,0.61,0.19c0.16-0.15,0.18-0.47,0.25-0.73
				C109.97,155.55,109.32,155.36,109.04,155.64z"/>
			<path class="st3" d="M107.01,153.87c0.03,0.31,0.02,0.63-0.03,0.94C107.85,155.67,107.91,152.73,107.01,153.87z"/>
			<path class="st3" d="M107.37,153.31c0.08-0.05,0.14-0.13,0.17-0.22c0.03-0.09,0.04-0.19,0.02-0.28
				C107.29,152.44,107,153.23,107.37,153.31z"/>
			<path class="st3" d="M101.6,145.41c0.72,0.13,0.78,0.76,0.08,1.03c0.03,0.38-0.23,0.44-0.31,0.7c0.56,0.5,0.05,0.34,0,0.8
				c0.3,0.28,0.6-0.06,0.89-0.1c0.62-0.09,1.26,0.1,1.64-0.27c-0.05-0.36,0.31-0.48,0.28-0.8c-0.03-0.32-0.36-0.27-0.5-0.43
				c-0.15-0.61-0.99-1.25-1.13-1.84c0.81-1.32-0.66-0.28-0.08-1.43c-0.02-0.02-0.04-0.03-0.07-0.03c-0.02-0.01-0.05-0.01-0.07,0
				c-0.88,0.38-1.45,0.54-1.25,1.73C101.23,144.86,101.33,145.23,101.6,145.41z"/>
			<path class="st3" d="M100.32,147.01c0.6-0.03,0.5-0.44,0.56-0.93c0.61-0.62,0-1.23-0.78-0.84c-0.21,0.16-0.28,0.4-0.44,0.47
				c-0.16,0.07-0.38,0-0.42,0.27c0.25,0.63,0,0.56-0.22,1.1C99.3,147.62,99.98,147.13,100.32,147.01z"/>
			<path class="st3" d="M72.83,190.54c0.81,2.73-0.14,5.94,0.8,8.63c0.09,1.02,0.02,2.04-0.22,3.03c0,0.45,0.44,0.82,0.5,1.27
				c0.03,0.72,0.03,1.8,0.47,2.33c0.34-0.12-0.07-0.56,0.14-0.8c0.4,0.14,0.27,0.92,0.39,1.4c-0.63,0-0.49,0.18-0.31,0.63
				c-0.2,0.87-0.14,0.7,0.45,1.16c-0.1,0.31-0.12,0.65-0.05,0.97c0.07,0.32,0.22,0.62,0.44,0.86c0.45,0.41,0.44,1.01,1.05,1.23
				c0.78,0.98,3.32,2.72,4.3,1.43c-0.16-0.47-0.75-0.41-1.13-0.67c-0.55-0.48-0.98-1.07-1.28-1.73c0.13-0.39,0.34-0.56,0.28-1
				c0.11-0.4,0.43-0.4,0.42-0.8c0-0.66-1.08-0.38-1.13-1.07c0-0.45,0.56-0.43,0.61-0.86c0.03-0.2-0.05-0.28-0.05-0.6
				c-0.01-0.32,0.36-0.37,0.41-0.7c-0.36-0.28-0.86-0.08-0.77-0.84c1.42,0.18,0.95,0,1.08-1.16c0.36-0.27,1.29-0.15,1.64-0.47
				c0.93-0.73,0-1.67-0.45-2.4c1.1,0.18,1.84,0.63,2.36-0.9c0.21-0.66,0.3-1.34,0.83-1.8c0.68-0.87,0.64-1.76,0.56-2.73
				c0.43-1.08,1.8-1.59,2.82-1.73c1.09-1.02,1.25-2.92,1.42-4.37c-0.12-0.37-0.15-0.76-0.08-1.14c0.07-0.38,0.24-0.73,0.49-1.03
				c0.6-1.38,2.3-2.87,0.97-4.52c-1.23,0.17-1.66-1.78-2.82-1.37c-0.49-0.17-1.01-0.26-1.53-0.27c-0.17-0.1-0.19-0.49-0.33-0.6
				c-0.51-0.19-1.06-0.59-1.63-0.47c-0.35-0.23-0.67-0.51-0.94-0.84c0.18-0.72-0.32-0.92-0.45-1.33c-0.04-0.31-0.14-0.61-0.3-0.88
				c-0.16-0.27-0.38-0.5-0.63-0.68c-0.26-0.18-0.55-0.31-0.85-0.37c-0.31-0.06-0.62-0.06-0.93,0c-0.67,0-1.13-1.09-1.53-1.46
				c-0.36-0.21-0.64-0.16-0.69-0.64c-0.1-0.24-0.26-0.37-0.14-0.67c-0.22-0.14-0.23,0.25-0.47,0.2c-0.04-0.11-0.11-0.2-0.19-0.28
				l-7.46,13.5c0.29,0.58,0.53,1.17,0.74,1.78C70.27,189.16,72.17,189.28,72.83,190.54z"/>
			<g class="st4">
				<path class="st5" d="M170.95,204.41c-0.8-0.56-0.89,0.67-0.94,1.2c0.5,0.95,1.8-0.56,1.83-1.2
					C171.58,204.2,171.27,204.5,170.95,204.41z"/>
				<path class="st5" d="M169.95,157.14c-0.51-1.19,0-3.24-1.61-3.57c-0.33,0.46,0.18,0.86,0.28,1.24c0.14,0.81-0.16,1.3-0.72,1.46
					c-0.32,1.36-1.44,0.23-2.08,1.43c-0.5,0.48-0.72,0.91-0.08,1.47c0.76,1.29,0.56,0.14,0.86-0.47c0.75,0.14,0.67-0.97,1.53-0.43
					C168.62,157.28,169.32,157.76,169.95,157.14z"/>
				<path class="st5" d="M167.59,152.74c0.03,0.15,0.11,0.3,0.22,0.42c0.11,0.12,0.24,0.2,0.39,0.25c0.08-0.29-0.06-0.53,0.2-0.6
					c0.56,0.09,0.71,0.43,1.08-0.24c0.67-0.27,0.08-0.76-0.44-0.73c-0.62-0.12-1.13-0.74-1.42-0.67c-0.05,0.38,0.36,0.63,0.22,1.03
					C167.79,152.44,167.58,152.55,167.59,152.74z"/>
				<path class="st5" d="M168.34,186.24c0.04,0.18,0.45,0.21,0.42-0.07C168.73,185.89,168.35,186.02,168.34,186.24z"/>
				<path class="st5" d="M167.28,150.48c0.47-0.37-0.2-0.76-0.47-0.94c-0.03,0.19-0.01,0.38,0.08,0.55
					C166.98,150.25,167.12,150.39,167.28,150.48L167.28,150.48z"/>
				<path class="st5" d="M165.95,184.87c0.27-0.19,0.68-0.19,0.81-0.6c-0.53-0.25-1.69,0.56-1.75,1.03
					c0.05,0.03,0.09,0.07,0.11,0.13C165.47,185.4,165.69,185.07,165.95,184.87z"/>
				<path class="st5" d="M165.65,178.47c-0.23-0.15-0.53-0.03-0.86-0.03c-0.56-0.12-1.24-0.29-1.33,0.47
					C164.13,178.53,165.58,179.37,165.65,178.47z"/>
				<path class="st5" d="M164.93,182.44c0.12-0.11,0.07-0.45,0.08-0.7c-0.26-0.38-0.35-0.98-0.56-1.4c0.15-0.36,0.67-0.41,0.64-0.87
					c-0.47-0.11-0.86,0.38-1.19,0.3c-0.56-0.74-0.69-0.25-0.77,0.5c-0.37,0.56-0.22,0.71,0.08,1.27c0.06,0.36-0.23,0.83,0.06,0.93
					c0.56,0.2,0.19-1.43,0.61-1.53C164.07,181.36,164.37,182.57,164.93,182.44z"/>
				<path class="st5" d="M164.04,184.44c-0.05-0.28-0.63-0.36-0.72-0.1C163.37,184.57,163.94,184.69,164.04,184.44z"/>
				<path class="st5" d="M162.9,184.97c0.07,0.25,0.29,0.32,0.5,0.4c0.04-0.04,0.08-0.08,0.11-0.13
					C163.51,184.92,163.06,184.7,162.9,184.97z"/>
				<path class="st5" d="M161.87,184.24c-0.2,0-0.47-0.15-0.56,0.1c0.06,0.29,0.35,0.29,0.64,0.3c0.18-0.25,0.67,0,0.81-0.23
					C162.68,183.92,162.21,184.2,161.87,184.24z"/>
				<path class="st5" d="M178.19,194.77c-0.18-0.54-0.82-1.13-0.83-1.76c-0.19-0.17-0.33-0.39-0.43-0.62
					c-0.1-0.24-0.14-0.49-0.13-0.74c-1.4-0.98-0.79-1.29-1.25-2.73c0.18-0.64-0.09-0.93-0.61-1.13c0.08-0.67-0.05-1.35-0.39-1.93
					c-1.05,0.51-0.56,5.48-2.3,3.67c-0.46-0.32-2.26-1.34-0.97-1.8c0.03-0.75,0.82-1.52-0.53-1.13c-0.49,0-1.03-0.56-1.36-0.56
					c0.05,1.36-0.82-0.18-1.44,1.54c-0.62,1.71-0.97-0.37-1.89,0.23c-0.88,0.36-0.88,1.69-1.94,1.6c-0.42,0.77-0.73,2.1-1.99,2.03
					c-0.5,0.16-0.77,0.47-1.25,0.4c-0.6,0.33-1.16,0.7-1.69,1.13c-0.1,0.44-0.23,0.88-0.39,1.3c0.16,0.63,0.19,0.68-0.19,1.16
					c0.06,0.59,0.15,1.18,0.28,1.77c-0.11,0.47-0.11,0.96,0,1.43c0.07,0.92-1.4,1.51-0.22,2.13c0.9,0.16,1.24-0.42,1.83-0.63
					c0.59-0.2,1.17,0,1.75-0.07c0.49-0.49,1.28-1.13,2.06-1c0.9-0.27,2.08-0.87,3.02-0.03c1.13,1.38-0.42,2.14,1.69,0.83
					c-0.09,0.14-0.12,0.3-0.11,0.47c0.08,0.09,0.14,0.19,0.17,0.31c0.03,0.12,0.02,0.24-0.03,0.35c0.41,0.39,0.26,0.7,0.16,1.2
					c0.07,0.63,0.88,0.59,1.28,0.84c0.79-0.27,0.68-0.21,1.33,0.13c0.35-0.16,1.07-0.81,1.69-0.7c0.49-0.06,0.63-0.7,0.92-1.1
					C176.12,199.43,178.15,197.51,178.19,194.77z"/>
				<path class="st5" d="M159.96,184.3c0.31,0.06,0.67,0.28,0.92,0c-0.17-0.4-0.7-0.36-1.03-0.56c0-0.18,0.06-0.26-0.03-0.37
					c-0.56,0-0.94-0.43-1.44-0.06c-0.64,0.11-0.97-0.42-1.47-0.5c-1.58-0.12-0.34,1.02,0.39,1.1
					C158.2,183.78,159.04,184.37,159.96,184.3z"/>
				<path class="st5" d="M162.32,175.27c-0.56-1.6-0.85,0.07-1.33,0.6c-0.63,0.17-0.76,0.97-1.27,1.3
					c-0.18,0.08-0.41,0.03-0.53,0.13c-0.22,0.18-0.18,0.59-0.44,0.67c-0.94-0.46-1.04,0.72-0.75,1.46c0.43,0.49,0.38,0.96,0.64,1.43
					c0.41,0.04,0.93,0.42,1.36,0.2c0.69,0.2,0.77,0.64,1.47,0.27c0.32-0.63,0.08-1.37,0.77-1.87c-0.11-0.88,0.21-0.66,0.56-1.13
					c-0.71-0.98-0.51-1.69,0.05-2.56C162.73,175.53,162.46,175.48,162.32,175.27z"/>
				<path class="st5" d="M157.34,180.23c-0.71,0-0.71,1.32,0,1.32C158.04,181.54,158.04,180.23,157.34,180.23z"/>
				<path class="st5" d="M156.3,181.25c0.09-0.31,0.38-0.3,0.39-0.56c-0.06-0.25-0.2-0.49-0.39-0.67c-0.53,0.32-0.45,0.36-0.77-0.27
					c-0.14-0.09-0.24-0.21-0.29-0.36c-0.05-0.15-0.06-0.31-0.01-0.47c-0.2-0.74-1.13-1.03-1.64-1.4c-0.47-0.5-1.17-1.25-1.61-1.73
					c-0.12-0.05-0.33,0-0.5-0.03c-0.27-0.06-0.41-0.33-0.56-0.14c0.24,1.02,1.2,1.54,1.69,2.37c0.63,1.72,1.63,3.29,2.94,4.57
					C156.51,182.76,156.15,181.99,156.3,181.25z"/>
				<path class="st5" d="M143.21,173.07c-0.33,0.51-0.34,2.17,0.19,2.26C144.77,175.33,143.58,173.19,143.21,173.07z"/>
				<path class="st5" d="M127.42,186.77c-0.15,0.31-0.21,0.56-0.53,0.73c-0.18,0.91-1,1.24-1.77,1.56
					c-0.56,0.56-0.27,1.45-0.23,2.14c0,0.56-0.56,0.89-0.64,1.56c0.1,1.06,0.19,2.68,1.67,1.84c1.03-1.73,1.23-4.3,2.14-6.13
					C127.95,188.03,127.92,186.52,127.42,186.77z"/>
				<path class="st5" d="M151.31,168.67c0.88,1.54,1.22,3.33,0.97,5.08c0.24,0.56,1.07,1.03,1.17,1.73c0.02,0.6,0.21,1.19,0.55,1.69
					c0.34,0.5,0.81,0.89,1.37,1.13c0.28-0.43-0.19-0.74-0.28-1.17c-0.01-0.38-0.03-0.75-0.08-1.13c-0.33-0.59-0.82-1.08-1.42-1.4
					c-0.23-0.57-0.5-1.13-0.8-1.67c-0.1-0.56,0.19-0.9,0.25-1.37c0-0.93,0.23-0.92,0.64-0.33c0.6,0.19,0.84,0.62,1.16,1.13
					c0.25,0.24,0.64,0.36,0.72,0.6c0.08,0.24-0.06,0.56,0.14,0.64c0.5-0.06,0.65-0.72,0.94-0.94c0.39-0.28,0.89-0.39,1.08-0.9
					c0.26-2.82-1.69-2.72-2.26-4.67c0.11-0.98,1.88-2.19,1.94-0.6c-0.31,0.35-0.79,1.22,0.08,1.27c0.68-0.23,0.48-1.03,0.19-1.56
					c1.62-1.62,4-0.69,4.33-4.24c0.4-0.21,0.19-0.76,0.25-1.33c-0.27-0.37-0.56-0.23-0.38-0.83c-0.2-0.63-0.98-1.46-1.33-1.97
					c-1.17-0.53,0-1.25,0.36-1.8c-0.18-0.17-0.42-0.26-0.67-0.27c-0.25-0.01-0.49,0.08-0.69,0.24c-0.24,0-0.27-0.37-0.53-0.5
					c-0.26-0.12-0.64-0.07-0.61-0.43c0-0.2,0.29-0.23,0.44-0.37c0.15-0.14,0.48-0.92,0.86-0.86c0.5,0.06,0,0.77,0.41,1.06
					c0.46-0.41,1.37-0.75,1.69,0c0.08,0.27,0,0.56,0.25,0.7c0.34,0.21,0.64,0,0.8,0.37c0.08,0.34,0.21,0.67,0.39,0.97
					c0.07,0.33-0.03,0.68,0.28,0.8c0.31,0.12,1.13-0.34,1.13-0.67c-0.05-1.13-1.33-1.69-1.83-2.47c0.18-0.56,0.68-0.67,0.41-1.43
					c0.56-1.53,1.21,0.31,1.89-1.17c0.22-1.23,0.79-2.76-0.03-3.86c-0.08-0.14-0.63-0.77-0.28-0.94c0.94,0.25,1.07,1.77,1.83,2.17
					c0.04-0.29,0.11-0.59,0.2-0.87c0-0.17-0.41-0.53-0.53-0.67c-0.75-0.49-1.13-1.5-1.8-1.83c-0.49,0.81-0.98-0.27-1.64-0.3
					c-0.73,0.62-1.06-0.4-1.75-0.23c-0.46-0.15,0.06-0.72,0.11-0.87c0.04-0.51,0.34-0.84,0.36-1.37c0.29-0.92,1.59-0.21,2.46-0.4
					c0.56-0.49,0.99,0.03,1.61,0.2c0.16,0,0.89-0.04,0.92-0.23c-0.42-0.56-0.46-1.13,0.11-1.43c0.83-0.25,0.89,0.62,1.41,0.56
					c0.52-0.06,0.31-0.66,0.45-0.93c1.04,0.5,0.25,1.33,0.36,2.2c-1.13,1.86,1.93,3.2,2.82,4.4c0.52-0.29-0.05-0.93,0.19-1.37
					c-0.33-0.56-0.05-0.4,0.11-0.83c-0.21-0.34-0.56-0.38-0.36-0.97c-0.29-0.23-0.56-0.6-0.83-0.84c-0.66,0.03-0.62-0.45-0.72-1
					c0.19-0.43,0.56-0.16,0.89-0.23c0.38-0.5,1-0.1,1.39-0.07c0.37-0.33,0.7-1.26,1.38-1.33c0.16,0,0.38,0.15,0.56-0.03
					c-0.1-0.56-1.32-0.52-1.36-1.1c0.53-1.41,2.21,0.41,3.16,0.03c0.1-1.08-1.28-1.52-2.16-1.3c-0.88-0.41-2.09-0.56-2.94-1
					c-0.5-0.07-0.9-0.32-1.44-0.1c-0.79,0.19-1.45-0.28-2.06-0.53c-0.32,0.14-0.77-0.08-1.03,0.07c0.14,1.05-0.73,0.05-1.13,0.03
					c-0.77,0.29-1.81,0.09-2.66,0.13c-0.41-0.32-0.88-0.55-1.38-0.67c-0.5-0.13-1.02-0.15-1.53-0.06c-1.01,0.12-2.03-0.14-2.86-0.73
					c-1.05,0.06-2.13-0.08-3.24-0.03c-0.35,1.16-2.04-0.14-2.61,0.83c-0.76,0-1.17-1.13-1.86-1.3c-0.51-0.1-1.24,0.04-1.8-0.1
					c-0.38,0.2-0.73,0.51-1.22,0.27c-0.64,0-1.13-0.37-1.86-0.27c-0.63,0.2-1.03-0.17-1.47-0.5c-0.37-1.13-1.73-0.81-2.69-0.9
					c-0.18-0.16-0.4-0.27-0.63-0.31c-0.24-0.04-0.48,0-0.7,0.1c-0.5,0-0.89-0.1-1.25,0.3c-0.46,0.3-0.85-0.03-1.33-0.07
					c-0.66,0.4-1.89,0.46-2.47,0.84c-0.11,0.16,0.14,0.28,0,0.43c-0.71,0.25-1.5-0.27-1.44,0.73c-0.65-0.36-0.75,0.18-1.16,0.4
					c-0.76-0.71-0.46-0.19-1,0.23c-0.23,0-0.18-0.38-0.33-0.63c-0.64-0.73-1.56-0.05-1.66,0.7c0.06,0.25,0.16,0.48,0.31,0.69
					c0.2,0.2,0.64,0.07,0.69,0.54c-0.96-0.18-2.04-0.68-3.11-0.6c-0.12,0.19,0.29,0.35,0.11,0.56c-0.11,0.12-0.37-0.12-0.53-0.14
					c-0.48,0.13-0.98,0.23-1.47,0.3c-0.4-0.24-0.56-0.34-0.97-0.06c-0.69,0-1.32,0.68-1.75,0.9c-0.43,0-0.48-0.3-0.33-0.7
					c-0.08-0.19-0.59-0.27-0.69-0.03c-0.19,0.34,0.18,0.56,0.14,0.9c-0.05,0.03-0.09,0.08-0.11,0.14c-0.5-0.26-0.92,0.09-1.25,0.33
					c0.06,0.99-0.79,0.11-1.16,0.4c-0.05,0.34,0.36,0.15,0.31,0.5c-0.17,0.01-0.34-0.01-0.49-0.07c-0.16-0.06-0.3-0.15-0.43-0.26
					c-0.12-0.12-0.22-0.26-0.29-0.41c-0.07-0.15-0.1-0.32-0.1-0.49c0.46-0.18,1.03,0.14,1.47,0.14c2.37-0.41-0.92-1.8-1.78-1.69
					c-0.44-0.19-0.91-0.3-1.38-0.3c-0.25-0.11-0.23-0.37-0.42-0.47c-0.56-0.19-1.36,0.03-1.94-0.1c-0.21,0.09-0.44,0.11-0.66,0.07
					c-0.43,0.29-0.93,0.45-1.45,0.47c-0.3,0.08-0.56,0.48-0.83,0.53s-0.56-0.13-0.64,0.1c0.3,0.71-0.41,0.83-0.78,1.33
					c-0.16,0.43-0.53,0.83-0.69,1.23c-0.45,0.18-0.95,0.05-1.25,0.5c-0.36,0.23-0.84,0.29-1.06,0.73c0.08,0.81-0.08,1.97,0.94,2.1
					c0.53,0,0.94-0.8,1.36-0.7c0.2,0.05,0.23,0.45,0.33,0.67c0.53,0.56,0.73,1.3-0.36,1.27c0-0.31,0.03-0.8-0.17-0.97
					c-1.28,0.32-0.73,1.03-0.64,1.9c-0.06,0.49-0.9,0.32-1.28,0.4c-0.44,0.21-0.68,1.21-1.3,1.4c-0.43,0.03-0.5,0.41-0.75,0.7
					c-0.14,0.14-0.32,0.24-0.52,0.28c-0.19,0.04-0.4,0.02-0.58-0.05c-0.17,0.07-0.15,0.46-0.33,0.56c-0.37,0.16-0.98-0.39-1.13,0.27
					c1.08,0.79,1.69,0.93,1.33,2.56c-0.65,1.13-3.01-0.53-3.6,0.67c0.13,0.82,0.03,1.67-0.31,2.43c0.14,0.31,0.21,0.66,0.19,1
					c0.14,0.33,0.53,0.05,0.78,0.1c0.64,0.21,0.6,1.13,0.22,1.63c-0.82,0.8-1.9,1.29-1.72,2.7c-0.15,0.35-0.38,0.65-0.66,0.91
					c-0.28,0.25-0.61,0.44-0.97,0.56c-0.3,0.61-0.95,1.07-1.03,1.8c-0.52,0.68-0.92,1.44-1.16,2.26c0.03,0.33,0.34,0.38,0.36,0.67
					c-0.1,0.35-0.07,0.73,0.08,1.07c-0.07,0.79-0.29,1.55-0.64,2.26c0.16,0.4,0.21,0.84,0.14,1.27c0.28,0.79,1.39,1.38,1.69,2.13
					c0.05,1.06,0.88,1.42,1.58,2.07c1.41,1.87,2.26-0.16,4.13,0.67c1.52-0.61,3.17-2.02,4.08,0.3c2.73-0.68,1.81,1.76,1.47,3.3
					c0.06,0.62,0.61,1.13,1.03,1.64c0.95,1.3,1.02,3.08,1.38,4.56c0.07,1.08-0.92,1.47-0.77,2.5c-0.81,1.59,0.5,3.08,1.06,4.56
					c-0.12,2.2,1.08,4.07,1.86,6c-0.32,0.59,0.07,1.57,0.69,1.6c1.2-0.62,2.86-0.05,3.91-1.07c1.05-1.02,2.26-2.43,2.63-3.86
					c-0.33-1.69,2.08-0.46,1.25-3.33c-0.56-0.97,0.71-1.54,1.19-2.3c2.17-0.72,1.65-2.5,1.67-4.37c-0.75-0.75-0.28-1.98-0.75-2.82
					c0.4-1.86,1.66-3.31,2.89-4.7c1.59-1.07,3.45-4.41,3.08-6.3c-0.26-0.1-0.49,0.25-0.83,0.3c-0.49-0.02-0.99,0.09-1.42,0.33
					c-0.97,0.12-1.08,0.44-1.66-0.6c0.19-0.4,0.14-0.62-0.28-0.87c-0.4-0.76-1.3-1.13-1.75-1.83c0-0.82-0.65-1.41-1.05-2.03
					c0.02-0.44-0.06-0.88-0.21-1.29c-0.16-0.41-0.4-0.79-0.7-1.11c-0.11-1.01-0.86-1.69-1.08-2.7c0.11-0.18,0.36-0.19,0.56-0.23
					c0.8,1.01,1.49,2.11,2.06,3.26c-0.13,0.92,0.68,1.44,1.13,2.1c0.11,0.68,1.07,1.13,0.53,1.69c0.62,0.64,0.68,1.5,0.92,2.37
					c0.43,0.31,0.82-0.22,1.25-0.37c0.45,0,0.79-0.35,1.23-0.37c0.68-0.72,1.73-0.56,2.08-1.56c0.97-0.29,1.82-0.88,2.41-1.69
					c-0.03-0.63,0.82-1.2,0.86-1.87c-0.15-0.35-0.39-0.66-0.69-0.9c-0.51-0.09-0.8-0.12-1-0.67c-0.11-0.26,0-0.46-0.31-0.7
					c-0.52,0.54-0.85,1.29-2,1.07c-0.36-0.24,0.07-1.32-0.72-1.03c-0.19-0.88-2.4-2.19-0.75-2.67c0.64,0,0.71,1.03,1.13,1.37
					c0.56,0.31,1.13,1.04,1.91,0.83c1.17-0.79,0.56,0.82,2.05,0.77c1.1,0.16,2.21,0.16,3.3,0c0.37,0.05,0.56,0.56,0.77,0.8
					c0.37,0.39,0.86,0.56,1.06,0.9c-0.23,0.56,0.56,1.16,0.86,1.16s0.43-0.32,0.69-0.4c0.49,1.13,0.38,2.99,1.25,4.16
					c0.17,0.75,0.47,1.46,0.89,2.1c0.26,0.66,0.66,2.72,1.33,1.5c1.01-1.04,0.9-2.58,0.72-3.95c0.2-0.47,0.64-0.5,0.94-0.83
					c0.16-0.36,0.41-0.67,0.72-0.9c0.39-0.76,0.9-0.94,1.36-1.53c-0.07-0.8,0.38-0.62,0.94-0.67c0.45-0.06,0.87-0.22,1.25-0.47
					c0.27,0.21,0.32,0.94,0.69,1.24c0.57,0.46,0.98,1.09,1.17,1.8c-0.1,0.41-0.17,1.01,0.39,1.03
					C150.78,169.3,151.03,168.63,151.31,168.67z M108.59,145.34c0.27-0.06,0.2-0.33,0.39-0.37c0.45,0.23,0.64-0.05,0.97-0.37
					c0.8-0.16,0.71-0.48,0.63-1.13c0.1-0.48,0.84-0.41,0.81-0.97c0-0.33-0.6-0.42-0.67-0.73c-0.19-1.02,0.99-1.17,1.42-1.73
					c0.01-0.15,0.06-0.3,0.14-0.43c0.09-0.13,0.21-0.23,0.35-0.29c0.14-0.06,0.3-0.08,0.45-0.06c0.15,0.02,0.3,0.09,0.41,0.19
					c-0.45,1.33-1.66,0.53-1.13,2.46c0.56,1.46,2.15-0.36,2.99,0.43c-0.25,0.67-1.17,0.12-1.83,0.4c-0.13,0.06-0.21,0.21-0.33,0.27
					c-0.12,0.06-0.44,0-0.44,0.3c0.16,0.41,0.73-0.59,0.92,0.43c-0.11,0.88-1.42-1.17-1.25,1.33c-0.38,0.39-0.67,0.69-1.22,0.33
					c-0.5-0.06-0.97,0.48-1.45,0.46c-0.33-0.15-0.79-0.44-1.22-0.13C107.77,145.75,107.85,145.1,108.59,145.34z M118.05,183.51
					c-0.39-0.05-0.68-0.95-0.47-1.5h0.08c0.23,0.17,0.11,0.53,0.16,0.84S118.16,183.26,118.05,183.51z M120.13,185.94
					c0.29,0.16,0.13,0.85,0,1.1c-0.31-0.15-0.18-0.82-0.06-1.1H120.13z M120.02,179.31c-0.06,0.64-0.62,1.86-1.25,1
					c0.1-0.32,0-0.56,0.06-0.87C118.94,178.99,119.94,178.66,120.02,179.31L120.02,179.31z M119.85,158.51
					c-0.12,1.69-0.75,1.29-1.91,1c-0.84,0.63-1.3,0.28-2.26-0.07c-0.5,0.06-0.82-0.42-1.33-0.37c-0.27-0.56-1.66-0.62-1.77,0.23
					c-0.05,0.38,0.16,0.9-0.31,0.97c-0.39-0.04-0.99-0.6-1.53-0.53c-0.46-0.56-0.85-1.22-1.75-1c-2.22-0.94-0.28-0.83-0.92-1.97
					c0.21-0.74-0.51-0.9-1.02-0.56c-0.48-0.15-1-0.14-1.47,0.03c-0.61-0.08-1.22-0.02-1.81,0.15c-0.58,0.18-1.12,0.48-1.58,0.88
					c-0.37-0.07-1.6,0.23-1.69-0.43c0-0.62,0.88-0.4,1.36-0.5c0.24-0.1,0.51-0.47,0.83-0.56c0.71-0.46,0.13-1.08,0.69-1.57
					c0.22-0.31,0.48-0.59,0.77-0.83c0.51-0.13,0.63-0.36,0.53-0.84c0.46-0.74,1.13,0.43,1.69-0.3c0.28-0.21,0.58-0.4,0.89-0.56
					c0.76,0.18,0.92,1.43,1.72,1.77c0.81,0.24,1.94,1.1,1.47,2.03c0.6,0,0.62-0.73,0.44-1.17c0.13-0.33,0.5,0,0.67-0.13
					c-0.14-0.49-0.85-0.56-1.13-1.01c-0.56-0.08-0.76-0.41-1-0.93c-0.28-0.18-1.08-1.08-0.25-1.33c0.26,0.2,0.33,0.5,0.72,0.56
					c0.34,0.94,1.78,1.07,2.21,1.9c-0.18,0.92,0.51,1.4,0.94,2.16c-0.11,0.86,0.8,1.27,0.97,0.37c1.22-0.61-0.3-0.7-0.25-1.53
					c0.03-0.2,0.21-0.1,0.36-0.1c1.39-1.65,1.13,1.87,2.05,2.2c0.74-0.11,0.77,0.59,1.47-0.17c0.34-0.06,0.56,0.38,0.89,0.43
					c0.52,0.08,0.9-0.64,1.41-0.27C120.15,157.37,120.24,157.69,119.85,158.51L119.85,158.51z M121.93,153.68
					c-1.5,0.5-2.97-1.43-4.33-0.07c-1.48-0.27-0.91,0.92-1.64,0.33c-0.03-0.31,0.32-0.18,0.33-0.43c0.02-0.25-0.28-0.38-0.31-0.67
					c-0.03-0.29,0.24-0.46,0.33-0.84c-0.01-0.13,0.01-0.27,0.07-0.39c0.05-0.12,0.13-0.23,0.24-0.31c0.37-0.89,0.59-1.08,1.42-0.63
					c0.31,0.93,0.71,1.07,1.5,0.5c-0.92-0.66,0.07-1.13,0.83-1c0.22,0.56-0.34,0.66-0.33,0.97
					C120.41,151.91,123.53,152.67,121.93,153.68L121.93,153.68z M128.45,156.08c-0.61,0.73-1.96,0-2.36-0.63
					c-0.02-0.44,0.08-0.87,0.28-1.27c-0.26-0.76-1.39-1.18-1.39-2.07c-1.5-1.22,2.75-3.14,2.14-1.07c-1.56,0.04-0.56,1.38,0.23,1.73
					c0.03,0.21,0.05,0.43,0.16,0.53c0.71-0.31,1.29,0.81,0.28,0.6c-0.05,0,0,0.11-0.08,0.1
					C127.84,154.83,128.59,154.92,128.45,156.08L128.45,156.08z M130.5,151.78c-0.31,0.07-0.77-0.73-0.33-0.87
					C130.51,150.8,130.95,151.67,130.5,151.78L130.5,151.78z M131.07,138.79c0.56-1.47-0.44-0.97-0.64-2.2c0.03,0,0-0.06,0.03-0.1
					c0.41-0.09,0.38,0.34,0.56,0.67c0.18,0.32,0.48,0.32,0.56,0.43c0.46,0.49,0.15,1.37-0.5,1.19L131.07,138.79z M136.67,150.72
					c-0.13-0.23,0.17-0.56,0.28-0.3c0,0.17-0.07,0.33-0.25,0.29L136.67,150.72z M141.91,135.25c0-0.29,0.56-0.53,0.86-0.56
					c-0.04,0.37-0.57,0.51-0.84,0.55L141.91,135.25z M150.06,146.23c-0.07,0.29-0.4,0.43-0.61,0.67c-0.13,0.15-0.21,0.41-0.38,0.27
					c0-0.25,0.2-0.32,0.31-0.46c0-0.34,0.27-0.56,0.31-0.9c0-0.24-0.21-0.64,0.11-0.7c0.13,0.15,0.22,0.34,0.27,0.53
					C150.1,145.83,150.1,146.03,150.06,146.23z"/>
				<path class="st5" d="M122.35,137.54c0.1-0.33-0.47-0.39-0.39-0.03C122.02,137.64,122.26,137.64,122.35,137.54z"/>
				<path class="st5" d="M118.55,157.44c0.11,0.32,0.6,0.14,0.64-0.14C119.08,157.06,118.58,157.16,118.55,157.44z"/>
				<path class="st5" d="M109.04,155.64c0.12,0.18,0.28,0.33,0.46,0.44c0.19,0.11,0.4,0.17,0.61,0.19c0.16-0.15,0.18-0.47,0.25-0.73
					C109.97,155.55,109.32,155.36,109.04,155.64z"/>
				<path class="st5" d="M107.01,153.87c0.03,0.31,0.02,0.63-0.03,0.94C107.85,155.67,107.91,152.73,107.01,153.87z"/>
				<path class="st5" d="M107.37,153.31c0.08-0.05,0.14-0.13,0.17-0.22c0.03-0.09,0.04-0.19,0.02-0.28
					C107.29,152.44,107,153.23,107.37,153.31z"/>
				<path class="st5" d="M101.6,145.41c0.72,0.13,0.78,0.76,0.08,1.03c0.03,0.38-0.23,0.44-0.31,0.7c0.56,0.5,0.05,0.34,0,0.8
					c0.3,0.28,0.6-0.06,0.89-0.1c0.62-0.09,1.26,0.1,1.64-0.27c-0.05-0.36,0.31-0.48,0.28-0.8c-0.03-0.32-0.36-0.27-0.5-0.43
					c-0.15-0.61-0.99-1.25-1.13-1.84c0.81-1.32-0.66-0.28-0.08-1.43c-0.02-0.02-0.04-0.03-0.07-0.03c-0.02-0.01-0.05-0.01-0.07,0
					c-0.88,0.38-1.45,0.54-1.25,1.73C101.23,144.86,101.33,145.23,101.6,145.41z"/>
				<path class="st5" d="M100.32,147.01c0.6-0.03,0.5-0.44,0.56-0.93c0.61-0.62,0-1.23-0.78-0.84c-0.21,0.16-0.28,0.4-0.44,0.47
					c-0.16,0.07-0.38,0-0.42,0.27c0.25,0.63,0,0.56-0.22,1.1C99.3,147.62,99.98,147.13,100.32,147.01z"/>
				<path class="st5" d="M72.83,190.54c0.81,2.73-0.14,5.94,0.8,8.63c0.09,1.02,0.02,2.04-0.22,3.03c0,0.45,0.44,0.82,0.5,1.27
					c0.03,0.72,0.03,1.8,0.47,2.33c0.34-0.12-0.07-0.56,0.14-0.8c0.4,0.14,0.27,0.92,0.39,1.4c-0.63,0-0.49,0.18-0.31,0.63
					c-0.2,0.87-0.14,0.7,0.45,1.16c-0.1,0.31-0.12,0.65-0.05,0.97c0.07,0.32,0.22,0.62,0.44,0.86c0.45,0.41,0.44,1.01,1.05,1.23
					c0.78,0.98,3.32,2.72,4.3,1.43c-0.16-0.47-0.75-0.41-1.13-0.67c-0.55-0.48-0.98-1.07-1.28-1.73c0.13-0.39,0.34-0.56,0.28-1
					c0.11-0.4,0.43-0.4,0.42-0.8c0-0.66-1.08-0.38-1.13-1.07c0-0.45,0.56-0.43,0.61-0.86c0.03-0.2-0.05-0.28-0.05-0.6
					c-0.01-0.32,0.36-0.37,0.41-0.7c-0.36-0.28-0.86-0.08-0.77-0.84c1.42,0.18,0.95,0,1.08-1.16c0.36-0.27,1.29-0.15,1.64-0.47
					c0.93-0.73,0-1.67-0.45-2.4c1.1,0.18,1.84,0.63,2.36-0.9c0.21-0.66,0.3-1.34,0.83-1.8c0.68-0.87,0.64-1.76,0.56-2.73
					c0.43-1.08,1.8-1.59,2.82-1.73c1.09-1.02,1.25-2.92,1.42-4.37c-0.12-0.37-0.15-0.76-0.08-1.14c0.07-0.38,0.24-0.73,0.49-1.03
					c0.6-1.38,2.3-2.87,0.97-4.52c-1.23,0.17-1.66-1.78-2.82-1.37c-0.49-0.17-1.01-0.26-1.53-0.27c-0.17-0.1-0.19-0.49-0.33-0.6
					c-0.51-0.19-1.06-0.59-1.63-0.47c-0.35-0.23-0.67-0.51-0.94-0.84c0.18-0.72-0.32-0.92-0.45-1.33c-0.04-0.31-0.14-0.61-0.3-0.88
					c-0.16-0.27-0.38-0.5-0.63-0.68c-0.26-0.18-0.55-0.31-0.85-0.37c-0.31-0.06-0.62-0.06-0.93,0c-0.67,0-1.13-1.09-1.53-1.46
					c-0.36-0.21-0.64-0.16-0.69-0.64c-0.1-0.24-0.26-0.37-0.14-0.67c-0.22-0.14-0.23,0.25-0.47,0.2c-0.04-0.11-0.11-0.2-0.19-0.28
					l-7.46,13.5c0.29,0.58,0.53,1.17,0.74,1.78C70.27,189.16,72.17,189.28,72.83,190.54z"/>
			</g>
		</g>
		<circle class="st6" cx="121.37" cy="144.2" r="6.56"/>
		<circle class="st6" cx="102.61" cy="166.97" r="4.5"/>
		<circle class="st6" cx="165.08" cy="192.85" r="3.33"/>
		<circle class="st6" cx="155.66" cy="155.25" r="2.32"/>
		<circle class="st7" cx="121.37" cy="144.2" r="3.23"/>
	</g>
</g>
<g>
	<circle class="st1" cx="124.46" cy="456.68" r="88.57"/>
	<g>
		<circle class="st2" cx="124.46" cy="456.68" r="88.57"/>
		<path class="st1" d="M124.46,380.35c20.39,0,39.56,7.94,53.97,22.36c14.42,14.42,22.36,33.58,22.36,53.97
			c0,20.39-7.94,39.56-22.36,53.97c-14.42,14.42-33.58,22.36-53.97,22.36s-39.56-7.94-53.97-22.36
			c-14.42-14.42-22.36-33.58-22.36-53.97c0-20.39,7.94-39.56,22.36-53.97C84.91,388.29,104.07,380.35,124.46,380.35 M124.46,368.11
			c-48.92,0-88.57,39.65-88.57,88.57s39.66,88.57,88.57,88.57s88.57-39.65,88.57-88.57S173.38,368.11,124.46,368.11L124.46,368.11z"
			/>
	</g>
	<path class="st3" d="M124.46,546.22c-49.37,0-89.54-40.17-89.54-89.54s40.17-89.54,89.54-89.54c49.37,0,89.54,40.17,89.54,89.54
		S173.83,546.22,124.46,546.22z M124.46,369.07c-48.31,0-87.61,39.3-87.61,87.61s39.3,87.61,87.61,87.61
		c48.31,0,87.61-39.3,87.61-87.61S172.77,369.07,124.46,369.07z"/>
	<g>
		<g>
			<g>
				<rect x="76.13" y="431.03" class="st2" width="94.52" height="65.41"/>
				<path class="st8" d="M170.65,496.76H76.13c-0.18,0-0.32-0.14-0.32-0.32v-65.41c0-0.18,0.14-0.32,0.32-0.32h94.52
					c0.18,0,0.32,0.14,0.32,0.32v65.41C170.97,496.61,170.83,496.76,170.65,496.76z M76.45,496.11h93.88v-64.76H76.45V496.11z"/>
			</g>
			<g>
				<line class="st2" x1="76.13" y1="483.35" x2="170.65" y2="483.35"/>
				<path class="st8" d="M170.65,483.68H76.13c-0.18,0-0.32-0.14-0.32-0.32s0.14-0.32,0.32-0.32h94.52c0.18,0,0.32,0.14,0.32,0.32
					S170.83,483.68,170.65,483.68z"/>
			</g>
			<g>
				<line class="st2" x1="76.13" y1="470.27" x2="170.65" y2="470.27"/>
				<path class="st8" d="M170.65,470.59H76.13c-0.18,0-0.32-0.14-0.32-0.32s0.14-0.32,0.32-0.32h94.52c0.18,0,0.32,0.14,0.32,0.32
					S170.83,470.59,170.65,470.59z"/>
			</g>
			<g>
				<line class="st2" x1="76.13" y1="457.19" x2="170.65" y2="457.19"/>
				<path class="st8" d="M170.65,457.51H76.13c-0.18,0-0.32-0.14-0.32-0.32c0-0.18,0.14-0.32,0.32-0.32h94.52
					c0.18,0,0.32,0.14,0.32,0.32C170.97,457.37,170.83,457.51,170.65,457.51z"/>
			</g>
			<g>
				<line class="st2" x1="76.13" y1="444.11" x2="170.65" y2="444.11"/>
				<path class="st8" d="M170.65,444.43H76.13c-0.18,0-0.32-0.14-0.32-0.32s0.14-0.32,0.32-0.32h94.52c0.18,0,0.32,0.14,0.32,0.32
					S170.83,444.43,170.65,444.43z"/>
			</g>
			<g>
				<line class="st2" x1="76.13" y1="431.03" x2="170.65" y2="431.03"/>
				<path class="st8" d="M170.65,431.35H76.13c-0.18,0-0.32-0.14-0.32-0.32s0.14-0.32,0.32-0.32h94.52c0.18,0,0.32,0.14,0.32,0.32
					S170.83,431.35,170.65,431.35z"/>
			</g>
			<g>
				<line class="st2" x1="170.65" y1="496.43" x2="76.13" y2="496.43"/>
				<path class="st8" d="M170.65,496.76H76.13c-0.18,0-0.32-0.14-0.32-0.32s0.14-0.32,0.32-0.32h94.52c0.18,0,0.32,0.14,0.32,0.32
					S170.83,496.76,170.65,496.76z"/>
			</g>
			<g>
				<line class="st2" x1="86.63" y1="431.03" x2="86.63" y2="496.43"/>
				<path class="st8" d="M86.63,496.76c-0.18,0-0.32-0.14-0.32-0.32v-65.41c0-0.18,0.14-0.32,0.32-0.32c0.18,0,0.32,0.14,0.32,0.32
					v65.41C86.96,496.61,86.81,496.76,86.63,496.76z"/>
			</g>
			<g>
				<line class="st2" x1="97.14" y1="431.03" x2="97.14" y2="496.43"/>
				<path class="st8" d="M97.14,496.76c-0.18,0-0.32-0.14-0.32-0.32v-65.41c0-0.18,0.14-0.32,0.32-0.32s0.32,0.14,0.32,0.32v65.41
					C97.46,496.61,97.31,496.76,97.14,496.76z"/>
			</g>
			<g>
				<line class="st2" x1="107.64" y1="431.03" x2="107.64" y2="496.43"/>
				<path class="st8" d="M107.64,496.76c-0.18,0-0.32-0.14-0.32-0.32v-65.41c0-0.18,0.14-0.32,0.32-0.32s0.32,0.14,0.32,0.32v65.41
					C107.96,496.61,107.82,496.76,107.64,496.76z"/>
			</g>
			<g>
				<line class="st2" x1="118.14" y1="431.03" x2="118.14" y2="496.43"/>
				<path class="st8" d="M118.14,496.76c-0.18,0-0.32-0.14-0.32-0.32v-65.41c0-0.18,0.14-0.32,0.32-0.32c0.18,0,0.32,0.14,0.32,0.32
					v65.41C118.46,496.61,118.32,496.76,118.14,496.76z"/>
			</g>
			<g>
				<line class="st2" x1="128.64" y1="431.03" x2="128.64" y2="496.43"/>
				<path class="st8" d="M128.64,496.76c-0.18,0-0.32-0.14-0.32-0.32v-65.41c0-0.18,0.14-0.32,0.32-0.32s0.32,0.14,0.32,0.32v65.41
					C128.96,496.61,128.82,496.76,128.64,496.76z"/>
			</g>
			<g>
				<line class="st2" x1="139.14" y1="431.03" x2="139.14" y2="496.43"/>
				<path class="st8" d="M139.14,496.76c-0.18,0-0.32-0.14-0.32-0.32v-65.41c0-0.18,0.14-0.32,0.32-0.32s0.32,0.14,0.32,0.32v65.41
					C139.47,496.61,139.32,496.76,139.14,496.76z"/>
			</g>
			<g>
				<line class="st2" x1="149.65" y1="431.03" x2="149.65" y2="496.43"/>
				<path class="st8" d="M149.65,496.76c-0.18,0-0.32-0.14-0.32-0.32v-65.41c0-0.18,0.14-0.32,0.32-0.32s0.32,0.14,0.32,0.32v65.41
					C149.97,496.61,149.83,496.76,149.65,496.76z"/>
			</g>
			<g>
				<line class="st2" x1="160.15" y1="431.03" x2="160.15" y2="496.43"/>
				<path class="st8" d="M160.15,496.76c-0.18,0-0.32-0.14-0.32-0.32v-65.41c0-0.18,0.14-0.32,0.32-0.32s0.32,0.14,0.32,0.32v65.41
					C160.47,496.61,160.33,496.76,160.15,496.76z"/>
			</g>
			<g>
				<line class="st2" x1="170.65" y1="431.03" x2="170.65" y2="496.43"/>
				<path class="st8" d="M170.65,496.76c-0.18,0-0.32-0.14-0.32-0.32v-65.41c0-0.18,0.14-0.32,0.32-0.32c0.18,0,0.32,0.14,0.32,0.32
					v65.41C170.97,496.61,170.83,496.76,170.65,496.76z"/>
			</g>
		</g>
		<path class="st3" d="M76.13,497.08c-0.21,0-0.41-0.1-0.54-0.29c-0.2-0.3-0.12-0.7,0.18-0.89l10.5-7.04
			c0.05-0.03,0.1-0.06,0.16-0.08l10.37-3.36l10.4-9.36c0.08-0.07,0.18-0.12,0.28-0.15l10.41-2.44l10.42-6l10.51-5.86l10.54-5
			l10.44-4.25l10.42-8.74c0.27-0.23,0.68-0.19,0.91,0.08c0.23,0.27,0.19,0.68-0.08,0.91l-10.5,8.8c-0.05,0.04-0.11,0.08-0.17,0.1
			l-10.5,4.28l-10.47,4.97l-10.46,5.84l-10.49,6.04c-0.05,0.03-0.11,0.05-0.17,0.07l-10.34,2.42l-10.38,9.34
			c-0.07,0.06-0.15,0.11-0.23,0.13l-10.42,3.38l-10.43,6.99C76.38,497.04,76.26,497.08,76.13,497.08z"/>
		<path class="st6" d="M76.13,493.63c-0.18,0-0.35-0.07-0.48-0.22c-0.24-0.27-0.21-0.67,0.05-0.91l10.58-9.4l0.1-0.04l10.5-4.47
			l10.61-4.77l10.53-0.38l10.41-3.78l10.55-2.94l10.54-2.32l10.56-1.31l10.56-1.74c0.36-0.06,0.68,0.18,0.74,0.53
			c0.06,0.35-0.18,0.68-0.53,0.74l-10.59,1.74l-10.53,1.31l-10.44,2.3l-10.47,2.92l-10.65,3.84l-10.38,0.37l-10.39,4.67l-10.42,4.43
			l-10.42,9.26C76.44,493.58,76.28,493.63,76.13,493.63z"/>
		<circle class="st3" cx="86.63" cy="489.4" r="2.06"/>
		<circle class="st3" cx="97.14" cy="485.93" r="2.06"/>
		<circle class="st3" cx="107.64" cy="476.65" r="2.06"/>
		<circle class="st3" cx="128.64" cy="468.22" r="2.06"/>
		<circle class="st3" cx="139.14" cy="461.99" r="2.06"/>
		<circle class="st3" cx="149.65" cy="457.15" r="2.06"/>
		<circle class="st3" cx="160.15" cy="452.52" r="2.06"/>
		<circle class="st3" cx="170.73" cy="444.11" r="2.06"/>
		<circle class="st6" cx="86.63" cy="483.35" r="2.06"/>
		<circle class="st6" cx="97.14" cy="478.97" r="2.06"/>
		<circle class="st6" cx="107.64" cy="474.18" r="2.06"/>
		<circle class="st6" cx="118.14" cy="474.18" r="2.06"/>
		<circle class="st6" cx="128.64" cy="470.27" r="2.06"/>
		<circle class="st6" cx="139.14" cy="467.34" r="2.06"/>
		<circle class="st6" cx="149.65" cy="464.91" r="2.06"/>
		<circle class="st6" cx="160.15" cy="463.73" r="2.06"/>
		<circle class="st6" cx="170.73" cy="461.99" r="2.06"/>
	</g>
</g>
<g>
	<g>
		<path class="st3" d="M249.94,177.03c0-9.16,5.89-14.52,12.91-14.52c3.53,0,6.34,1.69,8.14,3.57l-2.93,3.53
			c-1.39-1.35-3-2.33-5.1-2.33c-4.2,0-7.36,3.6-7.36,9.57c0,6.04,2.85,9.68,7.24,9.68c2.37,0,4.24-1.13,5.74-2.74l2.93,3.45
			c-2.29,2.66-5.25,4.09-8.86,4.09C255.64,191.33,249.94,186.3,249.94,177.03z"/>
		<path class="st3" d="M272.71,185.1c0-4.5,3.64-6.87,12.08-7.77c-0.07-2.06-0.98-3.64-3.57-3.64c-1.95,0-3.83,0.86-5.78,1.99
			l-1.99-3.64c2.48-1.54,5.48-2.78,8.78-2.78c5.33,0,8.07,3.19,8.07,9.27v12.27h-4.5l-0.41-2.25h-0.11
			c-1.84,1.58-3.94,2.78-6.34,2.78C275.19,191.33,272.71,188.67,272.71,185.1z M284.79,184.95v-4.24c-5.1,0.68-6.83,2.06-6.83,3.94
			c0,1.65,1.16,2.36,2.78,2.36C282.32,187.02,283.48,186.27,284.79,184.95z"/>
		<path class="st3" d="M294.17,169.79h4.5l0.38,2.78h0.15c1.84-1.8,3.98-3.3,6.83-3.3c4.54,0,6.49,3.15,6.49,8.44v13.1H307v-12.42
			c0-3.23-0.9-4.39-2.96-4.39c-1.73,0-2.81,0.82-4.39,2.36v14.45h-5.48V169.79z"/>
		<path class="st3" d="M315.14,180.34c0-7.02,5.03-11.07,10.73-11.07c2.59,0,4.58,1.01,6.12,2.33l-2.63,3.57
			c-1.05-0.9-2.03-1.39-3.23-1.39c-3.19,0-5.37,2.59-5.37,6.57c0,3.94,2.18,6.49,5.22,6.49c1.5,0,2.93-0.71,4.09-1.69l2.18,3.64
			c-1.99,1.76-4.54,2.55-6.87,2.55C319.57,191.33,315.14,187.28,315.14,180.34z"/>
		<path class="st3" d="M332.02,180.34c0-6.83,4.77-11.07,9.79-11.07c5.78,0,8.78,4.24,8.78,10.06c0,1.01-0.11,2.03-0.26,2.51h-12.95
			c0.45,3.45,2.7,5.25,5.82,5.25c1.73,0,3.23-0.52,4.73-1.46l1.88,3.38c-2.06,1.43-4.73,2.33-7.36,2.33
			C336.6,191.33,332.02,187.24,332.02,180.34z M345.87,178.2c0-2.85-1.28-4.65-3.98-4.65c-2.21,0-4.16,1.58-4.58,4.65H345.87z"/>
		<path class="st3" d="M353.37,169.79h4.5l0.37,3.72h0.15c1.54-2.74,3.79-4.24,5.97-4.24c1.16,0,1.84,0.19,2.48,0.45l-0.98,4.77
			c-0.71-0.22-1.31-0.34-2.18-0.34c-1.65,0-3.64,1.09-4.84,4.13v12.53h-5.48V169.79z"/>
		<path class="st3" d="M374.88,187.28l3.19-3.83c1.99,1.84,4.62,3.08,7.05,3.08c2.89,0,4.43-1.24,4.43-3.19
			c0-2.06-1.69-2.7-4.17-3.75l-3.72-1.58c-2.81-1.16-5.63-3.41-5.63-7.47c0-4.54,3.98-8.03,9.61-8.03c3.23,0,6.45,1.28,8.71,3.57
			l-2.81,3.49c-1.76-1.46-3.6-2.29-5.89-2.29c-2.44,0-4.02,1.09-4.02,2.93c0,1.99,1.99,2.7,4.35,3.64l3.64,1.54
			c3.38,1.39,5.59,3.53,5.59,7.54c0,4.54-3.79,8.41-10.21,8.41C381.3,191.33,377.58,189.87,374.88,187.28z"/>
		<path class="st3" d="M397.69,182.93v-13.13h5.52v12.42c0,3.26,0.9,4.39,2.93,4.39c1.73,0,2.85-0.75,4.28-2.63v-14.19h5.52v21.02
			h-4.5l-0.41-3h-0.15c-1.8,2.14-3.83,3.53-6.72,3.53C399.64,191.33,397.69,188.18,397.69,182.93z"/>
		<path class="st3" d="M420.05,169.79h4.5l0.38,3.72h0.15c1.54-2.74,3.79-4.24,5.97-4.24c1.16,0,1.84,0.19,2.48,0.45l-0.98,4.77
			c-0.71-0.22-1.31-0.34-2.18-0.34c-1.65,0-3.64,1.09-4.84,4.13v12.53h-5.48V169.79z"/>
		<path class="st3" d="M432.73,169.79h5.55l3.08,10.47c0.53,2.06,1.12,4.24,1.69,6.38h0.19c0.53-2.14,1.13-4.32,1.69-6.38
			l3.08-10.47h5.29l-7.02,21.02h-6.38L432.73,169.79z"/>
		<path class="st3" d="M453.4,180.34c0-6.83,4.77-11.07,9.79-11.07c5.78,0,8.78,4.24,8.78,10.06c0,1.01-0.11,2.03-0.26,2.51h-12.95
			c0.45,3.45,2.7,5.25,5.82,5.25c1.73,0,3.23-0.52,4.73-1.46l1.88,3.38c-2.06,1.43-4.73,2.33-7.35,2.33
			C457.98,191.33,453.4,187.24,453.4,180.34z M467.25,178.2c0-2.85-1.28-4.65-3.98-4.65c-2.21,0-4.17,1.58-4.58,4.65H467.25z"/>
		<path class="st3" d="M474.23,163.41c0-1.8,1.39-3,3.3-3c1.87,0,3.26,1.2,3.26,3c0,1.73-1.39,3-3.26,3
			C475.61,166.41,474.23,165.14,474.23,163.41z M474.75,169.79h5.48v21.02h-5.48V169.79z"/>
		<path class="st3" d="M484.4,184.92v-24.06h5.48v24.32c0,1.24,0.6,1.65,1.12,1.65c0.23,0,0.38,0,0.75-0.07l0.68,4.09
			c-0.64,0.26-1.58,0.49-2.85,0.49C485.74,191.33,484.4,188.82,484.4,184.92z"/>
		<path class="st3" d="M494.45,184.92v-24.06h5.48v24.32c0,1.24,0.6,1.65,1.12,1.65c0.23,0,0.38,0,0.75-0.07l0.68,4.09
			c-0.64,0.26-1.58,0.49-2.85,0.49C495.8,191.33,494.45,188.82,494.45,184.92z"/>
		<path class="st3" d="M503.45,185.1c0-4.5,3.64-6.87,12.08-7.77c-0.08-2.06-0.98-3.64-3.57-3.64c-1.95,0-3.83,0.86-5.78,1.99
			l-1.99-3.64c2.48-1.54,5.48-2.78,8.78-2.78c5.33,0,8.07,3.19,8.07,9.27v12.27h-4.5l-0.41-2.25h-0.11
			c-1.84,1.58-3.94,2.78-6.34,2.78C505.93,191.33,503.45,188.67,503.45,185.1z M515.54,184.95v-4.24c-5.1,0.68-6.83,2.06-6.83,3.94
			c0,1.65,1.16,2.36,2.78,2.36C513.06,187.02,514.22,186.27,515.54,184.95z"/>
		<path class="st3" d="M524.91,169.79h4.5l0.38,2.78h0.15c1.84-1.8,3.98-3.3,6.83-3.3c4.54,0,6.49,3.15,6.49,8.44v13.1h-5.52v-12.42
			c0-3.23-0.9-4.39-2.96-4.39c-1.73,0-2.81,0.82-4.39,2.36v14.45h-5.48V169.79z"/>
		<path class="st3" d="M545.89,180.34c0-7.02,5.03-11.07,10.73-11.07c2.59,0,4.58,1.01,6.12,2.33l-2.63,3.57
			c-1.05-0.9-2.03-1.39-3.23-1.39c-3.19,0-5.37,2.59-5.37,6.57c0,3.94,2.18,6.49,5.22,6.49c1.5,0,2.93-0.71,4.09-1.69l2.18,3.64
			c-1.99,1.76-4.54,2.55-6.87,2.55C550.31,191.33,545.89,187.28,545.89,180.34z"/>
		<path class="st3" d="M562.77,180.34c0-6.83,4.77-11.07,9.79-11.07c5.78,0,8.78,4.24,8.78,10.06c0,1.01-0.11,2.03-0.26,2.51h-12.95
			c0.45,3.45,2.7,5.25,5.82,5.25c1.73,0,3.23-0.52,4.73-1.46l1.88,3.38c-2.06,1.43-4.73,2.33-7.36,2.33
			C567.35,191.33,562.77,187.24,562.77,180.34z M576.61,178.2c0-2.85-1.28-4.65-3.98-4.65c-2.21,0-4.16,1.58-4.58,4.65H576.61z"/>
	</g>
</g>
<g>
	<g>
		<path class="st3" d="M268.37,723.88h-9.58l-2.07,7.58h-5.99l9.46-29.52h6.94l9.5,29.52h-6.18L268.37,723.88z M267.09,719.29
			l-0.88-3.23c-0.92-3.07-1.72-6.46-2.59-9.66h-0.16c-0.76,3.23-1.64,6.58-2.51,9.66l-0.88,3.23H267.09z"/>
		<path class="st3" d="M276.26,735.41c0-1.88,1.16-3.47,3.19-4.63v-0.2c-1.16-0.76-2.03-1.92-2.03-3.75c0-1.67,1.16-3.23,2.47-4.19
			v-0.16c-1.52-1.12-2.95-3.23-2.95-5.83c0-5.27,4.27-8.1,9.02-8.1c1.24,0,2.43,0.24,3.35,0.56h8.06v4.31h-3.83
			c0.6,0.76,1.04,1.99,1.04,3.39c0,5.03-3.83,7.58-8.62,7.58c-0.88,0-1.92-0.2-2.87-0.52c-0.64,0.52-0.96,1.04-0.96,1.92
			c0,1.2,0.88,1.83,3.51,1.83h3.79c5.39,0,8.3,1.68,8.3,5.59c0,4.51-4.67,7.94-12.13,7.94
			C280.33,741.16,276.26,739.36,276.26,735.41z M292.14,734.22c0-1.6-1.32-2-3.71-2h-2.71c-1.36,0-2.31-0.12-3.11-0.32
			c-1,0.8-1.48,1.67-1.48,2.59c0,1.88,2.07,2.95,5.35,2.95C289.82,737.45,292.14,735.97,292.14,734.22z M289.43,716.66
			c0-2.63-1.48-4.11-3.47-4.11c-2,0-3.51,1.48-3.51,4.11c0,2.63,1.56,4.11,3.51,4.11S289.43,719.29,289.43,716.66z"/>
		<path class="st3" d="M299.11,702.34c0-1.92,1.48-3.19,3.51-3.19c1.99,0,3.47,1.28,3.47,3.19c0,1.83-1.48,3.19-3.47,3.19
			C300.59,705.53,299.11,704.17,299.11,702.34z M299.67,709.12h5.83v22.34h-5.83V709.12z"/>
		<path class="st3" d="M309.92,709.12h4.79l0.4,2.95h0.16c1.95-1.91,4.23-3.51,7.26-3.51c4.83,0,6.9,3.35,6.9,8.98v13.92h-5.87
			v-13.21c0-3.43-0.96-4.67-3.15-4.67c-1.83,0-2.99,0.88-4.67,2.51v15.36h-5.83V709.12z"/>
		<path class="st3" d="M332.14,735.41c0-1.88,1.16-3.47,3.19-4.63v-0.2c-1.16-0.76-2.03-1.92-2.03-3.75c0-1.67,1.16-3.23,2.47-4.19
			v-0.16c-1.52-1.12-2.95-3.23-2.95-5.83c0-5.27,4.27-8.1,9.02-8.1c1.24,0,2.43,0.24,3.35,0.56h8.06v4.31h-3.83
			c0.6,0.76,1.04,1.99,1.04,3.39c0,5.03-3.83,7.58-8.62,7.58c-0.88,0-1.92-0.2-2.87-0.52c-0.64,0.52-0.96,1.04-0.96,1.92
			c0,1.2,0.88,1.83,3.51,1.83h3.79c5.39,0,8.3,1.68,8.3,5.59c0,4.51-4.67,7.94-12.13,7.94
			C336.21,741.16,332.14,739.36,332.14,735.41z M348.02,734.22c0-1.6-1.32-2-3.71-2h-2.71c-1.36,0-2.31-0.12-3.11-0.32
			c-1,0.8-1.48,1.67-1.48,2.59c0,1.88,2.08,2.95,5.35,2.95C345.7,737.45,348.02,735.97,348.02,734.22z M345.3,716.66
			c0-2.63-1.47-4.11-3.47-4.11c-1.99,0-3.51,1.48-3.51,4.11c0,2.63,1.56,4.11,3.51,4.11C343.79,720.77,345.3,719.29,345.3,716.66z"
			/>
		<path class="st3" d="M379.29,731.46l-6.07-11.17h-4.11v11.17h-5.9v-29.52h10.29c6.18,0,11.09,2.15,11.09,8.94
			c0,4.43-2.24,7.18-5.63,8.5l6.9,12.09H379.29z M369.11,715.62h3.83c3.79,0,5.87-1.6,5.87-4.75c0-3.19-2.08-4.27-5.87-4.27h-3.83
			V715.62z"/>
		<path class="st3" d="M386.18,720.33c0-7.26,5.07-11.77,10.41-11.77c6.14,0,9.34,4.51,9.34,10.69c0,1.08-0.12,2.15-0.28,2.67
			h-13.76c0.48,3.67,2.87,5.58,6.18,5.58c1.84,0,3.43-0.56,5.03-1.56l1.99,3.59c-2.19,1.52-5.03,2.47-7.82,2.47
			C391.05,732.02,386.18,727.67,386.18,720.33z M400.91,718.06c0-3.03-1.36-4.95-4.23-4.95c-2.35,0-4.43,1.67-4.87,4.95H400.91z"/>
		<path class="st3" d="M406.76,728.87l2.67-3.67c2,1.56,3.91,2.43,5.99,2.43c2.23,0,3.23-0.96,3.23-2.35c0-1.68-2.31-2.43-4.67-3.35
			c-2.83-1.08-6.1-2.79-6.1-6.5c0-4.03,3.27-6.86,8.3-6.86c3.27,0,5.74,1.36,7.62,2.75l-2.63,3.55c-1.6-1.12-3.15-1.92-4.83-1.92
			c-1.99,0-2.95,0.88-2.95,2.15c0,1.64,2.19,2.23,4.55,3.11c2.95,1.12,6.22,2.59,6.22,6.74c0,3.91-3.07,7.06-8.9,7.06
			C412.27,732.02,408.96,730.71,406.76,728.87z"/>
		<path class="st3" d="M425.35,720.33c0-7.26,5.07-11.77,10.41-11.77c6.14,0,9.34,4.51,9.34,10.69c0,1.08-0.12,2.15-0.28,2.67
			h-13.76c0.48,3.67,2.87,5.58,6.18,5.58c1.84,0,3.43-0.56,5.03-1.56l1.99,3.59c-2.19,1.52-5.03,2.47-7.82,2.47
			C430.22,732.02,425.35,727.67,425.35,720.33z M440.07,718.06c0-3.03-1.36-4.95-4.23-4.95c-2.35,0-4.43,1.67-4.87,4.95H440.07z"/>
		<path class="st3" d="M446.37,725.4c0-4.79,3.87-7.3,12.85-8.26c-0.08-2.19-1.04-3.87-3.79-3.87c-2.07,0-4.07,0.92-6.14,2.12
			l-2.11-3.87c2.63-1.63,5.83-2.95,9.34-2.95c5.67,0,8.58,3.39,8.58,9.85v13.05h-4.79l-0.44-2.39h-0.12
			c-1.95,1.67-4.19,2.95-6.74,2.95C449,732.02,446.37,729.19,446.37,725.4z M459.22,725.24v-4.51c-5.43,0.72-7.26,2.19-7.26,4.19
			c0,1.76,1.24,2.51,2.95,2.51C456.59,727.43,457.82,726.64,459.22,725.24z"/>
		<path class="st3" d="M469.19,709.12h4.79l0.4,3.95h0.16c1.64-2.91,4.03-4.51,6.34-4.51c1.24,0,1.95,0.2,2.63,0.48l-1.04,5.07
			c-0.76-0.24-1.4-0.36-2.31-0.36c-1.76,0-3.87,1.16-5.15,4.39v13.33h-5.82V709.12z"/>
		<path class="st3" d="M482.83,720.33c0-7.46,5.35-11.77,11.41-11.77c2.75,0,4.87,1.08,6.5,2.47l-2.79,3.79
			c-1.12-0.96-2.15-1.48-3.43-1.48c-3.39,0-5.71,2.75-5.71,6.98c0,4.19,2.31,6.9,5.55,6.9c1.6,0,3.11-0.76,4.35-1.79l2.31,3.87
			c-2.12,1.88-4.83,2.71-7.3,2.71C487.53,732.02,482.83,727.71,482.83,720.33z"/>
		<path class="st3" d="M503.37,699.63h5.82v8.02l-0.24,4.19c1.8-1.67,3.99-3.27,7.02-3.27c4.83,0,6.9,3.35,6.9,8.98v13.92h-5.86
			v-13.21c0-3.43-0.96-4.67-3.15-4.67c-1.83,0-2.99,0.88-4.67,2.51v15.36h-5.82V699.63z"/>
	</g>
</g>
<g>
	<g>
		<path class="st3" d="M250.49,453.22c0-8.8,5.66-13.96,12.41-13.96c3.39,0,6.09,1.62,7.83,3.43l-2.81,3.39
			c-1.34-1.3-2.89-2.24-4.91-2.24c-4.04,0-7.07,3.46-7.07,9.2c0,5.81,2.74,9.31,6.96,9.31c2.27,0,4.08-1.08,5.52-2.63l2.81,3.32
			c-2.2,2.56-5.05,3.93-8.51,3.93C255.98,466.96,250.49,462.13,250.49,453.22z"/>
		<path class="st3" d="M272.38,460.97c0-4.33,3.5-6.6,11.62-7.47c-0.07-1.98-0.94-3.5-3.43-3.5c-1.88,0-3.68,0.83-5.56,1.91
			l-1.91-3.5c2.38-1.48,5.27-2.67,8.44-2.67c5.12,0,7.75,3.07,7.75,8.91v11.79h-4.33l-0.4-2.16h-0.11c-1.77,1.51-3.79,2.67-6.1,2.67
			C274.76,466.96,272.38,464.4,272.38,460.97z M284,460.83v-4.08c-4.91,0.65-6.56,1.98-6.56,3.79c0,1.59,1.12,2.27,2.67,2.27
			C281.61,462.81,282.73,462.09,284,460.83z"/>
		<path class="st3" d="M293.01,446.26h4.33l0.36,2.67h0.14c1.77-1.73,3.82-3.17,6.56-3.17c4.37,0,6.24,3.03,6.24,8.12v12.59h-5.3
			v-11.94c0-3.1-0.87-4.22-2.85-4.22c-1.66,0-2.71,0.79-4.22,2.27v13.89h-5.27V446.26z"/>
		<path class="st3" d="M313.17,456.39c0-6.75,4.83-10.64,10.32-10.64c2.49,0,4.4,0.97,5.88,2.24l-2.52,3.43
			c-1.01-0.87-1.95-1.33-3.1-1.33c-3.07,0-5.16,2.49-5.16,6.31c0,3.79,2.09,6.24,5.01,6.24c1.44,0,2.81-0.68,3.93-1.62l2.09,3.5
			c-1.91,1.7-4.36,2.45-6.6,2.45C317.42,466.96,313.17,463.07,313.17,456.39z"/>
		<path class="st3" d="M329.39,456.39c0-6.56,4.58-10.64,9.41-10.64c5.55,0,8.44,4.08,8.44,9.67c0,0.97-0.11,1.95-0.25,2.42h-12.44
			c0.43,3.32,2.6,5.05,5.59,5.05c1.66,0,3.1-0.5,4.55-1.41l1.8,3.25c-1.98,1.37-4.54,2.24-7.07,2.24
			C333.79,466.96,329.39,463.03,329.39,456.39z M342.7,454.34c0-2.74-1.23-4.47-3.82-4.47c-2.13,0-4,1.51-4.4,4.47H342.7z"/>
		<path class="st3" d="M349.91,446.26h4.33l0.36,3.57h0.14c1.48-2.63,3.64-4.08,5.74-4.08c1.12,0,1.77,0.18,2.38,0.43l-0.94,4.58
			c-0.68-0.22-1.26-0.32-2.09-0.32c-1.59,0-3.5,1.05-4.65,3.97v12.05h-5.27V446.26z"/>
		<path class="st3" d="M369.09,463.07l3.06-3.68c1.91,1.77,4.44,2.96,6.78,2.96c2.78,0,4.26-1.19,4.26-3.07c0-1.98-1.62-2.6-4-3.61
			l-3.57-1.52c-2.71-1.12-5.41-3.28-5.41-7.18c0-4.36,3.82-7.72,9.23-7.72c3.1,0,6.21,1.23,8.37,3.43l-2.71,3.35
			c-1.7-1.41-3.46-2.2-5.66-2.2c-2.34,0-3.86,1.05-3.86,2.81c0,1.91,1.91,2.6,4.18,3.5l3.5,1.48c3.25,1.33,5.37,3.39,5.37,7.25
			c0,4.36-3.64,8.08-9.81,8.08C375.26,466.96,371.69,465.55,369.09,463.07z"/>
		<path class="st3" d="M391.02,458.88v-12.62h5.3v11.94c0,3.14,0.86,4.22,2.81,4.22c1.66,0,2.74-0.72,4.11-2.52v-13.63h5.3v20.2
			h-4.33l-0.4-2.89h-0.15c-1.73,2.06-3.68,3.39-6.46,3.39C392.9,466.96,391.02,463.93,391.02,458.88z"/>
		<path class="st3" d="M412.51,446.26h4.33l0.36,3.57h0.15c1.48-2.63,3.64-4.08,5.73-4.08c1.12,0,1.77,0.18,2.38,0.43l-0.94,4.58
			c-0.68-0.22-1.26-0.32-2.09-0.32c-1.59,0-3.5,1.05-4.65,3.97v12.05h-5.27V446.26z"/>
		<path class="st3" d="M424.7,446.26h5.34l2.96,10.06c0.5,1.98,1.08,4.08,1.62,6.13h0.18c0.51-2.06,1.08-4.15,1.62-6.13l2.96-10.06
			h5.09l-6.74,20.2h-6.13L424.7,446.26z"/>
		<path class="st3" d="M445.61,440.13c0-1.73,1.33-2.89,3.17-2.89c1.8,0,3.14,1.15,3.14,2.89c0,1.66-1.34,2.89-3.14,2.89
			C446.95,443.01,445.61,441.78,445.61,440.13z M446.12,446.26h5.27v20.2h-5.27V446.26z"/>
		<path class="st3" d="M453.04,446.26h5.34l2.96,10.06c0.5,1.98,1.08,4.08,1.62,6.13h0.18c0.51-2.06,1.08-4.15,1.62-6.13l2.96-10.06
			h5.09l-6.74,20.2h-6.13L453.04,446.26z"/>
		<path class="st3" d="M472.62,460.97c0-4.33,3.5-6.6,11.61-7.47c-0.07-1.98-0.94-3.5-3.43-3.5c-1.87,0-3.68,0.83-5.55,1.91
			l-1.91-3.5c2.38-1.48,5.27-2.67,8.44-2.67c5.12,0,7.76,3.07,7.76,8.91v11.79h-4.33l-0.4-2.16h-0.11
			c-1.77,1.51-3.79,2.67-6.09,2.67C475,466.96,472.62,464.4,472.62,460.97z M484.23,460.83v-4.08c-4.9,0.65-6.56,1.98-6.56,3.79
			c0,1.59,1.12,2.27,2.67,2.27C481.85,462.81,482.97,462.09,484.23,460.83z"/>
		<path class="st3" d="M493.25,460.79v-23.12h5.27v23.37c0,1.19,0.58,1.59,1.08,1.59c0.22,0,0.36,0,0.72-0.07l0.65,3.93
			c-0.61,0.25-1.52,0.47-2.74,0.47C494.55,466.96,493.25,464.54,493.25,460.79z"/>
		<path class="st3" d="M512.73,462.22c0-4.33,3.5-6.6,11.61-7.47c-0.07-1.98-0.94-3.5-3.43-3.5c-1.87,0-3.68,0.83-5.55,1.91
			l-1.91-3.5c2.38-1.48,5.27-2.67,8.44-2.67c5.12,0,7.75,3.07,7.75,8.91v11.79h-4.33l-0.4-2.16h-0.11c-1.77,1.51-3.79,2.67-6.1,2.67
			C515.11,468.2,512.73,465.64,512.73,462.22z M524.34,462.07V458c-4.91,0.65-6.56,1.98-6.56,3.79c0,1.59,1.12,2.27,2.67,2.27
			C521.96,464.06,523.08,463.34,524.34,462.07z"/>
		<path class="st3" d="M533.36,447.5h4.33l0.36,2.67h0.14c1.77-1.73,3.82-3.17,6.56-3.17c4.36,0,6.24,3.03,6.24,8.12v12.59h-5.3
			v-11.94c0-3.1-0.86-4.22-2.85-4.22c-1.66,0-2.71,0.79-4.22,2.27v13.89h-5.27V447.5z"/>
		<path class="st3" d="M553.62,457.64c0-6.6,4.11-10.64,8.48-10.64c2.27,0,3.68,0.87,5.12,2.2l-0.22-3.17v-7.1h5.3v28.78h-4.29
			l-0.43-2.09h-0.11c-1.48,1.44-3.5,2.6-5.59,2.6C556.87,468.2,553.62,464.24,553.62,457.64z M567,461.75v-8.87
			c-1.23-1.12-2.49-1.52-3.75-1.52c-2.27,0-4.18,2.17-4.18,6.2c0,4.18,1.52,6.28,4.18,6.28C564.66,463.84,565.85,463.26,567,461.75z
			"/>
		<path class="st3" d="M583.34,464.31l3.07-3.68c1.91,1.77,4.44,2.96,6.78,2.96c2.78,0,4.26-1.19,4.26-3.07c0-1.98-1.62-2.6-4-3.61
			l-3.57-1.52c-2.71-1.12-5.41-3.28-5.41-7.18c0-4.36,3.82-7.72,9.23-7.72c3.1,0,6.2,1.23,8.37,3.43l-2.71,3.35
			c-1.7-1.41-3.46-2.2-5.66-2.2c-2.34,0-3.86,1.05-3.86,2.81c0,1.91,1.91,2.6,4.18,3.5l3.5,1.48c3.24,1.33,5.37,3.39,5.37,7.25
			c0,4.36-3.64,8.08-9.81,8.08C589.51,468.2,585.93,466.8,583.34,464.31z"/>
		<path class="st3" d="M605.26,460.12V447.5h5.3v11.94c0,3.14,0.86,4.22,2.81,4.22c1.66,0,2.74-0.72,4.11-2.52V447.5h5.3v20.2h-4.33
			l-0.4-2.89h-0.14c-1.73,2.06-3.68,3.39-6.46,3.39C607.14,468.2,605.26,465.17,605.26,460.12z"/>
		<path class="st3" d="M626.75,447.5h4.33l0.36,3.57h0.14c1.48-2.63,3.64-4.08,5.74-4.08c1.12,0,1.77,0.18,2.38,0.43l-0.94,4.58
			c-0.68-0.22-1.26-0.32-2.09-0.32c-1.59,0-3.5,1.05-4.65,3.97v12.05h-5.27V447.5z"/>
		<path class="st3" d="M638.94,447.5h5.34l2.96,10.06c0.51,1.98,1.08,4.08,1.62,6.13h0.18c0.51-2.06,1.08-4.15,1.62-6.13l2.96-10.06
			h5.09l-6.75,20.2h-6.13L638.94,447.5z"/>
		<path class="st3" d="M659.86,441.37c0-1.73,1.33-2.89,3.17-2.89c1.8,0,3.14,1.15,3.14,2.89c0,1.66-1.34,2.89-3.14,2.89
			C661.19,444.25,659.86,443.03,659.86,441.37z M660.36,447.5h5.27v20.2h-5.27V447.5z"/>
		<path class="st3" d="M667.28,447.5h5.34l2.96,10.06c0.51,1.98,1.08,4.08,1.62,6.13h0.18c0.51-2.06,1.08-4.15,1.62-6.13l2.96-10.06
			h5.09l-6.75,20.2h-6.13L667.28,447.5z"/>
		<path class="st3" d="M687.15,457.64c0-6.75,4.65-10.64,9.7-10.64c5.05,0,9.7,3.9,9.7,10.64c0,6.67-4.65,10.57-9.7,10.57
			C691.81,468.2,687.15,464.31,687.15,457.64z M701.15,457.64c0-3.82-1.55-6.31-4.29-6.31c-2.74,0-4.29,2.49-4.29,6.31
			c0,3.79,1.55,6.24,4.29,6.24C699.6,463.88,701.15,461.42,701.15,457.64z"/>
		<path class="st3" d="M709.29,447.5h4.33l0.36,3.57h0.14c1.48-2.63,3.64-4.08,5.74-4.08c1.12,0,1.77,0.18,2.38,0.43l-0.94,4.58
			c-0.69-0.22-1.26-0.32-2.09-0.32c-1.59,0-3.5,1.05-4.65,3.97v12.05h-5.27V447.5z"/>
		<path class="st3" d="M721.12,465.35l2.42-3.32c1.8,1.41,3.53,2.2,5.41,2.2c2.02,0,2.92-0.86,2.92-2.13c0-1.52-2.09-2.2-4.22-3.03
			c-2.56-0.97-5.52-2.52-5.52-5.88c0-3.64,2.96-6.2,7.5-6.2c2.96,0,5.19,1.23,6.89,2.49l-2.38,3.21c-1.44-1.01-2.85-1.73-4.36-1.73
			c-1.8,0-2.67,0.79-2.67,1.95c0,1.48,1.98,2.02,4.11,2.81c2.67,1.01,5.63,2.34,5.63,6.09c0,3.53-2.78,6.38-8.04,6.38
			C726.1,468.2,723.11,467.01,721.12,465.35z"/>
		<path class="st3" d="M739.19,438.92h5.27v7.25l-0.22,3.79c1.62-1.51,3.61-2.96,6.35-2.96c4.36,0,6.24,3.03,6.24,8.12v12.59h-5.3
			v-11.94c0-3.1-0.86-4.22-2.85-4.22c-1.66,0-2.71,0.79-4.22,2.27v13.89h-5.27V438.92z"/>
		<path class="st3" d="M760.07,441.37c0-1.73,1.34-2.89,3.17-2.89c1.8,0,3.14,1.15,3.14,2.89c0,1.66-1.33,2.89-3.14,2.89
			C761.4,444.25,760.07,443.03,760.07,441.37z M760.57,447.5h5.27v20.2h-5.27V447.5z"/>
		<path class="st3" d="M769.84,447.5h4.33l0.36,2.09h0.15c1.7-1.44,3.79-2.6,5.95-2.6c4.98,0,7.93,4.08,7.93,10.28
			c0,6.93-4.15,10.93-8.58,10.93c-1.77,0-3.46-0.79-5.02-2.2l0.15,3.32v6.13h-5.27V447.5z M783.11,457.35c0-3.86-1.23-5.99-4-5.99
			c-1.37,0-2.6,0.69-4,2.09v8.87c1.3,1.12,2.6,1.52,3.68,1.52C781.24,463.84,783.11,461.75,783.11,457.35z"/>
	</g>
</g>
</svg>
