<?xml version="1.0" encoding="utf-8"?>
<!-- Generator: Adobe Illustrator 24.0.2, SVG Export Plug-In . SVG Version: 6.00 Build 0)  -->
<svg version="1.1" id="레이어_1" xmlns="http://www.w3.org/2000/svg" xmlns:xlink="http://www.w3.org/1999/xlink" x="0px"
	 y="0px" viewBox="0 0 900 900" style="enable-background:new 0 0 900 900;" xml:space="preserve">
<style type="text/css">
	.st0{fill:none;}
	.st1{fill:#D1E8FD;}
	.st2{opacity:0.5;fill:#C7B299;}
	.st3{fill:#FFFFFF;}
	.st4{fill:#004496;}
	.st5{fill:#F15A24;}
	.st6{fill:url(#SVGID_1_);}
	.st7{opacity:0.2;fill:#F15A24;}
	.st8{fill:#513EF1;}
	.st9{fill:#4D4D4D;}
</style>
<pattern  width="19.95" height="19.95" patternUnits="userSpaceOnUse" id="New_Pattern_Swatch_1" viewBox="0 -19.95 19.95 19.95" style="overflow:visible;">
	<g>
		<rect x="0" y="-19.95" class="st0" width="19.95" height="19.95"/>
		<rect x="0" y="-19.95" class="st1" width="19.95" height="19.95"/>
	</g>
</pattern>
<path class="st2" d="M819.43,864.15H77.51c-19.64,0-35.57-15.92-35.57-35.57v-109c0-19.64,15.92-35.57,35.57-35.57h741.93
	c19.64,0,35.57,15.92,35.57,35.57v109C855,848.23,839.08,864.15,819.43,864.15z"/>
<g>
	<g>
		<circle class="st3" cx="135.05" cy="775.79" r="83.17"/>
		<path class="st1" d="M135.05,704.11c19.14,0,37.14,7.46,50.68,20.99c13.54,13.54,20.99,31.53,20.99,50.68s-7.45,37.14-20.99,50.68
			c-13.54,13.54-31.53,20.99-50.68,20.99S97.91,840,84.37,826.46c-13.54-13.54-20.99-31.53-20.99-50.68s7.45-37.14,20.99-50.68
			C97.91,711.57,115.91,704.11,135.05,704.11 M135.05,692.62c-45.93,0-83.17,37.23-83.17,83.17c0,45.93,37.23,83.17,83.17,83.17
			s83.17-37.23,83.17-83.17C218.22,729.85,180.98,692.62,135.05,692.62L135.05,692.62z"/>
	</g>
	<path class="st4" d="M135.05,859.86c-46.36,0-84.07-37.71-84.07-84.07c0-46.36,37.71-84.07,84.07-84.07s84.07,37.71,84.07,84.07
		C219.12,822.14,181.41,859.86,135.05,859.86z M135.05,693.53c-45.36,0-82.26,36.9-82.26,82.26c0,45.36,36.9,82.26,82.26,82.26
		s82.26-36.9,82.26-82.26C217.31,730.43,180.41,693.53,135.05,693.53z"/>
	<g>
		<path class="st4" d="M143.97,822.73c-0.5,0-0.91-0.41-0.91-0.91v-21.17c0-0.5,0.41-0.91,0.91-0.91h12.68c3.7,0,4.68-4.57,4.8-5.21
			v-14.36c0-0.27,0.12-0.53,0.33-0.7c0.21-0.17,0.48-0.24,0.75-0.19c0.03,0.01,2.81,0.52,5.66,0c0.45-0.08,0.54-0.27,0.58-0.36
			c0.81-1.69-2.66-8.06-4.14-10.78c-1.69-3.1-1.91-5.21-2.17-7.65c-0.33-3.14-0.74-7.05-4.68-15.02
			c-4.86-9.83-13.84-14.82-26.7-14.82c-11.62,0-20.44,6.71-24.82,12.98c-4.09,5.86-6.6,19.02-5.28,27.62
			c0.79,5.16,3.33,10.12,5.32,13.38c2.27,3.71,3.47,7.91,3.47,12.14v25.05c0,0.5-0.41,0.91-0.91,0.91s-0.91-0.41-0.91-0.91v-25.05
			c0-3.89-1.11-7.76-3.2-11.19c-2.07-3.4-4.72-8.59-5.56-14.05c-1.41-9.14,1.2-22.66,5.58-28.93c4.64-6.65,13.99-13.76,26.31-13.76
			c13.6,0,23.13,5.33,28.33,15.83c4.08,8.26,4.51,12.35,4.85,15.63c0.24,2.34,0.44,4.19,1.95,6.97c3.42,6.27,5.2,10.31,4.19,12.43
			c-0.24,0.51-0.77,1.16-1.9,1.36c-2.07,0.38-4.07,0.27-5.25,0.15v13.4c0,0.05,0,0.1-0.01,0.14c-0.38,2.35-2.25,6.8-6.61,6.8h-11.77
			v20.27C144.88,822.32,144.48,822.73,143.97,822.73z"/>
		<path class="st4" d="M123.08,795.52h-3.7c-0.5,0-0.91-0.41-0.91-0.91V779.8l-7.19-8.88l-4.95-4.27c-0.23-0.2-0.35-0.5-0.31-0.8
			l1.95-15.32c0.03-0.22,0.13-0.42,0.3-0.56l8.5-7.52c0.11-0.1,0.25-0.17,0.4-0.21l18.39-4.18c0.18-0.04,0.37-0.03,0.55,0.05
			l14.77,6.13c0.17,0.07,0.31,0.19,0.41,0.34l6.83,10.31c0.16,0.24,0.19,0.54,0.1,0.81l-3.62,10.03c-0.13,0.36-0.47,0.6-0.85,0.6
			h-9.35l-14.13,15.62l-6.35,13.07C123.75,795.32,123.43,795.52,123.08,795.52z M120.29,793.71h2.22l6.16-12.68
			c0.04-0.08,0.09-0.15,0.14-0.21l14.49-16.02c0.17-0.19,0.42-0.3,0.67-0.3h9.11l3.25-9l-6.42-9.7l-14.24-5.91l-17.88,4.06
			l-8.07,7.14l-1.85,14.5l4.64,4c0.04,0.04,0.08,0.07,0.11,0.12l7.44,9.19c0.13,0.16,0.2,0.36,0.2,0.57V793.71z"/>
		<path class="st4" d="M111.94,771.19c-0.17,0-0.33-0.05-0.49-0.14c-0.42-0.27-0.55-0.83-0.28-1.25l4.54-7.16l-8.38,4.14
			c-0.45,0.22-0.99,0.04-1.22-0.41c-0.22-0.45-0.04-0.99,0.41-1.22l11.28-5.57c0.37-0.18,0.81-0.1,1.08,0.21
			c0.27,0.3,0.31,0.75,0.09,1.09l-6.27,9.89C112.53,771.04,112.24,771.19,111.94,771.19z"/>
		<path class="st4" d="M118.2,761.3c-0.48,0-0.88-0.38-0.91-0.86l-0.38-7.84l-8.16-1.06c-0.5-0.06-0.85-0.52-0.78-1.02
			c0.06-0.5,0.52-0.85,1.02-0.78l7.84,1.02l-0.37-7.6c-0.02-0.34,0.16-0.66,0.45-0.83c0.29-0.17,0.65-0.16,0.94,0.02l17.27,10.87
			c0.36,0.23,0.51,0.67,0.37,1.08c-0.14,0.4-0.55,0.65-0.97,0.59l-15.78-2.05l0.36,7.51c0.02,0.5-0.36,0.93-0.86,0.95
			C118.23,761.3,118.22,761.3,118.2,761.3z M118.66,751l12,1.56l-12.3-7.74L118.66,751z"/>
		<path class="st4" d="M134.64,754.89c-0.17,0-0.34-0.05-0.49-0.14c-0.28-0.18-0.44-0.5-0.42-0.83l1.11-15.04
			c0.04-0.5,0.48-0.88,0.97-0.84c0.5,0.04,0.87,0.47,0.84,0.97l-0.99,13.36l14.41-8.09c0.44-0.25,0.99-0.09,1.24,0.35
			c0.25,0.44,0.09,0.99-0.35,1.24l-15.88,8.92C134.95,754.85,134.79,754.89,134.64,754.89z"/>
		<path class="st4" d="M153.72,766.31c-0.16,0-0.32-0.04-0.47-0.13l-19.08-11.42c-0.36-0.22-0.52-0.65-0.4-1.05
			c0.12-0.4,0.52-0.66,0.92-0.64l22.71,1.39c0.5,0.03,0.88,0.46,0.85,0.96c-0.03,0.5-0.45,0.89-0.96,0.85l-18.99-1.16l15.89,9.51
			c0.43,0.26,0.57,0.81,0.31,1.24C154.33,766.16,154.03,766.31,153.72,766.31z"/>
		<path class="st4" d="M118.21,761.3c-0.36,0-0.71-0.22-0.85-0.58c-0.18-0.47,0.05-0.99,0.52-1.18l16.44-6.41
			c0.46-0.18,0.99,0.05,1.18,0.52c0.18,0.47-0.05,0.99-0.52,1.18l-16.44,6.41C118.43,761.28,118.31,761.3,118.21,761.3z"/>
		<path class="st4" d="M129.49,782.33c-0.06,0-0.12-0.01-0.17-0.02l-10.1-1.95c-0.01,0-0.02,0-0.02-0.01
			c-0.22-0.05-0.41-0.18-0.54-0.35l0,0v0c-0.03-0.04-0.06-0.09-0.08-0.14c-0.06-0.11-0.09-0.24-0.09-0.36l-1.18-19.06
			c-0.02-0.39,0.2-0.75,0.57-0.9c0.36-0.15,0.78-0.05,1.03,0.25l6.56,7.68l8.39-13.95c0.03-0.06,0.08-0.12,0.13-0.17
			c0.05-0.05,0.11-0.1,0.17-0.14c0.13-0.09,0.28-0.13,0.42-0.14c0.1-0.01,0.19,0,0.29,0.02c0.15,0.04,0.29,0.11,0.41,0.22
			c0.03,0.03,0.06,0.06,0.08,0.09l9.33,11.42c0.2,0.25,0.26,0.58,0.15,0.88c-0.11,0.3-0.37,0.52-0.68,0.58l-11.24,2.21l-2.53,13.09
			C130.29,782.03,129.91,782.33,129.49,782.33z M120.82,778.83l7.95,1.53l2.22-11.47l-4.83,0.95L120.82,778.83z M119.28,763.04
			l0.83,13.44l4.37-7.35L119.28,763.04z M132.86,758.71l-5.44,9.03l3.93-0.77L132.86,758.71z M135.18,756.08l-1.92,10.51l9.05-1.78
			L135.18,756.08z"/>
	</g>
	<g>
		<circle class="st3" cx="134.76" cy="753.74" r="7.37"/>
		<path class="st5" d="M134.76,761.72c-4.4,0-7.97-3.58-7.97-7.97c0-4.4,3.58-7.97,7.97-7.97c4.4,0,7.97,3.58,7.97,7.97
			C142.73,758.14,139.15,761.72,134.76,761.72z M134.76,746.98c-3.73,0-6.76,3.03-6.76,6.76c0,3.73,3.03,6.76,6.76,6.76
			c3.73,0,6.76-3.03,6.76-6.76C141.52,750.01,138.49,746.98,134.76,746.98z"/>
	</g>
	<g>
		<g>
			<line class="st3" x1="131.35" y1="753.74" x2="138.17" y2="753.74"/>
			<path class="st5" d="M138.17,754.35h-6.82c-0.33,0-0.6-0.27-0.6-0.61c0-0.33,0.27-0.6,0.6-0.6h6.82c0.33,0,0.6,0.27,0.6,0.6
				C138.77,754.08,138.5,754.35,138.17,754.35z"/>
		</g>
		<g>
			<line class="st3" x1="134.76" y1="750.33" x2="134.76" y2="757.15"/>
			<path class="st5" d="M134.76,757.76c-0.33,0-0.6-0.27-0.6-0.6v-6.82c0-0.33,0.27-0.6,0.6-0.6s0.6,0.27,0.6,0.6v6.82
				C135.36,757.49,135.09,757.76,134.76,757.76z"/>
		</g>
	</g>
	<g>
		<path class="st5" d="M163.56,751.96h-21.43c-0.25,0-0.45-0.2-0.45-0.45c0-0.25,0.2-0.45,0.45-0.45h21.43
			c3.92,0,7.8-1.31,10.91-3.69l7.95-6.06c0.2-0.15,0.49-0.11,0.64,0.09c0.15,0.2,0.11,0.48-0.09,0.64l-7.95,6.06
			C171.75,750.58,167.68,751.96,163.56,751.96z"/>
		<g>
			<path class="st5" d="M183.47,742.79c0.6-0.46,0.71-1.31,0.26-1.91c-0.46-0.6-1.31-0.71-1.91-0.26c-0.6,0.46-0.71,1.31-0.26,1.91
				C182.01,743.13,182.87,743.25,183.47,742.79z"/>
		</g>
	</g>
	<g>
		<path class="st5" d="M182.69,766.76c-0.1,0-0.19-0.03-0.27-0.09l-7.95-6.06c-3.12-2.38-6.99-3.69-10.91-3.69h-21.43
			c-0.25,0-0.45-0.2-0.45-0.45c0-0.25,0.2-0.45,0.45-0.45h21.43c4.12,0,8.19,1.38,11.46,3.87l7.95,6.06
			c0.2,0.15,0.24,0.44,0.09,0.64C182.97,766.7,182.83,766.76,182.69,766.76z"/>
		<g>
			<path class="st5" d="M181.81,767.35c0.6,0.46,1.46,0.34,1.91-0.26c0.46-0.6,0.34-1.46-0.26-1.91c-0.6-0.46-1.46-0.34-1.91,0.26
				C181.1,766.03,181.21,766.89,181.81,767.35z"/>
		</g>
	</g>
	<g>
		<path class="st5" d="M183.21,754.44h-40.32c-0.25,0-0.45-0.2-0.45-0.45c0-0.25,0.2-0.45,0.45-0.45h40.32
			c0.25,0,0.45,0.2,0.45,0.45C183.66,754.24,183.46,754.44,183.21,754.44z"/>
		<g>
			<path class="st5" d="M183.14,755.35c0.75,0,1.36-0.61,1.36-1.36c0-0.75-0.61-1.36-1.36-1.36c-0.75,0-1.36,0.61-1.36,1.36
				C181.78,754.74,182.39,755.35,183.14,755.35z"/>
		</g>
	</g>
</g>
<pattern  id="SVGID_1_" xlink:href="#New_Pattern_Swatch_1" patternTransform="matrix(1 0 0 1 36.223 17.9362)">
</pattern>
<path class="st6" d="M1627.56,616.74c-104.16,0-188.9-84.74-188.9-188.9c0-104.16,84.74-188.9,188.9-188.9s188.9,84.74,188.9,188.9
	C1816.46,532,1731.72,616.74,1627.56,616.74z M1627.56,241.94c-102.5,0-185.9,83.39-185.9,185.9c0,102.51,83.39,185.9,185.9,185.9
	s185.9-83.39,185.9-185.9C1813.46,325.34,1730.06,241.94,1627.56,241.94z"/>
<circle class="st1" cx="1435.51" cy="240.44" r="137.47"/>
<circle class="st1" cx="1816.55" cy="240.44" r="137.47"/>
<g>
	<circle class="st3" cx="1816.55" cy="610.39" r="137.47"/>
	<path class="st1" d="M1816.55,491.92c31.64,0,61.39,12.32,83.77,34.7c22.38,22.38,34.7,52.12,34.7,83.77
		c0,31.64-12.32,61.39-34.7,83.77s-52.12,34.7-83.77,34.7s-61.39-12.32-83.77-34.7c-22.38-22.38-34.7-52.12-34.7-83.77
		c0-31.64,12.32-61.39,34.7-83.77C1755.15,504.24,1784.9,491.92,1816.55,491.92 M1816.55,472.92
		c-75.92,0-137.47,61.55-137.47,137.47s61.55,137.47,137.47,137.47s137.47-61.55,137.47-137.47S1892.47,472.92,1816.55,472.92
		L1816.55,472.92z"/>
</g>
<path class="st4" d="M1816.54,749.35c-76.63,0-138.97-62.34-138.97-138.97c0-76.63,62.34-138.97,138.97-138.97
	c76.63,0,138.97,62.34,138.97,138.97C1955.51,687.01,1893.17,749.35,1816.54,749.35z M1816.54,474.42
	c-74.97,0-135.97,60.99-135.97,135.97c0,74.97,60.99,135.97,135.97,135.97c74.97,0,135.97-60.99,135.97-135.97
	C1952.51,535.41,1891.52,474.42,1816.54,474.42z"/>
<g>
	<circle class="st3" cx="1816.55" cy="240.95" r="137.47"/>
	<path class="st1" d="M1816.55,122.49c31.64,0,61.39,12.32,83.77,34.7c22.38,22.38,34.7,52.12,34.7,83.77
		c0,31.64-12.32,61.39-34.7,83.77s-52.12,34.7-83.77,34.7s-61.39-12.32-83.77-34.7c-22.38-22.38-34.7-52.12-34.7-83.77
		s12.32-61.39,34.7-83.77C1755.15,134.81,1784.9,122.49,1816.55,122.49 M1816.55,103.49c-75.92,0-137.47,61.55-137.47,137.47
		s61.55,137.47,137.47,137.47s137.47-61.55,137.47-137.47S1892.47,103.49,1816.55,103.49L1816.55,103.49z"/>
</g>
<path class="st4" d="M1816.54,379.92c-76.63,0-138.97-62.34-138.97-138.97s62.34-138.97,138.97-138.97
	c76.63,0,138.97,62.34,138.97,138.97S1893.17,379.92,1816.54,379.92z M1816.54,104.99c-74.97,0-135.97,60.99-135.97,135.97
	s60.99,135.97,135.97,135.97c74.97,0,135.97-60.99,135.97-135.97S1891.52,104.99,1816.54,104.99z"/>
<circle class="st1" cx="1435.51" cy="240.44" r="137.47"/>
<g>
	<circle class="st3" cx="1435.51" cy="240.95" r="137.47"/>
	<path class="st1" d="M1435.51,122.49c31.64,0,61.39,12.32,83.77,34.7c22.38,22.38,34.7,52.12,34.7,83.77s-12.32,61.39-34.7,83.77
		c-22.38,22.38-52.12,34.7-83.77,34.7s-61.39-12.32-83.77-34.7s-34.7-52.12-34.7-83.77c0-31.64,12.32-61.39,34.7-83.77
		C1374.12,134.81,1403.87,122.49,1435.51,122.49 M1435.51,103.49c-75.92,0-137.47,61.55-137.47,137.47s61.55,137.47,137.47,137.47
		s137.47-61.55,137.47-137.47S1511.43,103.49,1435.51,103.49L1435.51,103.49z"/>
</g>
<path class="st4" d="M1435.51,379.92c-76.63,0-138.97-62.34-138.97-138.97s62.34-138.97,138.97-138.97
	c76.63,0,138.97,62.34,138.97,138.97S1512.14,379.92,1435.51,379.92z M1435.51,104.99c-74.97,0-135.97,60.99-135.97,135.97
	s60.99,135.97,135.97,135.97c74.97,0,135.97-60.99,135.97-135.97S1510.48,104.99,1435.51,104.99z"/>
<circle class="st1" cx="1435.51" cy="610.13" r="137.47"/>
<circle class="st1" cx="1435.51" cy="610.13" r="137.47"/>
<g>
	<circle class="st3" cx="1435.51" cy="610.64" r="137.47"/>
	<path class="st1" d="M1435.51,492.18c31.64,0,61.39,12.32,83.77,34.7c22.38,22.38,34.7,52.12,34.7,83.77s-12.32,61.39-34.7,83.77
		c-22.38,22.38-52.12,34.7-83.77,34.7s-61.39-12.32-83.77-34.7c-22.38-22.38-34.7-52.12-34.7-83.77s12.32-61.39,34.7-83.77
		C1374.12,504.5,1403.87,492.18,1435.51,492.18 M1435.51,473.18c-75.92,0-137.47,61.55-137.47,137.47s61.55,137.47,137.47,137.47
		s137.47-61.55,137.47-137.47S1511.43,473.18,1435.51,473.18L1435.51,473.18z"/>
</g>
<path class="st4" d="M1435.51,749.61c-76.63,0-138.97-62.34-138.97-138.97s62.34-138.97,138.97-138.97
	c76.63,0,138.97,62.34,138.97,138.97S1512.14,749.61,1435.51,749.61z M1435.51,474.68c-74.97,0-135.97,60.99-135.97,135.97
	s60.99,135.97,135.97,135.97c74.97,0,135.97-60.99,135.97-135.97S1510.48,474.68,1435.51,474.68z"/>
<g>
	<circle class="st3" cx="1627.56" cy="427.84" r="169.81"/>
	<path class="st4" d="M1627.56,600.15c-95.01,0-172.31-77.3-172.31-172.31c0-95.01,77.3-172.31,172.31-172.31
		s172.31,77.3,172.31,172.31C1799.87,522.85,1722.57,600.15,1627.56,600.15z M1627.56,260.53c-92.25,0-167.31,75.06-167.31,167.31
		s75.06,167.31,167.31,167.31s167.31-75.06,167.31-167.31S1719.81,260.53,1627.56,260.53z"/>
</g>
<g>
	<g>
		<path class="st4" d="M1523.71,410.39l0.24-22.45l-0.08-0.08l-6.4,22.53h-5.07l-6.48-22.74l0.24,22.74h-7.05V380.4h9.85l5.96,19.74
			h0.08l5.88-19.74h9.89v29.99H1523.71z"/>
		<path class="st4" d="M1540.08,401.19c0.37,2.55,2.51,4.26,5.27,4.26c1.82,0,3-0.69,4.09-2.11h6.89c-2.15,4.9-6.24,7.78-10.98,7.78
			c-6.48,0-11.92-5.23-11.92-11.92c0-6.48,5.19-12.08,11.79-12.08c6.73,0,11.88,5.31,11.88,12.28c0,0.65-0.04,1.18-0.16,1.78
			H1540.08z M1550.37,396.65c-0.53-2.31-2.55-3.85-5.15-3.85c-2.43,0-4.54,1.46-5.07,3.85H1550.37z"/>
		<path class="st4" d="M1560.91,410.39v-17.39h-3.32v-5.11h3.32v-7.5h6.73v7.5h3.24v5.11h-3.24v17.39H1560.91z"/>
		<path class="st4" d="M1586.64,410.39v-12.36c0-2.92-1.13-4.58-3.61-4.58c-2.55,0-3.77,1.5-3.77,4.3v12.64h-6.73V380.4h6.73v9.65
			c0.97-1.82,3.16-2.92,5.84-2.92c5.15,0,8.27,3.24,8.27,9.12v14.14H1586.64z"/>
		<path class="st4" d="M1607.96,411.08c-6.85,0-12.12-5.07-12.12-11.96c0-6.97,5.39-11.96,12.12-11.96
			c6.77,0,12.12,5.07,12.12,11.87C1620.08,406.1,1614.73,411.08,1607.96,411.08z M1613.35,399.12c0-3-2.27-5.67-5.43-5.67
			c-2.96,0-5.35,2.59-5.35,5.67s2.35,5.67,5.39,5.67C1611.12,404.8,1613.35,402.12,1613.35,399.12z"/>
		<path class="st4" d="M1639.65,410.39v-2.43h-0.08c-1.26,2.07-3.53,3.16-6.73,3.16c-6.81,0-11.27-5.23-11.27-12.04
			c0-6.73,4.58-11.96,11.14-11.96c2.59,0,4.7,0.77,6.61,2.67v-9.4h6.73v29.99H1639.65z M1639.69,399.04c0-3.12-2.39-5.63-5.71-5.63
			c-3.16,0-5.67,2.35-5.67,5.63c0,3.4,2.39,5.8,5.63,5.8C1637.22,404.84,1639.69,402.37,1639.69,399.04z"/>
		<path class="st4" d="M1660.73,411.08c-6.85,0-12.12-5.07-12.12-11.96c0-6.97,5.39-11.96,12.12-11.96
			c6.77,0,12.12,5.07,12.12,11.87C1672.85,406.1,1667.5,411.08,1660.73,411.08z M1666.12,399.12c0-3-2.27-5.67-5.43-5.67
			c-2.96,0-5.35,2.59-5.35,5.67s2.35,5.67,5.39,5.67C1663.89,404.8,1666.12,402.12,1666.12,399.12z"/>
		<path class="st4" d="M1674.99,410.39V380.4h6.73v29.99H1674.99z"/>
		<path class="st4" d="M1696.39,411.08c-6.85,0-12.12-5.07-12.12-11.96c0-6.97,5.39-11.96,12.12-11.96
			c6.77,0,12.12,5.07,12.12,11.87C1708.51,406.1,1703.16,411.08,1696.39,411.08z M1701.78,399.12c0-3-2.27-5.67-5.43-5.67
			c-2.96,0-5.35,2.59-5.35,5.67s2.35,5.67,5.39,5.67C1699.55,404.8,1701.78,402.12,1701.78,399.12z"/>
		<path class="st4" d="M1727.6,407.76c-1.01,2.15-3.53,3.36-6.28,3.36c-6.57,0-11.31-5.07-11.31-11.83
			c0-6.89,4.82-12.12,11.31-12.12c2.92,0,5.15,1.09,6.24,2.84h0.08v-2.11h6.73V408c0,3.04-0.4,5.35-1.21,6.89
			c-1.62,3.12-6.04,5.51-11.67,5.51c-6.36,0-10.5-3.61-11.06-7.9h7.78c0.77,1.66,2.27,2.23,3.93,2.23c3.4,0,5.47-2.23,5.47-6.32
			V407.76z M1727.64,399.25c0-3.28-2.23-5.8-5.51-5.8c-3,0-5.39,2.51-5.39,5.59c0,3.16,2.15,5.8,5.39,5.8
			C1725.41,404.84,1727.64,402.49,1727.64,399.25z"/>
		<path class="st4" d="M1740.28,417.89l3.57-8.63l-8.35-21.36h7.17l4.5,13.05h0.08l4.29-13.05h7.13l-11.27,29.99H1740.28z"/>
		<path class="st4" d="M1515.72,479.29v-2.43h-0.08c-1.26,2.07-3.53,3.16-6.73,3.16c-6.81,0-11.27-5.23-11.27-12.04
			c0-6.73,4.58-11.96,11.14-11.96c2.59,0,4.7,0.77,6.61,2.67v-9.4h6.73v29.99H1515.72z M1515.76,467.94c0-3.12-2.39-5.63-5.71-5.63
			c-3.16,0-5.67,2.35-5.67,5.63c0,3.4,2.39,5.79,5.63,5.79C1513.29,473.74,1515.76,471.26,1515.76,467.94z"/>
		<path class="st4" d="M1531.16,470.09c0.37,2.55,2.51,4.25,5.27,4.25c1.82,0,3-0.69,4.09-2.11h6.89c-2.15,4.9-6.24,7.78-10.98,7.78
			c-6.48,0-11.92-5.23-11.92-11.92c0-6.48,5.19-12.08,11.79-12.08c6.73,0,11.88,5.31,11.88,12.28c0,0.65-0.04,1.17-0.16,1.78
			H1531.16z M1541.46,465.55c-0.53-2.31-2.55-3.85-5.15-3.85c-2.43,0-4.54,1.46-5.07,3.85H1541.46z"/>
		<path class="st4" d="M1556.17,479.29l-8.06-22.49h6.97l4.29,14.02h0.08l4.29-14.02h6.97l-8.11,22.49H1556.17z"/>
		<path class="st4" d="M1577.2,470.09c0.36,2.55,2.51,4.25,5.27,4.25c1.82,0,3-0.69,4.09-2.11h6.89c-2.15,4.9-6.24,7.78-10.98,7.78
			c-6.48,0-11.92-5.23-11.92-11.92c0-6.48,5.19-12.08,11.79-12.08c6.73,0,11.87,5.31,11.87,12.28c0,0.65-0.04,1.17-0.16,1.78H1577.2
			z M1587.5,465.55c-0.53-2.31-2.55-3.85-5.15-3.85c-2.43,0-4.54,1.46-5.07,3.85H1587.5z"/>
		<path class="st4" d="M1596.7,479.29V449.3h6.73v29.99H1596.7z"/>
		<path class="st4" d="M1618.09,479.98c-6.85,0-12.12-5.07-12.12-11.96c0-6.97,5.39-11.96,12.12-11.96
			c6.77,0,12.12,5.07,12.12,11.88C1630.21,474.99,1624.86,479.98,1618.09,479.98z M1623.49,468.02c0-3-2.27-5.67-5.43-5.67
			c-2.96,0-5.35,2.59-5.35,5.67s2.35,5.67,5.39,5.67C1621.26,473.7,1623.49,471.02,1623.49,468.02z"/>
		<path class="st4" d="M1632.77,486.79V456.8h6.32v2.47h0.12c1.78-2.23,4.26-3.24,7.05-3.24c6.4,0,10.94,5.23,10.94,12.24
			c0,6.4-4.5,11.79-10.94,11.79c-2.63,0-4.95-0.81-6.77-2.8v9.52H1632.77z M1650.48,468.06c0-3.16-2.43-5.75-5.67-5.75
			c-3.08,0-5.59,2.51-5.59,5.75c0,3.16,2.43,5.71,5.63,5.71S1650.48,471.18,1650.48,468.06z"/>
		<path class="st4" d="M1687.56,479.29v-12.12c0-3.53-1.13-4.82-3.44-4.82c-2.55,0-3.73,1.54-3.73,4.5v12.44h-6.73v-12.4
			c0-2.92-1.05-4.54-3.36-4.54c-2.63,0-3.81,1.7-3.81,4.82v12.12h-6.73V456.8h6.28v2.39h0.08c1.17-2.11,3.32-3.16,6.2-3.16
			c2.92,0,5.07,1.46,6.48,4.01c1.62-2.55,4.05-4.01,7.13-4.01c5.03,0,8.35,3.08,8.35,9.36v13.9H1687.56z"/>
		<path class="st4" d="M1703.2,470.09c0.37,2.55,2.51,4.25,5.27,4.25c1.82,0,3-0.69,4.09-2.11h6.89c-2.15,4.9-6.24,7.78-10.98,7.78
			c-6.48,0-11.92-5.23-11.92-11.92c0-6.48,5.19-12.08,11.79-12.08c6.73,0,11.88,5.31,11.88,12.28c0,0.65-0.04,1.17-0.16,1.78H1703.2
			z M1713.5,465.55c-0.53-2.31-2.55-3.85-5.15-3.85c-2.43,0-4.54,1.46-5.07,3.85H1713.5z"/>
		<path class="st4" d="M1736.8,479.29v-12.48c0-3.04-1.05-4.46-3.53-4.46c-2.71,0-3.85,1.5-3.85,4.54v12.4h-6.73V456.8h6.28v2.39
			h0.08c1.42-2.31,3.4-3.16,6.12-3.16c4.05,0,8.35,2.27,8.35,8.92v14.35H1736.8z"/>
		<path class="st4" d="M1748.39,479.29V461.9h-3.32v-5.11h3.32v-7.5h6.73v7.5h3.24v5.11h-3.24v17.39H1748.39z"/>
	</g>
</g>
<g>
	<path class="st2" d="M821.43,212.61H80.45c-19.64,0-35.57-15.92-35.57-35.57V73.57C44.89,53.92,60.81,38,80.45,38h740.98
		C841.08,38,857,53.92,857,73.57v103.48C857,196.69,841.08,212.61,821.43,212.61z"/>
	<g>
		<ellipse class="st1" cx="140.4" cy="126.44" rx="83.64" ry="81.17"/>
		<ellipse class="st1" cx="140.4" cy="126.44" rx="83.64" ry="81.17"/>
		<g>
			<ellipse class="st3" cx="140.4" cy="126.74" rx="83.64" ry="81.17"/>
			<path class="st1" d="M140.4,56.78c19.25,0,37.35,7.28,50.97,20.49c13.61,13.21,21.11,30.78,21.11,49.46s-7.5,36.25-21.11,49.46
				c-13.61,13.21-31.72,20.49-50.97,20.49s-37.35-7.28-50.97-20.49c-13.61-13.21-21.11-30.78-21.11-49.46s7.5-36.25,21.11-49.46
				C103.04,64.06,121.14,56.78,140.4,56.78 M140.4,45.56c-46.19,0-83.64,36.34-83.64,81.17s37.45,81.17,83.64,81.17
				c46.19,0,83.64-36.34,83.64-81.17S186.59,45.56,140.4,45.56L140.4,45.56z"/>
		</g>
		<path class="st4" d="M140.4,208.8c-46.62,0-84.55-36.81-84.55-82.06s37.93-82.06,84.55-82.06c46.62,0,84.55,36.81,84.55,82.06
			S187.02,208.8,140.4,208.8z M140.4,46.45c-45.62,0-82.73,36.02-82.73,80.29s37.11,80.29,82.73,80.29
			c45.62,0,82.73-36.02,82.73-80.29S186.01,46.45,140.4,46.45z"/>
		<g>
			<polygon class="st7" points="99.72,107.24 104.15,107.24 104.15,114.91 109.75,114.91 109.75,121.06 114.62,121.06 
				114.62,127.83 120.13,127.83 120.13,138.35 126.01,138.35 126.01,144.67 135.56,144.67 135.56,149.67 177.18,149.67 
				177.18,141.55 144.65,141.55 144.65,135.23 132.9,135.23 132.9,127.47 126.83,127.47 126.83,122.04 120.87,122.04 120.87,116.15 
				114.62,116.15 114.62,108.31 108.83,108.31 108.83,101.72 99.72,101.72 			"/>
			<polygon class="st1" points="99.72,103.05 122.98,103.05 122.98,110.27 132.71,110.27 132.71,116.82 160.91,116.82 
				160.91,124.44 177.18,124.44 177.18,138.35 150.8,138.35 150.8,128.54 146.4,128.54 146.4,124 126.65,124 126.65,116.82 
				116.18,116.82 116.18,108.31 108.83,108.31 108.83,106.35 99.72,106.35 			"/>
			<g>
				<path class="st4" d="M184.14,155.31H99.72c-0.5,0-0.91-0.4-0.91-0.89V93.43c0-0.49,0.41-0.89,0.91-0.89s0.91,0.4,0.91,0.89
					v60.11h83.51c0.5,0,0.91,0.4,0.91,0.89S184.64,155.31,184.14,155.31z"/>
				<path class="st8" d="M177.18,129.98h-22.37c-0.5,0-0.91-0.4-0.91-0.89v-7.96h-24.77c-0.5,0-0.91-0.4-0.91-0.89v-5.55h-9.86
					c-0.5,0-0.91-0.4-0.91-0.89v-8.37H99.72c-0.5,0-0.91-0.4-0.91-0.89s0.41-0.89,0.91-0.89h18.64c0.5,0,0.91,0.4,0.91,0.89v8.37
					h9.86c0.5,0,0.91,0.4,0.91,0.89v5.55h24.77c0.5,0,0.91,0.4,0.91,0.89v7.96h21.46c0.5,0,0.91,0.4,0.91,0.89
					S177.69,129.98,177.18,129.98z"/>
				<path class="st5" d="M177.18,146.06h-36.45c-0.5,0-0.91-0.4-0.91-0.89v-5.55h-9.86c-0.5,0-0.91-0.4-0.91-0.89v-7.15h-4.89
					c-0.5,0-0.91-0.4-0.91-0.89v-5.55h-4.89c-0.5,0-0.91-0.4-0.91-0.89v-4.74h-4.89c-0.5,0-0.91-0.4-0.91-0.89v-7.15h-4.83
					c-0.5,0-0.91-0.4-0.91-0.89v-5.16h-6.18c-0.5,0-0.91-0.4-0.91-0.89s0.41-0.89,0.91-0.89h7.1c0.5,0,0.91,0.4,0.91,0.89v5.16h4.83
					c0.5,0,0.91,0.4,0.91,0.89v7.15h4.89c0.5,0,0.91,0.4,0.91,0.89v4.74h4.89c0.5,0,0.91,0.4,0.91,0.89v5.55h4.89
					c0.5,0,0.91,0.4,0.91,0.89v7.15h9.86c0.5,0,0.91,0.4,0.91,0.89v5.55h35.54c0.5,0,0.91,0.4,0.91,0.89
					S177.69,146.06,177.18,146.06z"/>
			</g>
			<path class="st4" d="M180.62,158.99c-0.23,0-0.47-0.09-0.65-0.26c-0.36-0.35-0.36-0.91,0-1.25l3.15-3.06l-3.15-3.06
				c-0.36-0.35-0.36-0.91,0-1.25c0.36-0.35,0.93-0.35,1.29,0l3.8,3.69c0.36,0.35,0.36,0.91,0,1.25l-3.8,3.69
				C181.08,158.91,180.85,158.99,180.62,158.99z"/>
			<path class="st4" d="M95.92,98c-0.23,0-0.47-0.09-0.65-0.26c-0.36-0.35-0.36-0.91,0-1.25l3.8-3.69c0.36-0.35,0.93-0.35,1.29,0
				l3.8,3.69c0.36,0.35,0.36,0.91,0,1.25c-0.36,0.35-0.93,0.35-1.29,0l-3.15-3.06l-3.15,3.06C96.39,97.91,96.15,98,95.92,98z"/>
		</g>
	</g>
	<g>
		<g>
			<path class="st4" d="M278.06,111.02h8.7c5.39,0,9.51,1.52,9.51,6.27c0,2.34-1.35,4.75-3.58,5.51v0.17
				c2.84,0.65,4.93,2.58,4.93,6.03c0,5.13-4.4,7.51-10.19,7.51h-9.37V111.02z M286.37,121.39c3.34,0,4.79-1.31,4.79-3.34
				c0-2.24-1.56-3.13-4.72-3.13h-3.12v6.47H286.37z M286.97,132.58c3.58,0,5.54-1.24,5.54-3.89c0-2.48-1.92-3.51-5.54-3.51h-3.66
				v7.4H286.97z"/>
			<path class="st4" d="M299.64,111.36c0-1.65,1.31-2.76,3.12-2.76c1.77,0,3.09,1.1,3.09,2.76c0,1.58-1.31,2.76-3.09,2.76
				C300.95,114.12,299.64,112.95,299.64,111.36z M300.13,117.22h5.18v19.29h-5.18V117.22z"/>
			<path class="st4" d="M308.01,126.9c0-6.44,4.58-10.16,9.55-10.16c4.97,0,9.55,3.72,9.55,10.16c0,6.37-4.58,10.09-9.55,10.09
				C312.58,136.99,308.01,133.27,308.01,126.9z M321.78,126.9c0-3.65-1.53-6.03-4.22-6.03c-2.7,0-4.22,2.38-4.22,6.03
				c0,3.62,1.53,5.96,4.22,5.96C320.25,132.86,321.78,130.51,321.78,126.9z"/>
			<path class="st4" d="M327.73,134.27l2.38-3.17c1.78,1.34,3.48,2.1,5.32,2.1c1.99,0,2.87-0.83,2.87-2.03
				c0-1.45-2.06-2.1-4.15-2.89c-2.52-0.93-5.43-2.41-5.43-5.61c0-3.48,2.91-5.92,7.38-5.92c2.91,0,5.11,1.17,6.78,2.38l-2.34,3.07
				c-1.42-0.96-2.8-1.65-4.29-1.65c-1.77,0-2.63,0.76-2.63,1.86c0,1.41,1.95,1.93,4.05,2.69c2.63,0.96,5.54,2.24,5.54,5.82
				c0,3.38-2.73,6.1-7.91,6.1C332.63,136.99,329.69,135.85,327.73,134.27z"/>
			<path class="st4" d="M345.44,129.76v-8.54h-2.8v-3.75l3.05-0.24l0.6-5.17h4.36v5.17h4.9v4h-4.9v8.54c0,2.2,0.92,3.24,2.7,3.24
				c0.64,0,1.42-0.21,1.95-0.41l0.85,3.69c-1.06,0.34-2.45,0.72-4.19,0.72C347.25,136.99,345.44,134.1,345.44,129.76z"/>
			<path class="st4" d="M356.12,131.27c0-4.13,3.44-6.3,11.43-7.13c-0.07-1.89-0.92-3.34-3.37-3.34c-1.84,0-3.62,0.79-5.47,1.83
				l-1.88-3.34c2.34-1.41,5.18-2.55,8.3-2.55c5.04,0,7.63,2.93,7.63,8.51v11.26h-4.26l-0.39-2.07h-0.11c-1.74,1.45-3.73,2.55-6,2.55
				C358.46,136.99,356.12,134.54,356.12,131.27z M367.55,131.13v-3.89c-4.83,0.62-6.46,1.89-6.46,3.62c0,1.52,1.1,2.17,2.63,2.17
				C365.21,133.03,366.31,132.34,367.55,131.13z"/>
			<path class="st4" d="M376.49,129.76v-8.54h-2.8v-3.75l3.05-0.24l0.6-5.17h4.36v5.17h4.9v4h-4.9v8.54c0,2.2,0.92,3.24,2.7,3.24
				c0.64,0,1.42-0.21,1.95-0.41l0.85,3.69c-1.06,0.34-2.45,0.72-4.19,0.72C378.3,136.99,376.49,134.1,376.49,129.76z"/>
			<path class="st4" d="M388.48,111.36c0-1.65,1.31-2.76,3.12-2.76c1.77,0,3.09,1.1,3.09,2.76c0,1.58-1.31,2.76-3.09,2.76
				C389.79,114.12,388.48,112.95,388.48,111.36z M388.98,117.22h5.18v19.29h-5.18V117.22z"/>
			<path class="st4" d="M396.21,134.27l2.38-3.17c1.78,1.34,3.48,2.1,5.32,2.1c1.99,0,2.87-0.83,2.87-2.03
				c0-1.45-2.06-2.1-4.15-2.89c-2.52-0.93-5.43-2.41-5.43-5.61c0-3.48,2.91-5.92,7.38-5.92c2.91,0,5.11,1.17,6.78,2.38l-2.34,3.07
				c-1.42-0.96-2.8-1.65-4.29-1.65c-1.77,0-2.63,0.76-2.63,1.86c0,1.41,1.95,1.93,4.05,2.69c2.63,0.96,5.54,2.24,5.54,5.82
				c0,3.38-2.73,6.1-7.91,6.1C401.11,136.99,398.17,135.85,396.21,134.27z"/>
			<path class="st4" d="M413.92,129.76v-8.54h-2.8v-3.75l3.05-0.24l0.6-5.17h4.37v5.17h4.9v4h-4.9v8.54c0,2.2,0.92,3.24,2.7,3.24
				c0.64,0,1.42-0.21,1.95-0.41l0.85,3.69c-1.07,0.34-2.45,0.72-4.19,0.72C415.73,136.99,413.92,134.1,413.92,129.76z"/>
			<path class="st4" d="M425.91,111.36c0-1.65,1.31-2.76,3.12-2.76c1.77,0,3.09,1.1,3.09,2.76c0,1.58-1.31,2.76-3.09,2.76
				C427.22,114.12,425.91,112.95,425.91,111.36z M426.41,117.22h5.18v19.29h-5.18V117.22z"/>
			<path class="st4" d="M434.28,126.9c0-6.44,4.76-10.16,10.15-10.16c2.45,0,4.33,0.93,5.79,2.14l-2.49,3.27
				c-0.99-0.83-1.92-1.27-3.05-1.27c-3.02,0-5.08,2.38-5.08,6.03c0,3.62,2.06,5.96,4.93,5.96c1.42,0,2.77-0.65,3.87-1.55l2.06,3.34
				c-1.88,1.62-4.3,2.34-6.5,2.34C438.47,136.99,434.28,133.27,434.28,126.9z"/>
			<path class="st4" d="M451.14,131.27c0-4.13,3.44-6.3,11.43-7.13c-0.07-1.89-0.92-3.34-3.37-3.34c-1.84,0-3.62,0.79-5.47,1.83
				l-1.88-3.34c2.34-1.41,5.18-2.55,8.3-2.55c5.04,0,7.63,2.93,7.63,8.51v11.26h-4.26l-0.39-2.07h-0.11c-1.74,1.45-3.73,2.55-6,2.55
				C453.48,136.99,451.14,134.54,451.14,131.27z M462.56,131.13v-3.89c-4.82,0.62-6.46,1.89-6.46,3.62c0,1.52,1.1,2.17,2.63,2.17
				C460.22,133.03,461.32,132.34,462.56,131.13z"/>
			<path class="st4" d="M471.43,131.1v-22.08h5.18v22.32c0,1.14,0.57,1.51,1.06,1.51c0.22,0,0.36,0,0.71-0.07l0.64,3.75
				c-0.6,0.24-1.49,0.45-2.7,0.45C472.71,136.99,471.43,134.68,471.43,131.1z"/>
			<path class="st4" d="M491.98,111.34h5.82l4.47,11.92c0.57,1.58,1.06,3.27,1.6,4.93h0.18c0.57-1.65,1.03-3.34,1.6-4.93l4.36-11.92
				h5.82v25.49h-4.79v-10.64c0-2.41,0.39-5.96,0.64-8.37h-0.14l-2.13,5.99l-4.05,10.71h-3.02l-4.08-10.71l-2.09-5.99h-0.14
				c0.25,2.41,0.67,5.96,0.67,8.37v10.64h-4.72V111.34z"/>
			<path class="st4" d="M518.95,127.21c0-6.27,4.51-10.16,9.26-10.16c5.47,0,8.31,3.89,8.31,9.23c0,0.93-0.11,1.86-0.25,2.31h-12.24
				c0.43,3.17,2.55,4.82,5.5,4.82c1.63,0,3.05-0.48,4.47-1.34l1.78,3.1c-1.95,1.31-4.47,2.14-6.96,2.14
				C523.28,137.31,518.95,133.55,518.95,127.21z M532.04,125.25c0-2.62-1.21-4.27-3.76-4.27c-2.09,0-3.94,1.45-4.33,4.27H532.04z"/>
			<path class="st4" d="M539.46,130.07v-8.54h-2.8v-3.75l3.05-0.24l0.6-5.17h4.36v5.17h4.9v4h-4.9v8.54c0,2.2,0.92,3.24,2.7,3.24
				c0.64,0,1.42-0.21,1.95-0.41l0.85,3.69c-1.06,0.34-2.45,0.72-4.19,0.72C541.27,137.31,539.46,134.41,539.46,130.07z"/>
			<path class="st4" d="M551.95,109.34h5.18v6.92l-0.21,3.62c1.6-1.45,3.55-2.82,6.25-2.82c4.29,0,6.14,2.89,6.14,7.75v12.02h-5.22
				v-11.4c0-2.96-0.85-4.03-2.8-4.03c-1.63,0-2.66,0.76-4.15,2.17v13.26h-5.18V109.34z"/>
			<path class="st4" d="M571.74,127.21c0-6.44,4.58-10.16,9.55-10.16s9.55,3.72,9.55,10.16c0,6.37-4.58,10.09-9.55,10.09
				S571.74,133.59,571.74,127.21z M585.51,127.21c0-3.65-1.52-6.03-4.22-6.03c-2.7,0-4.22,2.38-4.22,6.03
				c0,3.62,1.53,5.96,4.22,5.96C583.99,133.17,585.51,130.83,585.51,127.21z"/>
			<path class="st4" d="M592.39,127.21c0-6.3,4.05-10.16,8.34-10.16c2.24,0,3.62,0.83,5.04,2.1l-0.21-3.03v-6.78h5.22v27.48h-4.22
				l-0.43-2h-0.11c-1.46,1.38-3.44,2.48-5.5,2.48C595.59,137.31,592.39,133.52,592.39,127.21z M605.56,131.14v-8.47
				c-1.21-1.07-2.45-1.45-3.69-1.45c-2.24,0-4.12,2.07-4.12,5.92c0,4,1.49,5.99,4.12,5.99
				C603.25,133.14,604.42,132.59,605.56,131.14z"/>
			<path class="st4" d="M612.83,134.58l2.38-3.17c1.78,1.34,3.48,2.1,5.32,2.1c1.99,0,2.87-0.83,2.87-2.03
				c0-1.45-2.06-2.1-4.15-2.89c-2.52-0.93-5.43-2.41-5.43-5.61c0-3.48,2.91-5.92,7.38-5.92c2.91,0,5.11,1.17,6.78,2.38l-2.34,3.07
				c-1.42-0.96-2.8-1.65-4.29-1.65c-1.78,0-2.63,0.76-2.63,1.86c0,1.41,1.95,1.93,4.05,2.69c2.63,0.96,5.54,2.24,5.54,5.82
				c0,3.38-2.73,6.1-7.91,6.1C617.73,137.31,614.78,136.17,612.83,134.58z"/>
		</g>
	</g>
</g>
<g>
	<path class="st2" d="M819.43,651H80.57C60.92,651,45,635.08,45,615.43V507.11c0-19.64,15.92-35.57,35.57-35.57h738.87
		c19.64,0,35.57,15.92,35.57,35.57v108.32C855,635.08,839.08,651,819.43,651z"/>
	<g>
		<circle class="st1" cx="137.76" cy="561.24" r="84.79"/>
		<g>
			<circle class="st3" cx="137.76" cy="561.56" r="84.79"/>
			<path class="st1" d="M137.76,488.48c19.52,0,37.87,7.6,51.67,21.4c13.8,13.8,21.4,32.15,21.4,51.67c0,19.52-7.6,37.87-21.4,51.67
				c-13.8,13.8-32.15,21.4-51.67,21.4s-37.87-7.6-51.67-21.4c-13.8-13.8-21.4-32.15-21.4-51.67c0-19.52,7.6-37.87,21.4-51.67
				C99.89,496.09,118.24,488.48,137.76,488.48 M137.76,476.77c-46.83,0-84.79,37.96-84.79,84.79c0,46.83,37.96,84.79,84.79,84.79
				s84.79-37.96,84.79-84.79C222.55,514.73,184.59,476.77,137.76,476.77L137.76,476.77z"/>
		</g>
		<path class="st4" d="M137.76,647.28c-47.26,0-85.72-38.45-85.72-85.72c0-47.26,38.45-85.72,85.72-85.72s85.72,38.45,85.72,85.72
			C223.47,608.82,185.02,647.28,137.76,647.28z M137.76,477.69c-46.24,0-83.87,37.62-83.87,83.87c0,46.24,37.62,83.87,83.87,83.87
			s83.87-37.62,83.87-83.87C221.62,515.31,184,477.69,137.76,477.69z"/>
		<g>
			<g>
				<path class="st4" d="M128.42,538.2c-14.01,0-28.9-3.01-28.9-8.59c0-5.58,14.89-8.59,28.9-8.59c14.01,0,28.9,3.01,28.9,8.59
					C157.32,535.18,142.43,538.2,128.42,538.2z M128.42,522.86c-7.39,0-14.33,0.79-19.53,2.21c-5.54,1.52-7.51,3.34-7.51,4.53
					c0,1.19,1.97,3.01,7.51,4.53c5.21,1.43,12.14,2.21,19.53,2.21c7.39,0,14.33-0.79,19.54-2.21c5.54-1.52,7.51-3.33,7.51-4.53
					c0-1.19-1.97-3.01-7.51-4.53C142.75,523.65,135.81,522.86,128.42,522.86z"/>
				<path class="st4" d="M128.42,590.42c-14.01,0-28.9-3.01-28.9-8.59V529.6c0-0.51,0.41-0.93,0.93-0.93s0.93,0.41,0.93,0.93
					c0,1.19,1.97,3.01,7.51,4.53c5.21,1.43,12.14,2.21,19.53,2.21c7.39,0,14.33-0.79,19.54-2.21c5.54-1.52,7.51-3.33,7.51-4.53
					c0-0.51,0.41-0.93,0.93-0.93c0.51,0,0.93,0.41,0.93,0.93v52.22C157.32,587.41,142.43,590.42,128.42,590.42z M101.37,532.8v49.03
					c0,1.19,1.97,3.01,7.51,4.53c5.21,1.43,12.14,2.21,19.53,2.21c7.39,0,14.33-0.79,19.54-2.21c5.54-1.52,7.51-3.34,7.51-4.53
					V532.8c-4.41,3.53-16.01,5.4-27.05,5.4C117.38,538.2,105.78,536.32,101.37,532.8z"/>
				<path class="st4" d="M128.42,555.61c-14.01,0-28.9-3.01-28.9-8.59c0-0.51,0.41-0.93,0.93-0.93s0.93,0.41,0.93,0.93
					c0,1.19,1.97,3.01,7.51,4.53c5.21,1.43,12.14,2.21,19.53,2.21c7.39,0,14.33-0.79,19.54-2.21c5.54-1.52,7.51-3.33,7.51-4.53
					c0-0.51,0.41-0.93,0.93-0.93c0.51,0,0.93,0.41,0.93,0.93C157.32,552.6,142.43,555.61,128.42,555.61z"/>
				<path class="st4" d="M128.42,573.03c-14.01,0-28.9-3.01-28.9-8.59c0-0.51,0.41-0.93,0.93-0.93s0.93,0.41,0.93,0.93
					c0,1.19,1.97,3.01,7.51,4.53c5.21,1.43,12.14,2.21,19.53,2.21c7.39,0,14.33-0.79,19.54-2.21c5.54-1.52,7.51-3.34,7.51-4.53
					c0-0.51,0.41-0.93,0.93-0.93c0.51,0,0.93,0.41,0.93,0.93C157.32,570.02,142.43,573.03,128.42,573.03z"/>
			</g>
			<circle class="st3" cx="160.19" cy="582.73" r="14.54"/>
			<g>
				<path class="st3" d="M176.53,577.68c-0.32-1.02-0.73-2-1.22-2.93l4.86-6.31l-2.85-2.85l-2.85-2.85l-6.31,4.86
					c-0.93-0.49-1.91-0.9-2.93-1.22l-1.02-7.9h-4.03h-4.03l-1.02,7.9c-1.02,0.32-2,0.73-2.94,1.22l-6.31-4.86l-2.85,2.85l-2.85,2.85
					l4.86,6.31c-0.49,0.93-0.9,1.91-1.22,2.93l-7.9,1.02v4.03v4.03l7.9,1.02c0.32,1.02,0.73,2,1.22,2.93l-4.86,6.31l2.85,2.85
					l2.85,2.85l6.31-4.86c0.93,0.49,1.91,0.9,2.94,1.22l1.02,7.9h4.03h4.03l1.02-7.9c1.02-0.32,2-0.73,2.94-1.22l6.31,4.86
					l2.85-2.85l2.85-2.85l-4.86-6.31c0.49-0.93,0.9-1.91,1.22-2.93l7.9-1.02v-4.03v-4.03L176.53,577.68z M160.19,595.43
					c-7.01,0-12.7-5.68-12.7-12.7s5.68-12.7,12.7-12.7c7.01,0,12.7,5.68,12.7,12.7S167.21,595.43,160.19,595.43z"/>
				<path class="st4" d="M164.22,607.89h-8.05c-0.47,0-0.86-0.35-0.92-0.81l-0.95-7.32c-0.68-0.23-1.34-0.51-1.99-0.83l-5.84,4.51
					c-0.37,0.28-0.89,0.25-1.22-0.08l-5.69-5.69c-0.33-0.33-0.36-0.85-0.08-1.22l4.51-5.85c-0.32-0.65-0.59-1.32-0.83-1.99
					l-7.32-0.95c-0.46-0.06-0.81-0.45-0.81-0.92v-8.05c0-0.47,0.35-0.86,0.81-0.92l7.32-0.95c0.23-0.67,0.51-1.34,0.83-1.99
					l-4.51-5.85c-0.28-0.37-0.25-0.89,0.08-1.22l5.69-5.69c0.33-0.33,0.85-0.36,1.22-0.08l5.84,4.51c0.65-0.32,1.31-0.59,1.99-0.83
					l0.95-7.32c0.06-0.46,0.45-0.81,0.92-0.81h8.05c0.47,0,0.86,0.35,0.92,0.81l0.95,7.32c0.68,0.23,1.34,0.51,1.99,0.83l5.84-4.51
					c0.37-0.28,0.89-0.25,1.22,0.08l5.69,5.69c0.33,0.33,0.36,0.85,0.08,1.22l-4.51,5.85c0.32,0.65,0.59,1.32,0.83,1.99l7.32,0.95
					c0.46,0.06,0.81,0.45,0.81,0.92v8.05c0,0.47-0.35,0.86-0.81,0.92l-7.32,0.95c-0.23,0.67-0.51,1.34-0.83,1.99l4.51,5.85
					c0.28,0.37,0.25,0.89-0.08,1.22l-5.69,5.69c-0.33,0.33-0.85,0.36-1.22,0.08l-5.84-4.51c-0.65,0.32-1.32,0.59-1.99,0.83
					l-0.95,7.32C165.08,607.54,164.68,607.89,164.22,607.89z M156.98,606.04h6.42l0.92-7.09c0.05-0.36,0.3-0.66,0.64-0.77
					c0.95-0.29,1.88-0.68,2.78-1.15c0.32-0.17,0.71-0.14,1,0.08l5.66,4.37l4.54-4.54l-4.37-5.66c-0.22-0.29-0.25-0.68-0.09-1
					c0.47-0.89,0.86-1.83,1.15-2.78c0.11-0.35,0.41-0.6,0.77-0.64l7.09-0.92v-6.42l-7.09-0.92c-0.36-0.05-0.66-0.3-0.77-0.64
					c-0.29-0.95-0.68-1.88-1.15-2.78c-0.17-0.32-0.14-0.71,0.09-1l4.37-5.66l-4.54-4.54l-5.66,4.37c-0.29,0.22-0.68,0.25-1,0.08
					c-0.89-0.47-1.83-0.86-2.78-1.15c-0.35-0.11-0.6-0.41-0.64-0.77l-0.92-7.09h-6.42l-0.92,7.09c-0.05,0.36-0.3,0.66-0.64,0.77
					c-0.95,0.29-1.88,0.68-2.78,1.15c-0.32,0.17-0.71,0.14-1-0.08l-5.66-4.37l-4.54,4.54l4.37,5.66c0.22,0.29,0.25,0.68,0.08,1
					c-0.47,0.89-0.86,1.83-1.15,2.77c-0.11,0.35-0.41,0.6-0.77,0.64l-7.09,0.92v6.42l7.09,0.92c0.36,0.05,0.66,0.3,0.77,0.64
					c0.29,0.95,0.68,1.88,1.15,2.77c0.17,0.32,0.14,0.71-0.08,1l-4.37,5.66l4.54,4.54l5.66-4.37c0.29-0.22,0.68-0.25,1-0.08
					c0.89,0.47,1.83,0.86,2.78,1.15c0.35,0.11,0.6,0.41,0.64,0.77L156.98,606.04z M160.19,596.35c-7.51,0-13.62-6.11-13.62-13.62
					c0-7.51,6.11-13.62,13.62-13.62c7.51,0,13.62,6.11,13.62,13.62C173.82,590.24,167.7,596.35,160.19,596.35z M160.19,570.96
					c-6.49,0-11.77,5.28-11.77,11.77c0,6.49,5.28,11.77,11.77,11.77c6.49,0,11.77-5.28,11.77-11.77
					C171.96,576.24,166.68,570.96,160.19,570.96z"/>
			</g>
			<g>
				<circle class="st3" cx="128.42" cy="554.69" r="12.65"/>
				<path class="st5" d="M128.42,568.27c-7.49,0-13.58-6.09-13.58-13.58c0-7.49,6.09-13.58,13.58-13.58
					c7.49,0,13.58,6.09,13.58,13.58C142,562.18,135.91,568.27,128.42,568.27z M128.42,542.96c-6.47,0-11.73,5.26-11.73,11.73
					c0,6.47,5.26,11.73,11.73,11.73c6.47,0,11.73-5.26,11.73-11.73C140.15,548.22,134.89,542.96,128.42,542.96z"/>
			</g>
			<g>
				<g>
					<line class="st3" x1="122.57" y1="554.69" x2="134.28" y2="554.69"/>
					<path class="st5" d="M134.28,555.92h-11.71c-0.68,0-1.23-0.55-1.23-1.23s0.55-1.23,1.23-1.23h11.71c0.68,0,1.23,0.55,1.23,1.23
						S134.96,555.92,134.28,555.92z"/>
				</g>
				<g>
					<line class="st3" x1="128.42" y1="548.83" x2="128.42" y2="560.54"/>
					<path class="st5" d="M128.42,561.78c-0.68,0-1.23-0.55-1.23-1.23v-11.71c0-0.68,0.55-1.23,1.23-1.23
						c0.68,0,1.23,0.55,1.23,1.23v11.71C129.66,561.23,129.11,561.78,128.42,561.78z"/>
				</g>
			</g>
		</g>
	</g>
	<g>
		<g>
			<path class="st4" d="M275.63,545.44h5.24v10.3h9.91v-10.3h5.2v26.19h-5.2V560.3h-9.91v11.32h-5.24V545.44z"/>
			<path class="st4" d="M299.09,561.76c0-6.44,4.49-10.44,9.24-10.44c5.45,0,8.28,4,8.28,9.48c0,0.96-0.11,1.91-0.25,2.37h-12.21
				c0.42,3.26,2.55,4.95,5.49,4.95c1.63,0,3.04-0.49,4.46-1.38l1.77,3.18c-1.95,1.35-4.46,2.19-6.93,2.19
				C303.4,572.12,299.09,568.27,299.09,561.76z M312.14,559.74c0-2.69-1.2-4.39-3.75-4.39c-2.09,0-3.93,1.49-4.32,4.39H312.14z"/>
			<path class="st4" d="M317.73,566.25c0-4.25,3.43-6.48,11.39-7.32c-0.07-1.95-0.92-3.43-3.36-3.43c-1.84,0-3.61,0.81-5.45,1.88
				l-1.88-3.43c2.34-1.45,5.17-2.62,8.28-2.62c5.03,0,7.61,3.01,7.61,8.74v11.57h-4.25l-0.39-2.12h-0.11
				c-1.73,1.49-3.72,2.62-5.98,2.62C320.07,572.12,317.73,569.61,317.73,566.25z M329.12,566.11v-4c-4.81,0.64-6.44,1.95-6.44,3.72
				c0,1.56,1.1,2.23,2.62,2.23C326.79,568.05,327.89,567.35,329.12,566.11z"/>
			<path class="st4" d="M337.97,566.07v-22.68h5.17v22.93c0,1.17,0.57,1.56,1.06,1.56c0.21,0,0.35,0,0.71-0.07l0.64,3.86
				c-0.6,0.25-1.49,0.46-2.69,0.46C339.24,572.12,337.97,569.75,337.97,566.07z"/>
			<path class="st4" d="M348.19,564.69v-8.78h-2.8v-3.86l3.04-0.25l0.6-5.31h4.35v5.31h4.88v4.11h-4.88v8.78
				c0,2.26,0.92,3.33,2.69,3.33c0.64,0,1.42-0.21,1.95-0.42l0.85,3.79c-1.06,0.35-2.44,0.74-4.18,0.74
				C350,572.12,348.19,569.15,348.19,564.69z"/>
			<path class="st4" d="M360.64,543.39h5.17v7.11l-0.21,3.72c1.59-1.49,3.54-2.9,6.23-2.9c4.28,0,6.12,2.97,6.12,7.96v12.35h-5.2
				v-11.71c0-3.04-0.85-4.14-2.79-4.14c-1.63,0-2.65,0.78-4.14,2.23v13.62h-5.17V543.39z"/>
			<path class="st4" d="M380.39,561.76c0-6.62,4.74-10.44,10.12-10.44c2.44,0,4.32,0.96,5.77,2.19l-2.48,3.36
				c-0.99-0.85-1.91-1.31-3.04-1.31c-3.01,0-5.06,2.44-5.06,6.19c0,3.72,2.05,6.12,4.92,6.12c1.42,0,2.76-0.67,3.86-1.59l2.05,3.43
				c-1.88,1.66-4.28,2.41-6.48,2.41C384.56,572.12,380.39,568.3,380.39,561.76z"/>
			<path class="st4" d="M397.19,566.25c0-4.25,3.43-6.48,11.39-7.32c-0.07-1.95-0.92-3.43-3.36-3.43c-1.84,0-3.61,0.81-5.45,1.88
				l-1.88-3.43c2.34-1.45,5.17-2.62,8.28-2.62c5.03,0,7.61,3.01,7.61,8.74v11.57h-4.25l-0.39-2.12h-0.11
				c-1.73,1.49-3.71,2.62-5.98,2.62C399.53,572.12,397.19,569.61,397.19,566.25z M408.59,566.11v-4c-4.81,0.64-6.44,1.95-6.44,3.72
				c0,1.56,1.1,2.23,2.62,2.23C406.25,568.05,407.35,567.35,408.59,566.11z"/>
			<path class="st4" d="M417.43,551.81h4.25l0.35,3.5h0.14c1.45-2.58,3.57-4,5.63-4c1.1,0,1.73,0.18,2.34,0.43l-0.92,4.49
				c-0.67-0.21-1.24-0.32-2.05-0.32c-1.56,0-3.43,1.03-4.57,3.89v11.82h-5.17V551.81z"/>
			<path class="st4" d="M429.53,561.76c0-6.44,4.49-10.44,9.24-10.44c5.45,0,8.28,4,8.28,9.48c0,0.96-0.1,1.91-0.25,2.37h-12.21
				c0.43,3.26,2.55,4.95,5.49,4.95c1.63,0,3.05-0.49,4.46-1.38l1.77,3.18c-1.94,1.35-4.46,2.19-6.94,2.19
				C433.84,572.12,429.53,568.27,429.53,561.76z M442.58,559.74c0-2.69-1.2-4.39-3.75-4.39c-2.09,0-3.93,1.49-4.32,4.39H442.58z"/>
			<path class="st4" d="M457,544.63h8.67c5.38,0,9.48,1.56,9.48,6.44c0,2.41-1.35,4.88-3.57,5.66v0.18
				c2.83,0.67,4.92,2.65,4.92,6.19c0,5.27-4.39,7.71-10.16,7.71H457V544.63z M465.28,555.28c3.33,0,4.78-1.34,4.78-3.43
				c0-2.3-1.56-3.22-4.71-3.22h-3.11v6.65H465.28z M465.88,566.78c3.57,0,5.52-1.27,5.52-4c0-2.55-1.91-3.61-5.52-3.61h-3.65v7.61
				H465.88z"/>
			<path class="st4" d="M478.51,544.98c0-1.7,1.31-2.83,3.11-2.83c1.77,0,3.08,1.13,3.08,2.83c0,1.63-1.31,2.83-3.08,2.83
				C479.82,547.81,478.51,546.61,478.51,544.98z M479,551h5.17v19.82H479V551z"/>
			<path class="st4" d="M486.79,574.32c0-1.66,1.03-3.08,2.83-4.11v-0.18c-1.03-0.67-1.81-1.7-1.81-3.33c0-1.49,1.03-2.87,2.19-3.71
				v-0.14c-1.34-0.99-2.62-2.87-2.62-5.17c0-4.67,3.79-7.18,8-7.18c1.1,0,2.16,0.21,2.97,0.5h7.15v3.82h-3.4
				c0.53,0.67,0.92,1.77,0.92,3.01c0,4.46-3.4,6.72-7.64,6.72c-0.78,0-1.7-0.18-2.55-0.46c-0.57,0.46-0.85,0.92-0.85,1.7
				c0,1.06,0.78,1.63,3.11,1.63h3.36c4.78,0,7.36,1.49,7.36,4.95c0,4-4.14,7.04-10.76,7.04
				C490.39,579.41,486.79,577.82,486.79,574.32z M500.87,573.26c0-1.42-1.17-1.77-3.29-1.77h-2.41c-1.2,0-2.05-0.11-2.76-0.28
				c-0.88,0.71-1.31,1.49-1.31,2.3c0,1.66,1.84,2.62,4.74,2.62C498.82,576.12,500.87,574.81,500.87,573.26z M498.46,557.69
				c0-2.34-1.31-3.64-3.08-3.64s-3.11,1.31-3.11,3.64c0,2.34,1.38,3.65,3.11,3.65C497.12,561.33,498.46,560.02,498.46,557.69z"/>
			<path class="st4" d="M514.35,544.63h7.18c8,0,12.95,4.14,12.95,12.99c0,8.81-4.95,13.2-12.67,13.2h-7.47V544.63z M521.21,566.6
				c4.88,0,7.93-2.62,7.93-8.99c0-6.41-3.05-8.81-7.93-8.81h-1.63v17.8H521.21z"/>
			<path class="st4" d="M536.53,565.44c0-4.25,3.43-6.48,11.39-7.32c-0.07-1.95-0.92-3.43-3.36-3.43c-1.84,0-3.61,0.81-5.45,1.88
				l-1.88-3.43c2.34-1.45,5.17-2.62,8.28-2.62c5.03,0,7.61,3.01,7.61,8.74v11.57h-4.25l-0.39-2.12h-0.11
				c-1.73,1.49-3.71,2.62-5.98,2.62C538.86,571.31,536.53,568.8,536.53,565.44z M547.92,565.29v-4c-4.81,0.64-6.44,1.95-6.44,3.72
				c0,1.56,1.1,2.23,2.62,2.23C545.59,567.24,546.68,566.53,547.92,565.29z"/>
			<path class="st4" d="M556.83,563.88v-8.78h-2.79v-3.86l3.04-0.25l0.6-5.31h4.35V551h4.88v4.11h-4.88v8.78
				c0,2.26,0.92,3.33,2.69,3.33c0.64,0,1.42-0.21,1.95-0.42l0.85,3.79c-1.06,0.35-2.44,0.74-4.18,0.74
				C558.64,571.31,556.83,568.34,556.83,563.88z"/>
			<path class="st4" d="M567.48,565.44c0-4.25,3.43-6.48,11.39-7.32c-0.07-1.95-0.92-3.43-3.36-3.43c-1.84,0-3.61,0.81-5.45,1.88
				l-1.88-3.43c2.34-1.45,5.17-2.62,8.28-2.62c5.03,0,7.61,3.01,7.61,8.74v11.57h-4.25l-0.39-2.12h-0.11
				c-1.73,1.49-3.71,2.62-5.98,2.62C569.82,571.31,567.48,568.8,567.48,565.44z M578.88,565.29v-4c-4.81,0.64-6.44,1.95-6.44,3.72
				c0,1.56,1.1,2.23,2.62,2.23C576.54,567.24,577.64,566.53,578.88,565.29z"/>
		</g>
	</g>
</g>
<g>
	<path class="st2" d="M821.43,434.07H80.51c-19.64,0-35.57-15.92-35.57-35.57V289.72c0-19.64,15.92-35.57,35.57-35.57h740.93
		c19.64,0,35.57,15.92,35.57,35.57V398.5C857,418.15,841.08,434.07,821.43,434.07z"/>
	<g>
		<circle class="st1" cx="140.94" cy="343.81" r="81.2"/>
		<circle class="st1" cx="140.94" cy="343.81" r="81.2"/>
		<g>
			<circle class="st3" cx="140.94" cy="344.11" r="81.2"/>
			<path class="st1" d="M140.94,274.13c18.69,0,36.27,7.28,49.48,20.5c13.22,13.22,20.5,30.79,20.5,49.48s-7.28,36.27-20.5,49.48
				c-13.22,13.22-30.79,20.5-49.48,20.5s-36.27-7.28-49.48-20.5c-13.22-13.22-20.5-30.79-20.5-49.48s7.28-36.27,20.5-49.48
				C104.67,281.41,122.24,274.13,140.94,274.13 M140.94,262.91c-44.85,0-81.2,36.36-81.2,81.2s36.36,81.2,81.2,81.2
				c44.85,0,81.2-36.36,81.2-81.2S185.79,262.91,140.94,262.91L140.94,262.91z"/>
		</g>
		<path class="st4" d="M140.94,426.2c-45.26,0-82.09-36.83-82.09-82.09s36.83-82.09,82.09-82.09c45.27,0,82.09,36.83,82.09,82.09
			S186.2,426.2,140.94,426.2z M140.94,263.8c-44.29,0-80.32,36.03-80.32,80.32s36.03,80.32,80.32,80.32
			c44.29,0,80.32-36.03,80.32-80.32S185.23,263.8,140.94,263.8z"/>
		<g>
			<ellipse class="st5" cx="140.72" cy="330.49" rx="30.64" ry="6.72"/>
			<g>
				<path class="st4" d="M124.41,301.72c1.58,0,2.86-1.28,2.86-2.86c0-1.58-1.28-2.86-2.86-2.86c-1.58,0-2.86,1.28-2.86,2.86
					C121.54,300.44,122.82,301.72,124.41,301.72z"/>
				<path class="st4" d="M127.84,302.48h-6.87c-1.26,0-2.29,1.03-2.29,2.29v10.46c0,0.55,0.44,0.99,0.99,0.99
					c0.55,0,0.99-0.44,0.99-0.99v-8.98c0-0.18,0.15-0.33,0.33-0.33c0.18,0,0.33,0.15,0.33,0.33v22.43c0,0.71,0.57,1.28,1.28,1.28
					c0.71,0,1.28-0.57,1.28-1.28v-11.94c0-0.29,0.23-0.52,0.52-0.52c0.29,0,0.52,0.23,0.52,0.52v11.94c0,0.71,0.57,1.28,1.28,1.28
					s1.28-0.57,1.28-1.28v-22.43c0-0.18,0.15-0.33,0.33-0.33s0.33,0.15,0.33,0.33v8.98c0,0.55,0.44,0.99,0.99,0.99
					c0.55,0,0.99-0.44,0.99-0.99v-10.46C130.13,303.51,129.1,302.48,127.84,302.48z"/>
			</g>
			<g>
				<path class="st4" d="M157.86,301.72c1.58,0,2.86-1.28,2.86-2.86c0-1.58-1.28-2.86-2.86-2.86c-1.58,0-2.86,1.28-2.86,2.86
					C155,300.44,156.28,301.72,157.86,301.72z"/>
				<path class="st4" d="M161.29,302.48h-6.87c-1.26,0-2.29,1.03-2.29,2.29v10.46c0,0.55,0.44,0.99,0.99,0.99
					c0.55,0,0.99-0.44,0.99-0.99v-8.98c0-0.18,0.15-0.33,0.33-0.33c0.18,0,0.33,0.15,0.33,0.33v22.43c0,0.71,0.57,1.28,1.28,1.28
					s1.28-0.57,1.28-1.28v-11.94c0-0.29,0.23-0.52,0.52-0.52c0.29,0,0.52,0.23,0.52,0.52v11.94c0,0.71,0.57,1.28,1.28,1.28
					s1.28-0.57,1.28-1.28v-22.43c0-0.18,0.15-0.33,0.33-0.33c0.18,0,0.33,0.15,0.33,0.33v8.98c0,0.55,0.44,0.99,0.99,0.99
					c0.55,0,0.99-0.44,0.99-0.99v-10.46C163.58,303.51,162.56,302.48,161.29,302.48z"/>
			</g>
			<g>
				<path class="st4" d="M141.13,301.72c1.58,0,2.86-1.28,2.86-2.86c0-1.58-1.28-2.86-2.86-2.86c-1.58,0-2.86,1.28-2.86,2.86
					C138.27,300.44,139.55,301.72,141.13,301.72z"/>
				<path class="st4" d="M146.02,304.37c-0.19-1.09-1.14-1.89-2.25-1.89h-5.26c-1.11,0-2.06,0.8-2.25,1.89l-1.88,10.66
					c-0.1,0.54,0.26,1.05,0.8,1.15c0.54,0.1,1.05-0.26,1.15-0.8l1.62-9.18c0.03-0.16,0.17-0.28,0.33-0.28c0.21,0,0.37,0.19,0.33,0.4
					l-2.53,14.35h1.97v8.01c0,0.71,0.57,1.28,1.28,1.28h0c0.71,0,1.28-0.57,1.28-1.28v-8.01h1.04v8.01c0,0.71,0.57,1.28,1.28,1.28
					s1.28-0.57,1.28-1.28v-8.01h1.97l-2.53-14.35c-0.04-0.21,0.12-0.4,0.33-0.4c0.17,0,0.31,0.12,0.33,0.28l1.62,9.18
					c0.1,0.54,0.61,0.9,1.15,0.8c0.54-0.09,0.9-0.61,0.8-1.15L146.02,304.37z"/>
			</g>
			<ellipse class="st5" cx="140.72" cy="390.94" rx="30.64" ry="6.72"/>
			<g>
				<path class="st4" d="M141.13,362.17c1.58,0,2.86-1.28,2.86-2.86s-1.28-2.86-2.86-2.86c-1.58,0-2.86,1.28-2.86,2.86
					S139.55,362.17,141.13,362.17z"/>
				<path class="st4" d="M144.57,362.93h-6.87c-1.26,0-2.29,1.03-2.29,2.29v10.46c0,0.55,0.44,0.99,0.99,0.99
					c0.55,0,0.99-0.44,0.99-0.99v-8.98c0-0.18,0.15-0.33,0.33-0.33c0.18,0,0.33,0.15,0.33,0.33v22.43c0,0.71,0.57,1.28,1.28,1.28
					s1.28-0.57,1.28-1.28v-11.94c0-0.29,0.23-0.52,0.52-0.52c0.29,0,0.52,0.23,0.52,0.52v11.94c0,0.71,0.57,1.28,1.28,1.28
					s1.28-0.57,1.28-1.28v-22.43c0-0.18,0.15-0.33,0.33-0.33c0.18,0,0.33,0.15,0.33,0.33v8.98c0,0.55,0.44,0.99,0.99,0.99
					c0.55,0,0.99-0.44,0.99-0.99v-10.46C146.86,363.95,145.83,362.93,144.57,362.93z"/>
			</g>
			<g>
				<path class="st4" d="M124.41,362.17c1.58,0,2.86-1.28,2.86-2.86s-1.28-2.86-2.86-2.86c-1.58,0-2.86,1.28-2.86,2.86
					S122.82,362.17,124.41,362.17z"/>
				<path class="st4" d="M129.29,364.82c-0.19-1.09-1.14-1.89-2.25-1.89h-5.26c-1.11,0-2.06,0.8-2.25,1.89l-1.88,10.66
					c-0.1,0.54,0.26,1.05,0.8,1.15c0.54,0.1,1.05-0.26,1.15-0.8l1.62-9.18c0.03-0.16,0.17-0.28,0.33-0.28c0.21,0,0.37,0.19,0.33,0.4
					l-2.53,14.35h1.97v8.01c0,0.71,0.57,1.28,1.28,1.28h0c0.71,0,1.28-0.57,1.28-1.28v-8.01h1.04v8.01c0,0.71,0.57,1.28,1.28,1.28
					c0.71,0,1.28-0.57,1.28-1.28v-8.01h1.97l-2.53-14.35c-0.04-0.21,0.12-0.4,0.33-0.4c0.17,0,0.31,0.12,0.33,0.28l1.62,9.18
					c0.09,0.54,0.61,0.9,1.15,0.8c0.54-0.1,0.9-0.61,0.8-1.15L129.29,364.82z"/>
			</g>
			<g>
				<path class="st4" d="M157.86,362.17c1.58,0,2.86-1.28,2.86-2.86s-1.28-2.86-2.86-2.86c-1.58,0-2.86,1.28-2.86,2.86
					S156.28,362.17,157.86,362.17z"/>
				<path class="st4" d="M162.74,364.82c-0.19-1.09-1.14-1.89-2.25-1.89h-5.26c-1.11,0-2.06,0.8-2.25,1.89l-1.88,10.66
					c-0.1,0.54,0.26,1.05,0.8,1.15c0.54,0.1,1.05-0.26,1.15-0.8l1.62-9.18c0.03-0.16,0.17-0.28,0.33-0.28c0.21,0,0.37,0.19,0.33,0.4
					l-2.53,14.35h1.97v8.01c0,0.71,0.57,1.28,1.28,1.28h0c0.71,0,1.28-0.57,1.28-1.28v-8.01h1.04v8.01c0,0.71,0.57,1.28,1.28,1.28
					s1.28-0.57,1.28-1.28v-8.01h1.97l-2.53-14.35c-0.04-0.21,0.12-0.4,0.33-0.4c0.17,0,0.31,0.12,0.33,0.28l1.62,9.18
					c0.1,0.54,0.61,0.9,1.15,0.8c0.54-0.1,0.9-0.61,0.8-1.15L162.74,364.82z"/>
			</g>
			<g>
				<g>
					<path class="st9" d="M133.97,343.95h1.75l1.11,4.07c0.26,0.93,0.43,1.76,0.7,2.7h0.06c0.26-0.94,0.45-1.78,0.71-2.7l1.09-4.07
						h1.7l-2.57,8.37h-1.99L133.97,343.95z"/>
					<path class="st9" d="M140.82,351.25l0.96-1.15c0.6,0.55,1.39,0.93,2.13,0.93c0.87,0,1.33-0.37,1.33-0.96
						c0-0.62-0.51-0.81-1.26-1.13l-1.12-0.48c-0.85-0.35-1.7-1.03-1.7-2.25c0-1.37,1.2-2.42,2.9-2.42c0.97,0,1.95,0.38,2.62,1.07
						l-0.85,1.05c-0.53-0.44-1.09-0.69-1.78-0.69c-0.73,0-1.21,0.33-1.21,0.88c0,0.6,0.6,0.81,1.31,1.1l1.1,0.46
						c1.02,0.42,1.69,1.06,1.69,2.27c0,1.37-1.14,2.53-3.08,2.53C142.76,352.48,141.64,352.04,140.82,351.25z"/>
				</g>
			</g>
		</g>
	</g>
	<g>
		<g>
			<path class="st4" d="M279.29,330.9h9.06c6.11,0,10.81,2.12,10.81,8.65c0,6.3-4.73,9.13-10.66,9.13h-3.69v9.8h-5.52V330.9z
				 M288.13,344.31c3.8,0,5.63-1.6,5.63-4.77c0-3.21-2.01-4.29-5.81-4.29h-3.13v9.06H288.13z"/>
			<path class="st4" d="M301.94,337.61h4.47l0.37,3.69h0.15c1.53-2.72,3.76-4.21,5.93-4.21c1.15,0,1.83,0.19,2.46,0.45l-0.97,4.73
				c-0.71-0.22-1.3-0.33-2.16-0.33c-1.64,0-3.61,1.08-4.81,4.1v12.45h-5.44V337.61z"/>
			<path class="st4" d="M314.69,348.08c0-6.78,4.73-10.99,9.73-10.99c5.74,0,8.72,4.21,8.72,9.99c0,1.01-0.11,2.01-0.26,2.5h-12.86
				c0.45,3.43,2.68,5.22,5.78,5.22c1.71,0,3.2-0.52,4.69-1.45l1.86,3.35c-2.05,1.42-4.7,2.31-7.3,2.31
				C319.23,359,314.69,354.93,314.69,348.08z M328.44,345.95c0-2.83-1.27-4.62-3.95-4.62c-2.2,0-4.14,1.56-4.55,4.62H328.44z"/>
			<path class="st4" d="M334.69,348.08c0-6.82,4.25-10.99,8.76-10.99c2.35,0,3.8,0.89,5.29,2.27l-0.22-3.28v-7.34H354v29.74h-4.43
				l-0.45-2.16H349c-1.53,1.49-3.61,2.68-5.78,2.68C338.05,359,334.69,354.9,334.69,348.08z M348.52,352.33v-9.17
				c-1.27-1.16-2.57-1.57-3.87-1.57c-2.35,0-4.32,2.24-4.32,6.41c0,4.32,1.57,6.48,4.32,6.48
				C346.1,354.49,347.32,353.89,348.52,352.33z"/>
			<path class="st4" d="M357.6,331.27c0-1.79,1.38-2.98,3.28-2.98c1.86,0,3.24,1.19,3.24,2.98c0,1.71-1.38,2.98-3.24,2.98
				C358.98,334.25,357.6,332.99,357.6,331.27z M358.13,337.61h5.44v20.87h-5.44V337.61z"/>
			<path class="st4" d="M366.4,348.08c0-6.97,4.99-10.99,10.66-10.99c2.57,0,4.55,1.01,6.07,2.31l-2.61,3.54
				c-1.04-0.89-2.01-1.38-3.2-1.38c-3.17,0-5.33,2.57-5.33,6.52c0,3.91,2.16,6.45,5.18,6.45c1.49,0,2.91-0.71,4.06-1.68l2.16,3.61
				c-1.97,1.75-4.51,2.53-6.82,2.53C370.79,359,366.4,354.97,366.4,348.08z"/>
			<path class="st4" d="M385.92,351.17v-9.24h-2.94v-4.06l3.2-0.26l0.63-5.59h4.58v5.59h5.14v4.32h-5.14v9.24
				c0,2.38,0.97,3.5,2.83,3.5c0.67,0,1.49-0.22,2.05-0.45l0.9,3.99c-1.12,0.37-2.57,0.78-4.4,0.78
				C387.82,359,385.92,355.87,385.92,351.17z"/>
			<path class="st4" d="M398.51,331.27c0-1.79,1.38-2.98,3.28-2.98c1.86,0,3.24,1.19,3.24,2.98c0,1.71-1.38,2.98-3.24,2.98
				C399.89,334.25,398.51,332.99,398.51,331.27z M399.03,337.61h5.44v20.87h-5.44V337.61z"/>
			<path class="st4" d="M406.18,337.61h5.52l3.06,10.4c0.52,2.05,1.12,4.21,1.68,6.34h0.19c0.52-2.12,1.12-4.29,1.68-6.34l3.06-10.4
				h5.25l-6.97,20.87h-6.34L406.18,337.61z"/>
			<path class="st4" d="M426.71,348.08c0-6.78,4.73-10.99,9.73-10.99c5.74,0,8.72,4.21,8.72,9.99c0,1.01-0.11,2.01-0.26,2.5h-12.86
				c0.45,3.43,2.68,5.22,5.78,5.22c1.71,0,3.2-0.52,4.69-1.45l1.86,3.35c-2.05,1.42-4.69,2.31-7.3,2.31
				C431.26,359,426.71,354.93,426.71,348.08z M440.46,345.95c0-2.83-1.27-4.62-3.95-4.62c-2.2,0-4.14,1.56-4.55,4.62H440.46z"/>
			<path class="st4" d="M456.55,332.55h6.11l4.69,12.89c0.6,1.71,1.12,3.54,1.68,5.33h0.19c0.6-1.79,1.08-3.62,1.68-5.33l4.58-12.89
				h6.11v27.58h-5.03v-11.51c0-2.61,0.41-6.45,0.67-9.06h-0.15l-2.24,6.48l-4.25,11.59h-3.17l-4.29-11.59l-2.2-6.48h-0.15
				c0.26,2.61,0.71,6.45,0.71,9.06v11.51h-4.96V332.55z"/>
			<path class="st4" d="M484.87,349.73c0-6.97,4.81-10.99,10.02-10.99c5.22,0,10.02,4.02,10.02,10.99c0,6.89-4.81,10.92-10.02,10.92
				C489.68,360.65,484.87,356.62,484.87,349.73z M499.33,349.73c0-3.95-1.6-6.52-4.44-6.52c-2.83,0-4.43,2.57-4.43,6.52
				c0,3.91,1.6,6.45,4.43,6.45C497.72,356.18,499.33,353.64,499.33,349.73z"/>
			<path class="st4" d="M506.55,349.73c0-6.82,4.25-10.99,8.76-10.99c2.35,0,3.8,0.89,5.29,2.27l-0.22-3.28v-7.34h5.48v29.74h-4.44
				l-0.45-2.16h-0.11c-1.53,1.49-3.61,2.68-5.78,2.68C509.9,360.65,506.55,356.55,506.55,349.73z M520.38,353.98v-9.17
				c-1.27-1.16-2.57-1.57-3.88-1.57c-2.35,0-4.32,2.24-4.32,6.41c0,4.32,1.57,6.48,4.32,6.48
				C517.95,356.14,519.18,355.54,520.38,353.98z"/>
			<path class="st4" d="M528.68,349.73c0-6.78,4.73-10.99,9.73-10.99c5.74,0,8.72,4.21,8.72,9.99c0,1.01-0.11,2.01-0.26,2.5h-12.86
				c0.45,3.43,2.68,5.22,5.78,5.22c1.71,0,3.2-0.52,4.69-1.45l1.86,3.35c-2.05,1.42-4.69,2.31-7.3,2.31
				C533.23,360.65,528.68,356.59,528.68,349.73z M542.43,347.61c0-2.83-1.27-4.62-3.95-4.62c-2.2,0-4.14,1.56-4.55,4.62H542.43z"/>
			<path class="st4" d="M549.88,354.28v-23.89h5.44v24.15c0,1.23,0.59,1.64,1.12,1.64c0.23,0,0.37,0,0.75-0.07l0.67,4.06
				c-0.63,0.26-1.57,0.48-2.83,0.48C551.22,360.65,549.88,358.15,549.88,354.28z"/>
			<path class="st4" d="M559.34,332.92c0-1.79,1.38-2.98,3.28-2.98c1.86,0,3.24,1.19,3.24,2.98c0,1.71-1.38,2.98-3.24,2.98
				C560.72,335.91,559.34,334.64,559.34,332.92z M559.86,339.26h5.44v20.87h-5.44V339.26z"/>
			<path class="st4" d="M569.44,339.26h4.47l0.37,2.76h0.15c1.82-1.79,3.95-3.28,6.78-3.28c4.51,0,6.45,3.13,6.45,8.39v13h-5.48
				v-12.33c0-3.2-0.9-4.36-2.95-4.36c-1.71,0-2.79,0.82-4.36,2.35v14.35h-5.44V339.26z"/>
			<path class="st4" d="M590.19,363.82c0-1.75,1.08-3.24,2.98-4.32v-0.19c-1.08-0.71-1.9-1.79-1.9-3.5c0-1.56,1.08-3.02,2.31-3.91
				v-0.15c-1.42-1.04-2.76-3.02-2.76-5.44c0-4.92,3.99-7.57,8.42-7.57c1.16,0,2.27,0.22,3.13,0.52h7.53v4.02h-3.58
				c0.56,0.71,0.97,1.86,0.97,3.17c0,4.7-3.58,7.08-8.05,7.08c-0.82,0-1.79-0.19-2.68-0.49c-0.59,0.49-0.89,0.97-0.89,1.79
				c0,1.12,0.82,1.71,3.28,1.71h3.54c5.03,0,7.75,1.57,7.75,5.22c0,4.21-4.36,7.42-11.33,7.42
				C593.99,369.18,590.19,367.51,590.19,363.82z M605.02,362.7c0-1.49-1.23-1.86-3.47-1.86h-2.53c-1.27,0-2.16-0.11-2.91-0.3
				c-0.93,0.75-1.38,1.56-1.38,2.42c0,1.75,1.94,2.76,5,2.76C602.86,365.72,605.02,364.34,605.02,362.7z M602.49,346.3
				c0-2.46-1.38-3.84-3.24-3.84c-1.86,0-3.28,1.38-3.28,3.84c0,2.46,1.45,3.84,3.28,3.84C601.07,350.14,602.49,348.76,602.49,346.3z
				"/>
		</g>
	</g>
</g>
<g>
	<g>
		<path class="st4" d="M270.74,755.45h7.33c8.16,0,13.21,4.22,13.21,13.25c0,8.99-5.05,13.47-12.92,13.47h-7.62V755.45z
			 M277.74,777.87c4.98,0,8.09-2.67,8.09-9.17c0-6.54-3.11-8.99-8.09-8.99h-1.66v18.16H277.74z"/>
		<path class="st4" d="M293.11,772.09c0-6.57,4.58-10.65,9.42-10.65c5.56,0,8.45,4.08,8.45,9.68c0,0.97-0.11,1.95-0.25,2.42h-12.46
			c0.43,3.32,2.6,5.05,5.6,5.05c1.66,0,3.11-0.5,4.55-1.41l1.8,3.25c-1.99,1.37-4.55,2.24-7.08,2.24
			C297.52,782.67,293.11,778.74,293.11,772.09z M306.43,770.04c0-2.74-1.23-4.48-3.83-4.48c-2.13,0-4.01,1.52-4.4,4.48H306.43z"/>
		<path class="st4" d="M312.39,772.09c0-6.57,4.58-10.65,9.42-10.65c5.56,0,8.45,4.08,8.45,9.68c0,0.97-0.11,1.95-0.25,2.42h-12.46
			c0.43,3.32,2.6,5.05,5.6,5.05c1.66,0,3.11-0.5,4.55-1.41l1.8,3.25c-1.99,1.37-4.55,2.24-7.08,2.24
			C316.79,782.67,312.39,778.74,312.39,772.09z M325.71,770.04c0-2.74-1.23-4.48-3.83-4.48c-2.13,0-4.01,1.52-4.4,4.48H325.71z"/>
		<path class="st4" d="M332.92,761.95h4.33l0.36,2.09h0.14c1.7-1.44,3.79-2.6,5.96-2.6c4.98,0,7.94,4.08,7.94,10.29
			c0,6.93-4.15,10.94-8.59,10.94c-1.77,0-3.47-0.79-5.02-2.2l0.14,3.32v6.14h-5.27V761.95z M346.21,771.8
			c0-3.86-1.23-5.99-4.01-5.99c-1.37,0-2.6,0.69-4.01,2.09v8.88c1.3,1.12,2.6,1.52,3.68,1.52
			C344.33,778.3,346.21,776.21,346.21,771.8z"/>
		<path class="st4" d="M361.4,755.45h5.34v22.24h10.83v4.48H361.4V755.45z"/>
		<path class="st4" d="M378.29,772.09c0-6.57,4.58-10.65,9.42-10.65c5.56,0,8.45,4.08,8.45,9.68c0,0.97-0.11,1.95-0.25,2.42h-12.46
			c0.43,3.32,2.6,5.05,5.6,5.05c1.66,0,3.1-0.5,4.55-1.41l1.8,3.25c-1.99,1.37-4.55,2.24-7.08,2.24
			C382.69,782.67,378.29,778.74,378.29,772.09z M391.61,770.04c0-2.74-1.23-4.48-3.83-4.48c-2.13,0-4.01,1.52-4.4,4.48H391.61z"/>
		<path class="st4" d="M397.31,776.68c0-4.33,3.5-6.61,11.62-7.47c-0.07-1.99-0.94-3.5-3.43-3.5c-1.88,0-3.68,0.83-5.56,1.91
			l-1.91-3.5c2.38-1.48,5.27-2.67,8.45-2.67c5.13,0,7.76,3.07,7.76,8.92v11.8h-4.33l-0.4-2.17h-0.11c-1.77,1.52-3.79,2.67-6.1,2.67
			C399.69,782.67,397.31,780.11,397.31,776.68z M408.93,776.53v-4.08c-4.91,0.65-6.57,1.99-6.57,3.79c0,1.59,1.12,2.27,2.67,2.27
			C406.55,778.52,407.67,777.8,408.93,776.53z"/>
		<path class="st4" d="M417.95,761.95h4.33l0.36,3.57h0.14c1.48-2.63,3.65-4.08,5.74-4.08c1.12,0,1.77,0.18,2.38,0.43l-0.94,4.58
			c-0.69-0.22-1.26-0.32-2.09-0.32c-1.59,0-3.5,1.05-4.66,3.97v12.06h-5.27V761.95z"/>
		<path class="st4" d="M431.99,761.95h4.33l0.36,2.67h0.14c1.77-1.73,3.83-3.18,6.57-3.18c4.37,0,6.24,3.03,6.24,8.12v12.6h-5.31
			v-11.95c0-3.1-0.87-4.22-2.85-4.22c-1.66,0-2.71,0.79-4.22,2.27v13.9h-5.27V761.95z"/>
		<path class="st4" d="M452.92,755.81c0-1.73,1.34-2.89,3.18-2.89c1.8,0,3.14,1.16,3.14,2.89c0,1.66-1.34,2.89-3.14,2.89
			C454.26,758.7,452.92,757.47,452.92,755.81z M453.43,761.95h5.27v20.22h-5.27V761.95z"/>
		<path class="st4" d="M462.7,761.95h4.33l0.36,2.67h0.14c1.77-1.73,3.83-3.18,6.57-3.18c4.37,0,6.24,3.03,6.24,8.12v12.6h-5.31
			v-11.95c0-3.1-0.87-4.22-2.85-4.22c-1.66,0-2.71,0.79-4.22,2.27v13.9h-5.27V761.95z"/>
		<path class="st4" d="M482.81,785.74c0-1.7,1.05-3.14,2.89-4.19v-0.18c-1.05-0.69-1.84-1.73-1.84-3.39c0-1.52,1.05-2.92,2.24-3.79
			v-0.14c-1.37-1.01-2.67-2.92-2.67-5.27c0-4.77,3.86-7.33,8.16-7.33c1.12,0,2.2,0.22,3.03,0.51h7.29v3.9h-3.47
			c0.54,0.69,0.94,1.8,0.94,3.07c0,4.55-3.47,6.86-7.8,6.86c-0.79,0-1.73-0.18-2.6-0.47c-0.58,0.47-0.87,0.94-0.87,1.73
			c0,1.08,0.79,1.66,3.18,1.66h3.43c4.87,0,7.51,1.52,7.51,5.05c0,4.08-4.22,7.18-10.97,7.18
			C486.49,790.94,482.81,789.31,482.81,785.74z M497.17,784.66c0-1.45-1.19-1.81-3.36-1.81h-2.46c-1.23,0-2.09-0.11-2.82-0.29
			c-0.9,0.72-1.34,1.52-1.34,2.35c0,1.7,1.88,2.67,4.84,2.67C495.08,787.58,497.17,786.24,497.17,784.66z M494.72,768.77
			c0-2.38-1.34-3.72-3.14-3.72c-1.8,0-3.18,1.34-3.18,3.72c0,2.38,1.41,3.72,3.18,3.72C493.35,772.49,494.72,771.16,494.72,768.77z"
			/>
	</g>
</g>
</svg>
